<mxfile host="app.diagrams.net" modified="2021-02-24T09:58:37.600Z" agent="5.0 (X11; Linux x86_64) AppleWebKit/537.36 (KHTML, like Gecko) Chrome/88.0.4324.182 Safari/537.36" etag="jZO8oDfNcJklZRHZpsFZ" version="14.3.1" type="github">
  <diagram id="UXQedshiK3F3iijjZhFb" name="Page-1">
    <mxGraphModel dx="934" dy="492" grid="1" gridSize="10" guides="1" tooltips="1" connect="1" arrows="1" fold="1" page="1" pageScale="1" pageWidth="827" pageHeight="1169" math="0" shadow="0">
      <root>
        <mxCell id="0" />
        <mxCell id="1" parent="0" />
        <mxCell id="ia1kYXbHXBEfgBKJZjug-1" value="" style="ellipse;whiteSpace=wrap;html=1;aspect=fixed;fillColor=#A9C4EB;strokeColor=none;" vertex="1" parent="1">
          <mxGeometry x="60" y="310" width="40" height="40" as="geometry" />
        </mxCell>
        <mxCell id="ia1kYXbHXBEfgBKJZjug-2" value="" style="ellipse;whiteSpace=wrap;html=1;aspect=fixed;strokeColor=none;fillColor=#FF99CC;" vertex="1" parent="1">
          <mxGeometry x="890" y="310" width="40" height="40" as="geometry" />
        </mxCell>
        <mxCell id="ia1kYXbHXBEfgBKJZjug-10" value="&lt;meta charset=&quot;utf-8&quot;&gt;&lt;a class=&quot;CID81de770e-bf5a-4f3c-92ed-006af15b48a1&quot; style=&quot;color: rgb(0, 0, 0); font-family: &amp;quot;times new roman&amp;quot;; font-size: medium; font-style: normal; font-weight: 400; letter-spacing: normal; text-indent: 0px; text-transform: none; word-spacing: 0px;&quot;&gt;&amp;nbsp;&lt;/a&gt;&lt;img src=&quot;data:image/jpg;base64, /9j/4AAQSkZJRgABAQEAYABgAAD/2wBDAAUDBAQEAwUEBAQFBQUGBwwIBwcHBw8LCwkMEQ8SEhEPERETFhwXExQaFRERGCEYGh0dHx8fExciJCIeJBweHx7/2wBDAQUFBQcGBw4ICA4eFBEUHh4eHh4eHh4eHh4eHh4eHh4eHh4eHh4eHh4eHh4eHh4eHh4eHh4eHh4eHh4eHh4eHh7/wAARCABMAE8DASIAAhEBAxEB/8QAHwAAAQUBAQEBAQEAAAAAAAAAAAECAwQFBgcICQoL/8QAtRAAAgEDAwIEAwUFBAQAAAF9AQIDAAQRBRIhMUEGE1FhByJxFDKBkaEII0KxwRVS0fAkM2JyggkKFhcYGRolJicoKSo0NTY3ODk6Q0RFRkdISUpTVFVWV1hZWmNkZWZnaGlqc3R1dnd4eXqDhIWGh4iJipKTlJWWl5iZmqKjpKWmp6ipqrKztLW2t7i5usLDxMXGx8jJytLT1NXW19jZ2uHi4+Tl5ufo6erx8vP09fb3+Pn6/8QAHwEAAwEBAQEBAQEBAQAAAAAAAAECAwQFBgcICQoL/8QAtREAAgECBAQDBAcFBAQAAQJ3AAECAxEEBSExBhJBUQdhcRMiMoEIFEKRobHBCSMzUvAVYnLRChYkNOEl8RcYGRomJygpKjU2Nzg5OkNERUZHSElKU1RVVldYWVpjZGVmZ2hpanN0dXZ3eHl6goOEhYaHiImKkpOUlZaXmJmaoqOkpaanqKmqsrO0tba3uLm6wsPExcbHyMnK0tPU1dbX2Nna4uPk5ebn6Onq8vP09fb3+Pn6/9oADAMBAAIRAxEAPwD7LoopsriONpCCQoJIAyaAHUV43r/xmktJplsrGHakm0eeCGAHBHBwT/jitLTvixpaeHZZdUuc6ht3KkMYT5T3Xce3qetcKzLDuTjzE86O+8Sa9p+gWS3eoTKiNIsYGRkk/wCABP4VH4c8RafrjXaWksZe3maPaHBLKMYcexzXyF4l8Xtf6s1vea1c3UxQyRvLgkKc43HOMdR/Km6B8RodJ0m9h02SeLUpoV8u6g3KImz8xUDrkAD9a4lmk3U+H3TD2+vkfa9FfLfhX40eJvOj8u+jurVVXIucMSMjPzcNn86+lNC1ix1izW4s5kc7FaSMMC0ZYZAbHQ13YXHU8Q3GOjXc1p1Yz2NCiiiu00Cs/wAR2cF9o88FxcTW8W0lninMJHB6sOgrQrifja2qD4e366PIwu2CgRIMtKu4ZUenH59O9RUdot2uKTsmfP8ArZ0+C4eNL7dawZjOLhWjU+gLKpbv615p4uvrOaS6ksY5RPEAg2PiGRQTgt7A55BqLxXquqafdW+j31u4vRMVnt5gwWAZ5GR0zxkip9QF1c+GomdoyZEKPJLCofaTxnuRgL/WvlJQ5anM1a5yyknCzHeFGh1Kxv7a/hjlmlhASRI1B8sj7vUE4PWthdA0ibSzHbSqigqDbMCQAM/xLhsdeMnpWE1062iXlhocUzKrJ5giKvMuMb89Cc1KmoXceoxFR9miKKChDDyiR156g/pWNRSu3F2MHJW2GeG9L1fT9aupJ7a3aNCywoGHC8EEDrnHevdfhH4hh03XRqN5qTW+nyRFmUbmErngLjoG/wDr14H4t8Wvb/Z7qxYwAnbcOidWToQSByQe/p0q94T8VNqwtYZGazlRyxeMAmVAvAOBgd6a9rCaxCWwRjKPvJH3paXEF1bR3FtKksMg3I6HIIqWvEfgt4o1N9SsdCnuCbZfMxFEgZmJ5zIxOQB7e1e3V9Tg8SsTSVRHfTnzq4V84ftA6L4is7qfV9TujcQTy/6GIrh1jgPptJ68A5BHevo+sLxv4X07xZoc+l6gCA6MqSAZMZI6gHj0q8RSdSDS3CceZWPz0n0m71K7ubnVNXmUOxV51DMfdR3J4z7VF9sFmn2WO6uDEVEA3tlcKCBgdvx5r074kfCnxp4Xi1YeQraRDdIILzzApm3nauxOfmwDuHYZrg9PsrNoIrPykkulMoVc4Ulhxk4PORx/9evFdOfNyz+45eT7L2M+8lutPe3CXkimJgo2OW/4COoOecfWt+88VeUsFxc3vm3jQu0VrESSXPKFufu+vutchLHK08yTsHMRXyQj5+YenaovE/mSX0FzBzc2hZLp9mArrwE3dCcZ6Vm6UakkpIaV5WktjuNZmtvE1na2MA3ylVJ8mUnYf4jsfpxu78cVQ0nTrzRbv7HeRvYuJAELLtJYH5OW7Ecg+hrnPB+r3FrrCllmlmfBDr1AI4OR+H619KXFifiZqVlp+rTS6beMkSgyW5FuwEf/ACzxkK/zepGAvINEKDipU76dC4pW5Wdj+z1p2mWutXC6gTFraIr26ISEaHByRyeeeR2wMV7rWF4K8Lab4V0S202xjDtEmGmYfMxP3jznAJ5x0rdr28Fh/q9FQZvCPKrBRRRXUUZ3iHRNN16x+x6nbLNGDuQnrG2MBh7ivCX+ANiniVZLRXcmZ/Mu5SUVVyG+VFADHkZJOM8ADGa+h6KznSjPcTim7nzJ4/8A2eNL0PR9c8SWOtSSlLRiLaeAOMk5Yhs5z0wecc9a5D4a/AzUPHXhKdZNWOn6fAxWBHXestwCPmI6gbCvTnp719H/ABx1FoPAN/p1ra3V3e3wS3hit4mY5ZhySBgDrXNfsu3M8Xg6fS9Qtby3vI5zI5miZQ+eOCR1G3BFc7pU1NRSOiCtRZxHgH4FeJ/C/jHQ9bddHujbGNZVO7AiVdrA5BGf4h3J9MV9IWFlaWFuLezt44IQzMERcAFiST+JJNT0VvSoxp3t1OdJIKKKK1GFFFFABRRRQAUUUUAFFFFABRRRQB//2Q==&quot; class=&quot;CID81de770e-bf5a-4f3c-92ed-006af15b48a1&quot; style=&quot;color: rgb(0, 0, 0); font-family: &amp;quot;times new roman&amp;quot;; font-size: medium; font-style: normal; font-weight: 400; letter-spacing: normal; text-indent: 0px; text-transform: none; word-spacing: 0px;&quot;&gt;" style="text;whiteSpace=wrap;html=1;" vertex="1" parent="1">
          <mxGeometry x="310" y="287.5" width="30" height="30" as="geometry" />
        </mxCell>
        <mxCell id="ia1kYXbHXBEfgBKJZjug-11" value="&lt;meta charset=&quot;utf-8&quot;&gt;&lt;a class=&quot;CID81de770e-bf5a-4f3c-92ed-006af15b48a1&quot; style=&quot;color: rgb(0, 0, 0); font-family: &amp;quot;times new roman&amp;quot;; font-size: medium; font-style: normal; font-weight: 400; letter-spacing: normal; text-indent: 0px; text-transform: none; word-spacing: 0px;&quot;&gt;&amp;nbsp;&lt;/a&gt;&lt;img src=&quot;data:image/jpg;base64, /9j/4AAQSkZJRgABAQEAYABgAAD/2wBDAAUDBAQEAwUEBAQFBQUGBwwIBwcHBw8LCwkMEQ8SEhEPERETFhwXExQaFRERGCEYGh0dHx8fExciJCIeJBweHx7/2wBDAQUFBQcGBw4ICA4eFBEUHh4eHh4eHh4eHh4eHh4eHh4eHh4eHh4eHh4eHh4eHh4eHh4eHh4eHh4eHh4eHh4eHh7/wAARCABMAE8DASIAAhEBAxEB/8QAHwAAAQUBAQEBAQEAAAAAAAAAAAECAwQFBgcICQoL/8QAtRAAAgEDAwIEAwUFBAQAAAF9AQIDAAQRBRIhMUEGE1FhByJxFDKBkaEII0KxwRVS0fAkM2JyggkKFhcYGRolJicoKSo0NTY3ODk6Q0RFRkdISUpTVFVWV1hZWmNkZWZnaGlqc3R1dnd4eXqDhIWGh4iJipKTlJWWl5iZmqKjpKWmp6ipqrKztLW2t7i5usLDxMXGx8jJytLT1NXW19jZ2uHi4+Tl5ufo6erx8vP09fb3+Pn6/8QAHwEAAwEBAQEBAQEBAQAAAAAAAAECAwQFBgcICQoL/8QAtREAAgECBAQDBAcFBAQAAQJ3AAECAxEEBSExBhJBUQdhcRMiMoEIFEKRobHBCSMzUvAVYnLRChYkNOEl8RcYGRomJygpKjU2Nzg5OkNERUZHSElKU1RVVldYWVpjZGVmZ2hpanN0dXZ3eHl6goOEhYaHiImKkpOUlZaXmJmaoqOkpaanqKmqsrO0tba3uLm6wsPExcbHyMnK0tPU1dbX2Nna4uPk5ebn6Onq8vP09fb3+Pn6/9oADAMBAAIRAxEAPwD7LoopsriONpCCQoJIAyaAHUV43r/xmktJplsrGHakm0eeCGAHBHBwT/jitLTvixpaeHZZdUuc6ht3KkMYT5T3Xce3qetcKzLDuTjzE86O+8Sa9p+gWS3eoTKiNIsYGRkk/wCABP4VH4c8RafrjXaWksZe3maPaHBLKMYcexzXyF4l8Xtf6s1vea1c3UxQyRvLgkKc43HOMdR/Km6B8RodJ0m9h02SeLUpoV8u6g3KImz8xUDrkAD9a4lmk3U+H3TD2+vkfa9FfLfhX40eJvOj8u+jurVVXIucMSMjPzcNn86+lNC1ix1izW4s5kc7FaSMMC0ZYZAbHQ13YXHU8Q3GOjXc1p1Yz2NCiiiu00Cs/wAR2cF9o88FxcTW8W0lninMJHB6sOgrQrifja2qD4e366PIwu2CgRIMtKu4ZUenH59O9RUdot2uKTsmfP8ArZ0+C4eNL7dawZjOLhWjU+gLKpbv615p4uvrOaS6ksY5RPEAg2PiGRQTgt7A55BqLxXquqafdW+j31u4vRMVnt5gwWAZ5GR0zxkip9QF1c+GomdoyZEKPJLCofaTxnuRgL/WvlJQ5anM1a5yyknCzHeFGh1Kxv7a/hjlmlhASRI1B8sj7vUE4PWthdA0ibSzHbSqigqDbMCQAM/xLhsdeMnpWE1062iXlhocUzKrJ5giKvMuMb89Cc1KmoXceoxFR9miKKChDDyiR156g/pWNRSu3F2MHJW2GeG9L1fT9aupJ7a3aNCywoGHC8EEDrnHevdfhH4hh03XRqN5qTW+nyRFmUbmErngLjoG/wDr14H4t8Wvb/Z7qxYwAnbcOidWToQSByQe/p0q94T8VNqwtYZGazlRyxeMAmVAvAOBgd6a9rCaxCWwRjKPvJH3paXEF1bR3FtKksMg3I6HIIqWvEfgt4o1N9SsdCnuCbZfMxFEgZmJ5zIxOQB7e1e3V9Tg8SsTSVRHfTnzq4V84ftA6L4is7qfV9TujcQTy/6GIrh1jgPptJ68A5BHevo+sLxv4X07xZoc+l6gCA6MqSAZMZI6gHj0q8RSdSDS3CceZWPz0n0m71K7ubnVNXmUOxV51DMfdR3J4z7VF9sFmn2WO6uDEVEA3tlcKCBgdvx5r074kfCnxp4Xi1YeQraRDdIILzzApm3nauxOfmwDuHYZrg9PsrNoIrPykkulMoVc4Ulhxk4PORx/9evFdOfNyz+45eT7L2M+8lutPe3CXkimJgo2OW/4COoOecfWt+88VeUsFxc3vm3jQu0VrESSXPKFufu+vutchLHK08yTsHMRXyQj5+YenaovE/mSX0FzBzc2hZLp9mArrwE3dCcZ6Vm6UakkpIaV5WktjuNZmtvE1na2MA3ylVJ8mUnYf4jsfpxu78cVQ0nTrzRbv7HeRvYuJAELLtJYH5OW7Ecg+hrnPB+r3FrrCllmlmfBDr1AI4OR+H619KXFifiZqVlp+rTS6beMkSgyW5FuwEf/ACzxkK/zepGAvINEKDipU76dC4pW5Wdj+z1p2mWutXC6gTFraIr26ISEaHByRyeeeR2wMV7rWF4K8Lab4V0S202xjDtEmGmYfMxP3jznAJ5x0rdr28Fh/q9FQZvCPKrBRRRXUUZ3iHRNN16x+x6nbLNGDuQnrG2MBh7ivCX+ANiniVZLRXcmZ/Mu5SUVVyG+VFADHkZJOM8ADGa+h6KznSjPcTim7nzJ4/8A2eNL0PR9c8SWOtSSlLRiLaeAOMk5Yhs5z0wecc9a5D4a/AzUPHXhKdZNWOn6fAxWBHXestwCPmI6gbCvTnp719H/ABx1FoPAN/p1ra3V3e3wS3hit4mY5ZhySBgDrXNfsu3M8Xg6fS9Qtby3vI5zI5miZQ+eOCR1G3BFc7pU1NRSOiCtRZxHgH4FeJ/C/jHQ9bddHujbGNZVO7AiVdrA5BGf4h3J9MV9IWFlaWFuLezt44IQzMERcAFiST+JJNT0VvSoxp3t1OdJIKKKK1GFFFFABRRRQAUUUUAFFFFABRRRQB//2Q==&quot; class=&quot;CID81de770e-bf5a-4f3c-92ed-006af15b48a1&quot; style=&quot;color: rgb(0, 0, 0); font-family: &amp;quot;times new roman&amp;quot;; font-size: medium; font-style: normal; font-weight: 400; letter-spacing: normal; text-indent: 0px; text-transform: none; word-spacing: 0px;&quot;&gt;" style="text;whiteSpace=wrap;html=1;" vertex="1" parent="1">
          <mxGeometry x="440" y="390" width="30" height="30" as="geometry" />
        </mxCell>
        <mxCell id="ia1kYXbHXBEfgBKJZjug-12" value="&lt;meta charset=&quot;utf-8&quot;&gt;&lt;a class=&quot;CID81de770e-bf5a-4f3c-92ed-006af15b48a1&quot; style=&quot;color: rgb(0, 0, 0); font-family: &amp;quot;times new roman&amp;quot;; font-size: medium; font-style: normal; font-weight: 400; letter-spacing: normal; text-indent: 0px; text-transform: none; word-spacing: 0px;&quot;&gt;&amp;nbsp;&lt;/a&gt;&lt;img src=&quot;data:image/jpg;base64, /9j/4AAQSkZJRgABAQEAYABgAAD/2wBDAAUDBAQEAwUEBAQFBQUGBwwIBwcHBw8LCwkMEQ8SEhEPERETFhwXExQaFRERGCEYGh0dHx8fExciJCIeJBweHx7/2wBDAQUFBQcGBw4ICA4eFBEUHh4eHh4eHh4eHh4eHh4eHh4eHh4eHh4eHh4eHh4eHh4eHh4eHh4eHh4eHh4eHh4eHh7/wAARCABMAE8DASIAAhEBAxEB/8QAHwAAAQUBAQEBAQEAAAAAAAAAAAECAwQFBgcICQoL/8QAtRAAAgEDAwIEAwUFBAQAAAF9AQIDAAQRBRIhMUEGE1FhByJxFDKBkaEII0KxwRVS0fAkM2JyggkKFhcYGRolJicoKSo0NTY3ODk6Q0RFRkdISUpTVFVWV1hZWmNkZWZnaGlqc3R1dnd4eXqDhIWGh4iJipKTlJWWl5iZmqKjpKWmp6ipqrKztLW2t7i5usLDxMXGx8jJytLT1NXW19jZ2uHi4+Tl5ufo6erx8vP09fb3+Pn6/8QAHwEAAwEBAQEBAQEBAQAAAAAAAAECAwQFBgcICQoL/8QAtREAAgECBAQDBAcFBAQAAQJ3AAECAxEEBSExBhJBUQdhcRMiMoEIFEKRobHBCSMzUvAVYnLRChYkNOEl8RcYGRomJygpKjU2Nzg5OkNERUZHSElKU1RVVldYWVpjZGVmZ2hpanN0dXZ3eHl6goOEhYaHiImKkpOUlZaXmJmaoqOkpaanqKmqsrO0tba3uLm6wsPExcbHyMnK0tPU1dbX2Nna4uPk5ebn6Onq8vP09fb3+Pn6/9oADAMBAAIRAxEAPwD7LoopsriONpCCQoJIAyaAHUV43r/xmktJplsrGHakm0eeCGAHBHBwT/jitLTvixpaeHZZdUuc6ht3KkMYT5T3Xce3qetcKzLDuTjzE86O+8Sa9p+gWS3eoTKiNIsYGRkk/wCABP4VH4c8RafrjXaWksZe3maPaHBLKMYcexzXyF4l8Xtf6s1vea1c3UxQyRvLgkKc43HOMdR/Km6B8RodJ0m9h02SeLUpoV8u6g3KImz8xUDrkAD9a4lmk3U+H3TD2+vkfa9FfLfhX40eJvOj8u+jurVVXIucMSMjPzcNn86+lNC1ix1izW4s5kc7FaSMMC0ZYZAbHQ13YXHU8Q3GOjXc1p1Yz2NCiiiu00Cs/wAR2cF9o88FxcTW8W0lninMJHB6sOgrQrifja2qD4e366PIwu2CgRIMtKu4ZUenH59O9RUdot2uKTsmfP8ArZ0+C4eNL7dawZjOLhWjU+gLKpbv615p4uvrOaS6ksY5RPEAg2PiGRQTgt7A55BqLxXquqafdW+j31u4vRMVnt5gwWAZ5GR0zxkip9QF1c+GomdoyZEKPJLCofaTxnuRgL/WvlJQ5anM1a5yyknCzHeFGh1Kxv7a/hjlmlhASRI1B8sj7vUE4PWthdA0ibSzHbSqigqDbMCQAM/xLhsdeMnpWE1062iXlhocUzKrJ5giKvMuMb89Cc1KmoXceoxFR9miKKChDDyiR156g/pWNRSu3F2MHJW2GeG9L1fT9aupJ7a3aNCywoGHC8EEDrnHevdfhH4hh03XRqN5qTW+nyRFmUbmErngLjoG/wDr14H4t8Wvb/Z7qxYwAnbcOidWToQSByQe/p0q94T8VNqwtYZGazlRyxeMAmVAvAOBgd6a9rCaxCWwRjKPvJH3paXEF1bR3FtKksMg3I6HIIqWvEfgt4o1N9SsdCnuCbZfMxFEgZmJ5zIxOQB7e1e3V9Tg8SsTSVRHfTnzq4V84ftA6L4is7qfV9TujcQTy/6GIrh1jgPptJ68A5BHevo+sLxv4X07xZoc+l6gCA6MqSAZMZI6gHj0q8RSdSDS3CceZWPz0n0m71K7ubnVNXmUOxV51DMfdR3J4z7VF9sFmn2WO6uDEVEA3tlcKCBgdvx5r074kfCnxp4Xi1YeQraRDdIILzzApm3nauxOfmwDuHYZrg9PsrNoIrPykkulMoVc4Ulhxk4PORx/9evFdOfNyz+45eT7L2M+8lutPe3CXkimJgo2OW/4COoOecfWt+88VeUsFxc3vm3jQu0VrESSXPKFufu+vutchLHK08yTsHMRXyQj5+YenaovE/mSX0FzBzc2hZLp9mArrwE3dCcZ6Vm6UakkpIaV5WktjuNZmtvE1na2MA3ylVJ8mUnYf4jsfpxu78cVQ0nTrzRbv7HeRvYuJAELLtJYH5OW7Ecg+hrnPB+r3FrrCllmlmfBDr1AI4OR+H619KXFifiZqVlp+rTS6beMkSgyW5FuwEf/ACzxkK/zepGAvINEKDipU76dC4pW5Wdj+z1p2mWutXC6gTFraIr26ISEaHByRyeeeR2wMV7rWF4K8Lab4V0S202xjDtEmGmYfMxP3jznAJ5x0rdr28Fh/q9FQZvCPKrBRRRXUUZ3iHRNN16x+x6nbLNGDuQnrG2MBh7ivCX+ANiniVZLRXcmZ/Mu5SUVVyG+VFADHkZJOM8ADGa+h6KznSjPcTim7nzJ4/8A2eNL0PR9c8SWOtSSlLRiLaeAOMk5Yhs5z0wecc9a5D4a/AzUPHXhKdZNWOn6fAxWBHXestwCPmI6gbCvTnp719H/ABx1FoPAN/p1ra3V3e3wS3hit4mY5ZhySBgDrXNfsu3M8Xg6fS9Qtby3vI5zI5miZQ+eOCR1G3BFc7pU1NRSOiCtRZxHgH4FeJ/C/jHQ9bddHujbGNZVO7AiVdrA5BGf4h3J9MV9IWFlaWFuLezt44IQzMERcAFiST+JJNT0VvSoxp3t1OdJIKKKK1GFFFFABRRRQAUUUUAFFFFABRRRQB//2Q==&quot; class=&quot;CID81de770e-bf5a-4f3c-92ed-006af15b48a1&quot; style=&quot;color: rgb(0, 0, 0); font-family: &amp;quot;times new roman&amp;quot;; font-size: medium; font-style: normal; font-weight: 400; letter-spacing: normal; text-indent: 0px; text-transform: none; word-spacing: 0px;&quot;&gt;" style="text;whiteSpace=wrap;html=1;" vertex="1" parent="1">
          <mxGeometry x="610" y="460" width="30" height="30" as="geometry" />
        </mxCell>
        <mxCell id="ia1kYXbHXBEfgBKJZjug-13" value="&lt;meta charset=&quot;utf-8&quot;&gt;&lt;a class=&quot;CID81de770e-bf5a-4f3c-92ed-006af15b48a1&quot; style=&quot;color: rgb(0, 0, 0); font-family: &amp;quot;times new roman&amp;quot;; font-size: medium; font-style: normal; font-weight: 400; letter-spacing: normal; text-indent: 0px; text-transform: none; word-spacing: 0px;&quot;&gt;&amp;nbsp;&lt;/a&gt;&lt;img src=&quot;data:image/jpg;base64, /9j/4AAQSkZJRgABAQEAYABgAAD/2wBDAAUDBAQEAwUEBAQFBQUGBwwIBwcHBw8LCwkMEQ8SEhEPERETFhwXExQaFRERGCEYGh0dHx8fExciJCIeJBweHx7/2wBDAQUFBQcGBw4ICA4eFBEUHh4eHh4eHh4eHh4eHh4eHh4eHh4eHh4eHh4eHh4eHh4eHh4eHh4eHh4eHh4eHh4eHh7/wAARCABMAE8DASIAAhEBAxEB/8QAHwAAAQUBAQEBAQEAAAAAAAAAAAECAwQFBgcICQoL/8QAtRAAAgEDAwIEAwUFBAQAAAF9AQIDAAQRBRIhMUEGE1FhByJxFDKBkaEII0KxwRVS0fAkM2JyggkKFhcYGRolJicoKSo0NTY3ODk6Q0RFRkdISUpTVFVWV1hZWmNkZWZnaGlqc3R1dnd4eXqDhIWGh4iJipKTlJWWl5iZmqKjpKWmp6ipqrKztLW2t7i5usLDxMXGx8jJytLT1NXW19jZ2uHi4+Tl5ufo6erx8vP09fb3+Pn6/8QAHwEAAwEBAQEBAQEBAQAAAAAAAAECAwQFBgcICQoL/8QAtREAAgECBAQDBAcFBAQAAQJ3AAECAxEEBSExBhJBUQdhcRMiMoEIFEKRobHBCSMzUvAVYnLRChYkNOEl8RcYGRomJygpKjU2Nzg5OkNERUZHSElKU1RVVldYWVpjZGVmZ2hpanN0dXZ3eHl6goOEhYaHiImKkpOUlZaXmJmaoqOkpaanqKmqsrO0tba3uLm6wsPExcbHyMnK0tPU1dbX2Nna4uPk5ebn6Onq8vP09fb3+Pn6/9oADAMBAAIRAxEAPwD7LoopsriONpCCQoJIAyaAHUV43r/xmktJplsrGHakm0eeCGAHBHBwT/jitLTvixpaeHZZdUuc6ht3KkMYT5T3Xce3qetcKzLDuTjzE86O+8Sa9p+gWS3eoTKiNIsYGRkk/wCABP4VH4c8RafrjXaWksZe3maPaHBLKMYcexzXyF4l8Xtf6s1vea1c3UxQyRvLgkKc43HOMdR/Km6B8RodJ0m9h02SeLUpoV8u6g3KImz8xUDrkAD9a4lmk3U+H3TD2+vkfa9FfLfhX40eJvOj8u+jurVVXIucMSMjPzcNn86+lNC1ix1izW4s5kc7FaSMMC0ZYZAbHQ13YXHU8Q3GOjXc1p1Yz2NCiiiu00Cs/wAR2cF9o88FxcTW8W0lninMJHB6sOgrQrifja2qD4e366PIwu2CgRIMtKu4ZUenH59O9RUdot2uKTsmfP8ArZ0+C4eNL7dawZjOLhWjU+gLKpbv615p4uvrOaS6ksY5RPEAg2PiGRQTgt7A55BqLxXquqafdW+j31u4vRMVnt5gwWAZ5GR0zxkip9QF1c+GomdoyZEKPJLCofaTxnuRgL/WvlJQ5anM1a5yyknCzHeFGh1Kxv7a/hjlmlhASRI1B8sj7vUE4PWthdA0ibSzHbSqigqDbMCQAM/xLhsdeMnpWE1062iXlhocUzKrJ5giKvMuMb89Cc1KmoXceoxFR9miKKChDDyiR156g/pWNRSu3F2MHJW2GeG9L1fT9aupJ7a3aNCywoGHC8EEDrnHevdfhH4hh03XRqN5qTW+nyRFmUbmErngLjoG/wDr14H4t8Wvb/Z7qxYwAnbcOidWToQSByQe/p0q94T8VNqwtYZGazlRyxeMAmVAvAOBgd6a9rCaxCWwRjKPvJH3paXEF1bR3FtKksMg3I6HIIqWvEfgt4o1N9SsdCnuCbZfMxFEgZmJ5zIxOQB7e1e3V9Tg8SsTSVRHfTnzq4V84ftA6L4is7qfV9TujcQTy/6GIrh1jgPptJ68A5BHevo+sLxv4X07xZoc+l6gCA6MqSAZMZI6gHj0q8RSdSDS3CceZWPz0n0m71K7ubnVNXmUOxV51DMfdR3J4z7VF9sFmn2WO6uDEVEA3tlcKCBgdvx5r074kfCnxp4Xi1YeQraRDdIILzzApm3nauxOfmwDuHYZrg9PsrNoIrPykkulMoVc4Ulhxk4PORx/9evFdOfNyz+45eT7L2M+8lutPe3CXkimJgo2OW/4COoOecfWt+88VeUsFxc3vm3jQu0VrESSXPKFufu+vutchLHK08yTsHMRXyQj5+YenaovE/mSX0FzBzc2hZLp9mArrwE3dCcZ6Vm6UakkpIaV5WktjuNZmtvE1na2MA3ylVJ8mUnYf4jsfpxu78cVQ0nTrzRbv7HeRvYuJAELLtJYH5OW7Ecg+hrnPB+r3FrrCllmlmfBDr1AI4OR+H619KXFifiZqVlp+rTS6beMkSgyW5FuwEf/ACzxkK/zepGAvINEKDipU76dC4pW5Wdj+z1p2mWutXC6gTFraIr26ISEaHByRyeeeR2wMV7rWF4K8Lab4V0S202xjDtEmGmYfMxP3jznAJ5x0rdr28Fh/q9FQZvCPKrBRRRXUUZ3iHRNN16x+x6nbLNGDuQnrG2MBh7ivCX+ANiniVZLRXcmZ/Mu5SUVVyG+VFADHkZJOM8ADGa+h6KznSjPcTim7nzJ4/8A2eNL0PR9c8SWOtSSlLRiLaeAOMk5Yhs5z0wecc9a5D4a/AzUPHXhKdZNWOn6fAxWBHXestwCPmI6gbCvTnp719H/ABx1FoPAN/p1ra3V3e3wS3hit4mY5ZhySBgDrXNfsu3M8Xg6fS9Qtby3vI5zI5miZQ+eOCR1G3BFc7pU1NRSOiCtRZxHgH4FeJ/C/jHQ9bddHujbGNZVO7AiVdrA5BGf4h3J9MV9IWFlaWFuLezt44IQzMERcAFiST+JJNT0VvSoxp3t1OdJIKKKK1GFFFFABRRRQAUUUUAFFFFABRRRQB//2Q==&quot; class=&quot;CID81de770e-bf5a-4f3c-92ed-006af15b48a1&quot; style=&quot;color: rgb(0, 0, 0); font-family: &amp;quot;times new roman&amp;quot;; font-size: medium; font-style: normal; font-weight: 400; letter-spacing: normal; text-indent: 0px; text-transform: none; word-spacing: 0px;&quot;&gt;" style="text;whiteSpace=wrap;html=1;" vertex="1" parent="1">
          <mxGeometry x="300" y="370" width="30" height="30" as="geometry" />
        </mxCell>
        <mxCell id="ia1kYXbHXBEfgBKJZjug-14" value="&lt;meta charset=&quot;utf-8&quot;&gt;&lt;a class=&quot;CID81de770e-bf5a-4f3c-92ed-006af15b48a1&quot; style=&quot;color: rgb(0, 0, 0); font-family: &amp;quot;times new roman&amp;quot;; font-size: medium; font-style: normal; font-weight: 400; letter-spacing: normal; text-indent: 0px; text-transform: none; word-spacing: 0px;&quot;&gt;&amp;nbsp;&lt;/a&gt;&lt;img src=&quot;data:image/jpg;base64, /9j/4AAQSkZJRgABAQEAYABgAAD/2wBDAAUDBAQEAwUEBAQFBQUGBwwIBwcHBw8LCwkMEQ8SEhEPERETFhwXExQaFRERGCEYGh0dHx8fExciJCIeJBweHx7/2wBDAQUFBQcGBw4ICA4eFBEUHh4eHh4eHh4eHh4eHh4eHh4eHh4eHh4eHh4eHh4eHh4eHh4eHh4eHh4eHh4eHh4eHh7/wAARCABMAE8DASIAAhEBAxEB/8QAHwAAAQUBAQEBAQEAAAAAAAAAAAECAwQFBgcICQoL/8QAtRAAAgEDAwIEAwUFBAQAAAF9AQIDAAQRBRIhMUEGE1FhByJxFDKBkaEII0KxwRVS0fAkM2JyggkKFhcYGRolJicoKSo0NTY3ODk6Q0RFRkdISUpTVFVWV1hZWmNkZWZnaGlqc3R1dnd4eXqDhIWGh4iJipKTlJWWl5iZmqKjpKWmp6ipqrKztLW2t7i5usLDxMXGx8jJytLT1NXW19jZ2uHi4+Tl5ufo6erx8vP09fb3+Pn6/8QAHwEAAwEBAQEBAQEBAQAAAAAAAAECAwQFBgcICQoL/8QAtREAAgECBAQDBAcFBAQAAQJ3AAECAxEEBSExBhJBUQdhcRMiMoEIFEKRobHBCSMzUvAVYnLRChYkNOEl8RcYGRomJygpKjU2Nzg5OkNERUZHSElKU1RVVldYWVpjZGVmZ2hpanN0dXZ3eHl6goOEhYaHiImKkpOUlZaXmJmaoqOkpaanqKmqsrO0tba3uLm6wsPExcbHyMnK0tPU1dbX2Nna4uPk5ebn6Onq8vP09fb3+Pn6/9oADAMBAAIRAxEAPwD7LoopsriONpCCQoJIAyaAHUV43r/xmktJplsrGHakm0eeCGAHBHBwT/jitLTvixpaeHZZdUuc6ht3KkMYT5T3Xce3qetcKzLDuTjzE86O+8Sa9p+gWS3eoTKiNIsYGRkk/wCABP4VH4c8RafrjXaWksZe3maPaHBLKMYcexzXyF4l8Xtf6s1vea1c3UxQyRvLgkKc43HOMdR/Km6B8RodJ0m9h02SeLUpoV8u6g3KImz8xUDrkAD9a4lmk3U+H3TD2+vkfa9FfLfhX40eJvOj8u+jurVVXIucMSMjPzcNn86+lNC1ix1izW4s5kc7FaSMMC0ZYZAbHQ13YXHU8Q3GOjXc1p1Yz2NCiiiu00Cs/wAR2cF9o88FxcTW8W0lninMJHB6sOgrQrifja2qD4e366PIwu2CgRIMtKu4ZUenH59O9RUdot2uKTsmfP8ArZ0+C4eNL7dawZjOLhWjU+gLKpbv615p4uvrOaS6ksY5RPEAg2PiGRQTgt7A55BqLxXquqafdW+j31u4vRMVnt5gwWAZ5GR0zxkip9QF1c+GomdoyZEKPJLCofaTxnuRgL/WvlJQ5anM1a5yyknCzHeFGh1Kxv7a/hjlmlhASRI1B8sj7vUE4PWthdA0ibSzHbSqigqDbMCQAM/xLhsdeMnpWE1062iXlhocUzKrJ5giKvMuMb89Cc1KmoXceoxFR9miKKChDDyiR156g/pWNRSu3F2MHJW2GeG9L1fT9aupJ7a3aNCywoGHC8EEDrnHevdfhH4hh03XRqN5qTW+nyRFmUbmErngLjoG/wDr14H4t8Wvb/Z7qxYwAnbcOidWToQSByQe/p0q94T8VNqwtYZGazlRyxeMAmVAvAOBgd6a9rCaxCWwRjKPvJH3paXEF1bR3FtKksMg3I6HIIqWvEfgt4o1N9SsdCnuCbZfMxFEgZmJ5zIxOQB7e1e3V9Tg8SsTSVRHfTnzq4V84ftA6L4is7qfV9TujcQTy/6GIrh1jgPptJ68A5BHevo+sLxv4X07xZoc+l6gCA6MqSAZMZI6gHj0q8RSdSDS3CceZWPz0n0m71K7ubnVNXmUOxV51DMfdR3J4z7VF9sFmn2WO6uDEVEA3tlcKCBgdvx5r074kfCnxp4Xi1YeQraRDdIILzzApm3nauxOfmwDuHYZrg9PsrNoIrPykkulMoVc4Ulhxk4PORx/9evFdOfNyz+45eT7L2M+8lutPe3CXkimJgo2OW/4COoOecfWt+88VeUsFxc3vm3jQu0VrESSXPKFufu+vutchLHK08yTsHMRXyQj5+YenaovE/mSX0FzBzc2hZLp9mArrwE3dCcZ6Vm6UakkpIaV5WktjuNZmtvE1na2MA3ylVJ8mUnYf4jsfpxu78cVQ0nTrzRbv7HeRvYuJAELLtJYH5OW7Ecg+hrnPB+r3FrrCllmlmfBDr1AI4OR+H619KXFifiZqVlp+rTS6beMkSgyW5FuwEf/ACzxkK/zepGAvINEKDipU76dC4pW5Wdj+z1p2mWutXC6gTFraIr26ISEaHByRyeeeR2wMV7rWF4K8Lab4V0S202xjDtEmGmYfMxP3jznAJ5x0rdr28Fh/q9FQZvCPKrBRRRXUUZ3iHRNN16x+x6nbLNGDuQnrG2MBh7ivCX+ANiniVZLRXcmZ/Mu5SUVVyG+VFADHkZJOM8ADGa+h6KznSjPcTim7nzJ4/8A2eNL0PR9c8SWOtSSlLRiLaeAOMk5Yhs5z0wecc9a5D4a/AzUPHXhKdZNWOn6fAxWBHXestwCPmI6gbCvTnp719H/ABx1FoPAN/p1ra3V3e3wS3hit4mY5ZhySBgDrXNfsu3M8Xg6fS9Qtby3vI5zI5miZQ+eOCR1G3BFc7pU1NRSOiCtRZxHgH4FeJ/C/jHQ9bddHujbGNZVO7AiVdrA5BGf4h3J9MV9IWFlaWFuLezt44IQzMERcAFiST+JJNT0VvSoxp3t1OdJIKKKK1GFFFFABRRRQAUUUUAFFFFABRRRQB//2Q==&quot; class=&quot;CID81de770e-bf5a-4f3c-92ed-006af15b48a1&quot; style=&quot;color: rgb(0, 0, 0); font-family: &amp;quot;times new roman&amp;quot;; font-size: medium; font-style: normal; font-weight: 400; letter-spacing: normal; text-indent: 0px; text-transform: none; word-spacing: 0px;&quot;&gt;" style="text;whiteSpace=wrap;html=1;" vertex="1" parent="1">
          <mxGeometry x="460" y="300" width="30" height="30" as="geometry" />
        </mxCell>
        <mxCell id="ia1kYXbHXBEfgBKJZjug-15" value="&lt;meta charset=&quot;utf-8&quot;&gt;&lt;a class=&quot;CID81de770e-bf5a-4f3c-92ed-006af15b48a1&quot; style=&quot;color: rgb(0, 0, 0); font-family: &amp;quot;times new roman&amp;quot;; font-size: medium; font-style: normal; font-weight: 400; letter-spacing: normal; text-indent: 0px; text-transform: none; word-spacing: 0px;&quot;&gt;&amp;nbsp;&lt;/a&gt;&lt;img src=&quot;data:image/jpg;base64, /9j/4AAQSkZJRgABAQEAYABgAAD/2wBDAAUDBAQEAwUEBAQFBQUGBwwIBwcHBw8LCwkMEQ8SEhEPERETFhwXExQaFRERGCEYGh0dHx8fExciJCIeJBweHx7/2wBDAQUFBQcGBw4ICA4eFBEUHh4eHh4eHh4eHh4eHh4eHh4eHh4eHh4eHh4eHh4eHh4eHh4eHh4eHh4eHh4eHh4eHh7/wAARCABMAE8DASIAAhEBAxEB/8QAHwAAAQUBAQEBAQEAAAAAAAAAAAECAwQFBgcICQoL/8QAtRAAAgEDAwIEAwUFBAQAAAF9AQIDAAQRBRIhMUEGE1FhByJxFDKBkaEII0KxwRVS0fAkM2JyggkKFhcYGRolJicoKSo0NTY3ODk6Q0RFRkdISUpTVFVWV1hZWmNkZWZnaGlqc3R1dnd4eXqDhIWGh4iJipKTlJWWl5iZmqKjpKWmp6ipqrKztLW2t7i5usLDxMXGx8jJytLT1NXW19jZ2uHi4+Tl5ufo6erx8vP09fb3+Pn6/8QAHwEAAwEBAQEBAQEBAQAAAAAAAAECAwQFBgcICQoL/8QAtREAAgECBAQDBAcFBAQAAQJ3AAECAxEEBSExBhJBUQdhcRMiMoEIFEKRobHBCSMzUvAVYnLRChYkNOEl8RcYGRomJygpKjU2Nzg5OkNERUZHSElKU1RVVldYWVpjZGVmZ2hpanN0dXZ3eHl6goOEhYaHiImKkpOUlZaXmJmaoqOkpaanqKmqsrO0tba3uLm6wsPExcbHyMnK0tPU1dbX2Nna4uPk5ebn6Onq8vP09fb3+Pn6/9oADAMBAAIRAxEAPwD7LoopsriONpCCQoJIAyaAHUV43r/xmktJplsrGHakm0eeCGAHBHBwT/jitLTvixpaeHZZdUuc6ht3KkMYT5T3Xce3qetcKzLDuTjzE86O+8Sa9p+gWS3eoTKiNIsYGRkk/wCABP4VH4c8RafrjXaWksZe3maPaHBLKMYcexzXyF4l8Xtf6s1vea1c3UxQyRvLgkKc43HOMdR/Km6B8RodJ0m9h02SeLUpoV8u6g3KImz8xUDrkAD9a4lmk3U+H3TD2+vkfa9FfLfhX40eJvOj8u+jurVVXIucMSMjPzcNn86+lNC1ix1izW4s5kc7FaSMMC0ZYZAbHQ13YXHU8Q3GOjXc1p1Yz2NCiiiu00Cs/wAR2cF9o88FxcTW8W0lninMJHB6sOgrQrifja2qD4e366PIwu2CgRIMtKu4ZUenH59O9RUdot2uKTsmfP8ArZ0+C4eNL7dawZjOLhWjU+gLKpbv615p4uvrOaS6ksY5RPEAg2PiGRQTgt7A55BqLxXquqafdW+j31u4vRMVnt5gwWAZ5GR0zxkip9QF1c+GomdoyZEKPJLCofaTxnuRgL/WvlJQ5anM1a5yyknCzHeFGh1Kxv7a/hjlmlhASRI1B8sj7vUE4PWthdA0ibSzHbSqigqDbMCQAM/xLhsdeMnpWE1062iXlhocUzKrJ5giKvMuMb89Cc1KmoXceoxFR9miKKChDDyiR156g/pWNRSu3F2MHJW2GeG9L1fT9aupJ7a3aNCywoGHC8EEDrnHevdfhH4hh03XRqN5qTW+nyRFmUbmErngLjoG/wDr14H4t8Wvb/Z7qxYwAnbcOidWToQSByQe/p0q94T8VNqwtYZGazlRyxeMAmVAvAOBgd6a9rCaxCWwRjKPvJH3paXEF1bR3FtKksMg3I6HIIqWvEfgt4o1N9SsdCnuCbZfMxFEgZmJ5zIxOQB7e1e3V9Tg8SsTSVRHfTnzq4V84ftA6L4is7qfV9TujcQTy/6GIrh1jgPptJ68A5BHevo+sLxv4X07xZoc+l6gCA6MqSAZMZI6gHj0q8RSdSDS3CceZWPz0n0m71K7ubnVNXmUOxV51DMfdR3J4z7VF9sFmn2WO6uDEVEA3tlcKCBgdvx5r074kfCnxp4Xi1YeQraRDdIILzzApm3nauxOfmwDuHYZrg9PsrNoIrPykkulMoVc4Ulhxk4PORx/9evFdOfNyz+45eT7L2M+8lutPe3CXkimJgo2OW/4COoOecfWt+88VeUsFxc3vm3jQu0VrESSXPKFufu+vutchLHK08yTsHMRXyQj5+YenaovE/mSX0FzBzc2hZLp9mArrwE3dCcZ6Vm6UakkpIaV5WktjuNZmtvE1na2MA3ylVJ8mUnYf4jsfpxu78cVQ0nTrzRbv7HeRvYuJAELLtJYH5OW7Ecg+hrnPB+r3FrrCllmlmfBDr1AI4OR+H619KXFifiZqVlp+rTS6beMkSgyW5FuwEf/ACzxkK/zepGAvINEKDipU76dC4pW5Wdj+z1p2mWutXC6gTFraIr26ISEaHByRyeeeR2wMV7rWF4K8Lab4V0S202xjDtEmGmYfMxP3jznAJ5x0rdr28Fh/q9FQZvCPKrBRRRXUUZ3iHRNN16x+x6nbLNGDuQnrG2MBh7ivCX+ANiniVZLRXcmZ/Mu5SUVVyG+VFADHkZJOM8ADGa+h6KznSjPcTim7nzJ4/8A2eNL0PR9c8SWOtSSlLRiLaeAOMk5Yhs5z0wecc9a5D4a/AzUPHXhKdZNWOn6fAxWBHXestwCPmI6gbCvTnp719H/ABx1FoPAN/p1ra3V3e3wS3hit4mY5ZhySBgDrXNfsu3M8Xg6fS9Qtby3vI5zI5miZQ+eOCR1G3BFc7pU1NRSOiCtRZxHgH4FeJ/C/jHQ9bddHujbGNZVO7AiVdrA5BGf4h3J9MV9IWFlaWFuLezt44IQzMERcAFiST+JJNT0VvSoxp3t1OdJIKKKK1GFFFFABRRRQAUUUUAFFFFABRRRQB//2Q==&quot; class=&quot;CID81de770e-bf5a-4f3c-92ed-006af15b48a1&quot; style=&quot;color: rgb(0, 0, 0); font-family: &amp;quot;times new roman&amp;quot;; font-size: medium; font-style: normal; font-weight: 400; letter-spacing: normal; text-indent: 0px; text-transform: none; word-spacing: 0px;&quot;&gt;" style="text;whiteSpace=wrap;html=1;" vertex="1" parent="1">
          <mxGeometry x="230" y="450" width="30" height="30" as="geometry" />
        </mxCell>
        <mxCell id="ia1kYXbHXBEfgBKJZjug-16" value="&lt;meta charset=&quot;utf-8&quot;&gt;&lt;a class=&quot;CID81de770e-bf5a-4f3c-92ed-006af15b48a1&quot; style=&quot;color: rgb(0, 0, 0); font-family: &amp;quot;times new roman&amp;quot;; font-size: medium; font-style: normal; font-weight: 400; letter-spacing: normal; text-indent: 0px; text-transform: none; word-spacing: 0px;&quot;&gt;&amp;nbsp;&lt;/a&gt;&lt;img src=&quot;data:image/jpg;base64, /9j/4AAQSkZJRgABAQEAYABgAAD/2wBDAAUDBAQEAwUEBAQFBQUGBwwIBwcHBw8LCwkMEQ8SEhEPERETFhwXExQaFRERGCEYGh0dHx8fExciJCIeJBweHx7/2wBDAQUFBQcGBw4ICA4eFBEUHh4eHh4eHh4eHh4eHh4eHh4eHh4eHh4eHh4eHh4eHh4eHh4eHh4eHh4eHh4eHh4eHh7/wAARCABMAE8DASIAAhEBAxEB/8QAHwAAAQUBAQEBAQEAAAAAAAAAAAECAwQFBgcICQoL/8QAtRAAAgEDAwIEAwUFBAQAAAF9AQIDAAQRBRIhMUEGE1FhByJxFDKBkaEII0KxwRVS0fAkM2JyggkKFhcYGRolJicoKSo0NTY3ODk6Q0RFRkdISUpTVFVWV1hZWmNkZWZnaGlqc3R1dnd4eXqDhIWGh4iJipKTlJWWl5iZmqKjpKWmp6ipqrKztLW2t7i5usLDxMXGx8jJytLT1NXW19jZ2uHi4+Tl5ufo6erx8vP09fb3+Pn6/8QAHwEAAwEBAQEBAQEBAQAAAAAAAAECAwQFBgcICQoL/8QAtREAAgECBAQDBAcFBAQAAQJ3AAECAxEEBSExBhJBUQdhcRMiMoEIFEKRobHBCSMzUvAVYnLRChYkNOEl8RcYGRomJygpKjU2Nzg5OkNERUZHSElKU1RVVldYWVpjZGVmZ2hpanN0dXZ3eHl6goOEhYaHiImKkpOUlZaXmJmaoqOkpaanqKmqsrO0tba3uLm6wsPExcbHyMnK0tPU1dbX2Nna4uPk5ebn6Onq8vP09fb3+Pn6/9oADAMBAAIRAxEAPwD7LoopsriONpCCQoJIAyaAHUV43r/xmktJplsrGHakm0eeCGAHBHBwT/jitLTvixpaeHZZdUuc6ht3KkMYT5T3Xce3qetcKzLDuTjzE86O+8Sa9p+gWS3eoTKiNIsYGRkk/wCABP4VH4c8RafrjXaWksZe3maPaHBLKMYcexzXyF4l8Xtf6s1vea1c3UxQyRvLgkKc43HOMdR/Km6B8RodJ0m9h02SeLUpoV8u6g3KImz8xUDrkAD9a4lmk3U+H3TD2+vkfa9FfLfhX40eJvOj8u+jurVVXIucMSMjPzcNn86+lNC1ix1izW4s5kc7FaSMMC0ZYZAbHQ13YXHU8Q3GOjXc1p1Yz2NCiiiu00Cs/wAR2cF9o88FxcTW8W0lninMJHB6sOgrQrifja2qD4e366PIwu2CgRIMtKu4ZUenH59O9RUdot2uKTsmfP8ArZ0+C4eNL7dawZjOLhWjU+gLKpbv615p4uvrOaS6ksY5RPEAg2PiGRQTgt7A55BqLxXquqafdW+j31u4vRMVnt5gwWAZ5GR0zxkip9QF1c+GomdoyZEKPJLCofaTxnuRgL/WvlJQ5anM1a5yyknCzHeFGh1Kxv7a/hjlmlhASRI1B8sj7vUE4PWthdA0ibSzHbSqigqDbMCQAM/xLhsdeMnpWE1062iXlhocUzKrJ5giKvMuMb89Cc1KmoXceoxFR9miKKChDDyiR156g/pWNRSu3F2MHJW2GeG9L1fT9aupJ7a3aNCywoGHC8EEDrnHevdfhH4hh03XRqN5qTW+nyRFmUbmErngLjoG/wDr14H4t8Wvb/Z7qxYwAnbcOidWToQSByQe/p0q94T8VNqwtYZGazlRyxeMAmVAvAOBgd6a9rCaxCWwRjKPvJH3paXEF1bR3FtKksMg3I6HIIqWvEfgt4o1N9SsdCnuCbZfMxFEgZmJ5zIxOQB7e1e3V9Tg8SsTSVRHfTnzq4V84ftA6L4is7qfV9TujcQTy/6GIrh1jgPptJ68A5BHevo+sLxv4X07xZoc+l6gCA6MqSAZMZI6gHj0q8RSdSDS3CceZWPz0n0m71K7ubnVNXmUOxV51DMfdR3J4z7VF9sFmn2WO6uDEVEA3tlcKCBgdvx5r074kfCnxp4Xi1YeQraRDdIILzzApm3nauxOfmwDuHYZrg9PsrNoIrPykkulMoVc4Ulhxk4PORx/9evFdOfNyz+45eT7L2M+8lutPe3CXkimJgo2OW/4COoOecfWt+88VeUsFxc3vm3jQu0VrESSXPKFufu+vutchLHK08yTsHMRXyQj5+YenaovE/mSX0FzBzc2hZLp9mArrwE3dCcZ6Vm6UakkpIaV5WktjuNZmtvE1na2MA3ylVJ8mUnYf4jsfpxu78cVQ0nTrzRbv7HeRvYuJAELLtJYH5OW7Ecg+hrnPB+r3FrrCllmlmfBDr1AI4OR+H619KXFifiZqVlp+rTS6beMkSgyW5FuwEf/ACzxkK/zepGAvINEKDipU76dC4pW5Wdj+z1p2mWutXC6gTFraIr26ISEaHByRyeeeR2wMV7rWF4K8Lab4V0S202xjDtEmGmYfMxP3jznAJ5x0rdr28Fh/q9FQZvCPKrBRRRXUUZ3iHRNN16x+x6nbLNGDuQnrG2MBh7ivCX+ANiniVZLRXcmZ/Mu5SUVVyG+VFADHkZJOM8ADGa+h6KznSjPcTim7nzJ4/8A2eNL0PR9c8SWOtSSlLRiLaeAOMk5Yhs5z0wecc9a5D4a/AzUPHXhKdZNWOn6fAxWBHXestwCPmI6gbCvTnp719H/ABx1FoPAN/p1ra3V3e3wS3hit4mY5ZhySBgDrXNfsu3M8Xg6fS9Qtby3vI5zI5miZQ+eOCR1G3BFc7pU1NRSOiCtRZxHgH4FeJ/C/jHQ9bddHujbGNZVO7AiVdrA5BGf4h3J9MV9IWFlaWFuLezt44IQzMERcAFiST+JJNT0VvSoxp3t1OdJIKKKK1GFFFFABRRRQAUUUUAFFFFABRRRQB//2Q==&quot; class=&quot;CID81de770e-bf5a-4f3c-92ed-006af15b48a1&quot; style=&quot;color: rgb(0, 0, 0); font-family: &amp;quot;times new roman&amp;quot;; font-size: medium; font-style: normal; font-weight: 400; letter-spacing: normal; text-indent: 0px; text-transform: none; word-spacing: 0px;&quot;&gt;" style="text;whiteSpace=wrap;html=1;" vertex="1" parent="1">
          <mxGeometry x="240" y="170" width="30" height="30" as="geometry" />
        </mxCell>
        <mxCell id="ia1kYXbHXBEfgBKJZjug-17" value="&lt;meta charset=&quot;utf-8&quot;&gt;&lt;a class=&quot;CID81de770e-bf5a-4f3c-92ed-006af15b48a1&quot; style=&quot;color: rgb(0, 0, 0); font-family: &amp;quot;times new roman&amp;quot;; font-size: medium; font-style: normal; font-weight: 400; letter-spacing: normal; text-indent: 0px; text-transform: none; word-spacing: 0px;&quot;&gt;&amp;nbsp;&lt;/a&gt;&lt;img src=&quot;data:image/jpg;base64, /9j/4AAQSkZJRgABAQEAYABgAAD/2wBDAAUDBAQEAwUEBAQFBQUGBwwIBwcHBw8LCwkMEQ8SEhEPERETFhwXExQaFRERGCEYGh0dHx8fExciJCIeJBweHx7/2wBDAQUFBQcGBw4ICA4eFBEUHh4eHh4eHh4eHh4eHh4eHh4eHh4eHh4eHh4eHh4eHh4eHh4eHh4eHh4eHh4eHh4eHh7/wAARCABMAE8DASIAAhEBAxEB/8QAHwAAAQUBAQEBAQEAAAAAAAAAAAECAwQFBgcICQoL/8QAtRAAAgEDAwIEAwUFBAQAAAF9AQIDAAQRBRIhMUEGE1FhByJxFDKBkaEII0KxwRVS0fAkM2JyggkKFhcYGRolJicoKSo0NTY3ODk6Q0RFRkdISUpTVFVWV1hZWmNkZWZnaGlqc3R1dnd4eXqDhIWGh4iJipKTlJWWl5iZmqKjpKWmp6ipqrKztLW2t7i5usLDxMXGx8jJytLT1NXW19jZ2uHi4+Tl5ufo6erx8vP09fb3+Pn6/8QAHwEAAwEBAQEBAQEBAQAAAAAAAAECAwQFBgcICQoL/8QAtREAAgECBAQDBAcFBAQAAQJ3AAECAxEEBSExBhJBUQdhcRMiMoEIFEKRobHBCSMzUvAVYnLRChYkNOEl8RcYGRomJygpKjU2Nzg5OkNERUZHSElKU1RVVldYWVpjZGVmZ2hpanN0dXZ3eHl6goOEhYaHiImKkpOUlZaXmJmaoqOkpaanqKmqsrO0tba3uLm6wsPExcbHyMnK0tPU1dbX2Nna4uPk5ebn6Onq8vP09fb3+Pn6/9oADAMBAAIRAxEAPwD7LoopsriONpCCQoJIAyaAHUV43r/xmktJplsrGHakm0eeCGAHBHBwT/jitLTvixpaeHZZdUuc6ht3KkMYT5T3Xce3qetcKzLDuTjzE86O+8Sa9p+gWS3eoTKiNIsYGRkk/wCABP4VH4c8RafrjXaWksZe3maPaHBLKMYcexzXyF4l8Xtf6s1vea1c3UxQyRvLgkKc43HOMdR/Km6B8RodJ0m9h02SeLUpoV8u6g3KImz8xUDrkAD9a4lmk3U+H3TD2+vkfa9FfLfhX40eJvOj8u+jurVVXIucMSMjPzcNn86+lNC1ix1izW4s5kc7FaSMMC0ZYZAbHQ13YXHU8Q3GOjXc1p1Yz2NCiiiu00Cs/wAR2cF9o88FxcTW8W0lninMJHB6sOgrQrifja2qD4e366PIwu2CgRIMtKu4ZUenH59O9RUdot2uKTsmfP8ArZ0+C4eNL7dawZjOLhWjU+gLKpbv615p4uvrOaS6ksY5RPEAg2PiGRQTgt7A55BqLxXquqafdW+j31u4vRMVnt5gwWAZ5GR0zxkip9QF1c+GomdoyZEKPJLCofaTxnuRgL/WvlJQ5anM1a5yyknCzHeFGh1Kxv7a/hjlmlhASRI1B8sj7vUE4PWthdA0ibSzHbSqigqDbMCQAM/xLhsdeMnpWE1062iXlhocUzKrJ5giKvMuMb89Cc1KmoXceoxFR9miKKChDDyiR156g/pWNRSu3F2MHJW2GeG9L1fT9aupJ7a3aNCywoGHC8EEDrnHevdfhH4hh03XRqN5qTW+nyRFmUbmErngLjoG/wDr14H4t8Wvb/Z7qxYwAnbcOidWToQSByQe/p0q94T8VNqwtYZGazlRyxeMAmVAvAOBgd6a9rCaxCWwRjKPvJH3paXEF1bR3FtKksMg3I6HIIqWvEfgt4o1N9SsdCnuCbZfMxFEgZmJ5zIxOQB7e1e3V9Tg8SsTSVRHfTnzq4V84ftA6L4is7qfV9TujcQTy/6GIrh1jgPptJ68A5BHevo+sLxv4X07xZoc+l6gCA6MqSAZMZI6gHj0q8RSdSDS3CceZWPz0n0m71K7ubnVNXmUOxV51DMfdR3J4z7VF9sFmn2WO6uDEVEA3tlcKCBgdvx5r074kfCnxp4Xi1YeQraRDdIILzzApm3nauxOfmwDuHYZrg9PsrNoIrPykkulMoVc4Ulhxk4PORx/9evFdOfNyz+45eT7L2M+8lutPe3CXkimJgo2OW/4COoOecfWt+88VeUsFxc3vm3jQu0VrESSXPKFufu+vutchLHK08yTsHMRXyQj5+YenaovE/mSX0FzBzc2hZLp9mArrwE3dCcZ6Vm6UakkpIaV5WktjuNZmtvE1na2MA3ylVJ8mUnYf4jsfpxu78cVQ0nTrzRbv7HeRvYuJAELLtJYH5OW7Ecg+hrnPB+r3FrrCllmlmfBDr1AI4OR+H619KXFifiZqVlp+rTS6beMkSgyW5FuwEf/ACzxkK/zepGAvINEKDipU76dC4pW5Wdj+z1p2mWutXC6gTFraIr26ISEaHByRyeeeR2wMV7rWF4K8Lab4V0S202xjDtEmGmYfMxP3jznAJ5x0rdr28Fh/q9FQZvCPKrBRRRXUUZ3iHRNN16x+x6nbLNGDuQnrG2MBh7ivCX+ANiniVZLRXcmZ/Mu5SUVVyG+VFADHkZJOM8ADGa+h6KznSjPcTim7nzJ4/8A2eNL0PR9c8SWOtSSlLRiLaeAOMk5Yhs5z0wecc9a5D4a/AzUPHXhKdZNWOn6fAxWBHXestwCPmI6gbCvTnp719H/ABx1FoPAN/p1ra3V3e3wS3hit4mY5ZhySBgDrXNfsu3M8Xg6fS9Qtby3vI5zI5miZQ+eOCR1G3BFc7pU1NRSOiCtRZxHgH4FeJ/C/jHQ9bddHujbGNZVO7AiVdrA5BGf4h3J9MV9IWFlaWFuLezt44IQzMERcAFiST+JJNT0VvSoxp3t1OdJIKKKK1GFFFFABRRRQAUUUUAFFFFABRRRQB//2Q==&quot; class=&quot;CID81de770e-bf5a-4f3c-92ed-006af15b48a1&quot; style=&quot;color: rgb(0, 0, 0); font-family: &amp;quot;times new roman&amp;quot;; font-size: medium; font-style: normal; font-weight: 400; letter-spacing: normal; text-indent: 0px; text-transform: none; word-spacing: 0px;&quot;&gt;" style="text;whiteSpace=wrap;html=1;" vertex="1" parent="1">
          <mxGeometry x="560" y="140" width="30" height="30" as="geometry" />
        </mxCell>
        <mxCell id="ia1kYXbHXBEfgBKJZjug-18" value="&lt;meta charset=&quot;utf-8&quot;&gt;&lt;a class=&quot;CID81de770e-bf5a-4f3c-92ed-006af15b48a1&quot; style=&quot;color: rgb(0, 0, 0); font-family: &amp;quot;times new roman&amp;quot;; font-size: medium; font-style: normal; font-weight: 400; letter-spacing: normal; text-indent: 0px; text-transform: none; word-spacing: 0px;&quot;&gt;&amp;nbsp;&lt;/a&gt;&lt;img src=&quot;data:image/jpg;base64, /9j/4AAQSkZJRgABAQEAYABgAAD/2wBDAAUDBAQEAwUEBAQFBQUGBwwIBwcHBw8LCwkMEQ8SEhEPERETFhwXExQaFRERGCEYGh0dHx8fExciJCIeJBweHx7/2wBDAQUFBQcGBw4ICA4eFBEUHh4eHh4eHh4eHh4eHh4eHh4eHh4eHh4eHh4eHh4eHh4eHh4eHh4eHh4eHh4eHh4eHh7/wAARCABMAE8DASIAAhEBAxEB/8QAHwAAAQUBAQEBAQEAAAAAAAAAAAECAwQFBgcICQoL/8QAtRAAAgEDAwIEAwUFBAQAAAF9AQIDAAQRBRIhMUEGE1FhByJxFDKBkaEII0KxwRVS0fAkM2JyggkKFhcYGRolJicoKSo0NTY3ODk6Q0RFRkdISUpTVFVWV1hZWmNkZWZnaGlqc3R1dnd4eXqDhIWGh4iJipKTlJWWl5iZmqKjpKWmp6ipqrKztLW2t7i5usLDxMXGx8jJytLT1NXW19jZ2uHi4+Tl5ufo6erx8vP09fb3+Pn6/8QAHwEAAwEBAQEBAQEBAQAAAAAAAAECAwQFBgcICQoL/8QAtREAAgECBAQDBAcFBAQAAQJ3AAECAxEEBSExBhJBUQdhcRMiMoEIFEKRobHBCSMzUvAVYnLRChYkNOEl8RcYGRomJygpKjU2Nzg5OkNERUZHSElKU1RVVldYWVpjZGVmZ2hpanN0dXZ3eHl6goOEhYaHiImKkpOUlZaXmJmaoqOkpaanqKmqsrO0tba3uLm6wsPExcbHyMnK0tPU1dbX2Nna4uPk5ebn6Onq8vP09fb3+Pn6/9oADAMBAAIRAxEAPwD7LoopsriONpCCQoJIAyaAHUV43r/xmktJplsrGHakm0eeCGAHBHBwT/jitLTvixpaeHZZdUuc6ht3KkMYT5T3Xce3qetcKzLDuTjzE86O+8Sa9p+gWS3eoTKiNIsYGRkk/wCABP4VH4c8RafrjXaWksZe3maPaHBLKMYcexzXyF4l8Xtf6s1vea1c3UxQyRvLgkKc43HOMdR/Km6B8RodJ0m9h02SeLUpoV8u6g3KImz8xUDrkAD9a4lmk3U+H3TD2+vkfa9FfLfhX40eJvOj8u+jurVVXIucMSMjPzcNn86+lNC1ix1izW4s5kc7FaSMMC0ZYZAbHQ13YXHU8Q3GOjXc1p1Yz2NCiiiu00Cs/wAR2cF9o88FxcTW8W0lninMJHB6sOgrQrifja2qD4e366PIwu2CgRIMtKu4ZUenH59O9RUdot2uKTsmfP8ArZ0+C4eNL7dawZjOLhWjU+gLKpbv615p4uvrOaS6ksY5RPEAg2PiGRQTgt7A55BqLxXquqafdW+j31u4vRMVnt5gwWAZ5GR0zxkip9QF1c+GomdoyZEKPJLCofaTxnuRgL/WvlJQ5anM1a5yyknCzHeFGh1Kxv7a/hjlmlhASRI1B8sj7vUE4PWthdA0ibSzHbSqigqDbMCQAM/xLhsdeMnpWE1062iXlhocUzKrJ5giKvMuMb89Cc1KmoXceoxFR9miKKChDDyiR156g/pWNRSu3F2MHJW2GeG9L1fT9aupJ7a3aNCywoGHC8EEDrnHevdfhH4hh03XRqN5qTW+nyRFmUbmErngLjoG/wDr14H4t8Wvb/Z7qxYwAnbcOidWToQSByQe/p0q94T8VNqwtYZGazlRyxeMAmVAvAOBgd6a9rCaxCWwRjKPvJH3paXEF1bR3FtKksMg3I6HIIqWvEfgt4o1N9SsdCnuCbZfMxFEgZmJ5zIxOQB7e1e3V9Tg8SsTSVRHfTnzq4V84ftA6L4is7qfV9TujcQTy/6GIrh1jgPptJ68A5BHevo+sLxv4X07xZoc+l6gCA6MqSAZMZI6gHj0q8RSdSDS3CceZWPz0n0m71K7ubnVNXmUOxV51DMfdR3J4z7VF9sFmn2WO6uDEVEA3tlcKCBgdvx5r074kfCnxp4Xi1YeQraRDdIILzzApm3nauxOfmwDuHYZrg9PsrNoIrPykkulMoVc4Ulhxk4PORx/9evFdOfNyz+45eT7L2M+8lutPe3CXkimJgo2OW/4COoOecfWt+88VeUsFxc3vm3jQu0VrESSXPKFufu+vutchLHK08yTsHMRXyQj5+YenaovE/mSX0FzBzc2hZLp9mArrwE3dCcZ6Vm6UakkpIaV5WktjuNZmtvE1na2MA3ylVJ8mUnYf4jsfpxu78cVQ0nTrzRbv7HeRvYuJAELLtJYH5OW7Ecg+hrnPB+r3FrrCllmlmfBDr1AI4OR+H619KXFifiZqVlp+rTS6beMkSgyW5FuwEf/ACzxkK/zepGAvINEKDipU76dC4pW5Wdj+z1p2mWutXC6gTFraIr26ISEaHByRyeeeR2wMV7rWF4K8Lab4V0S202xjDtEmGmYfMxP3jznAJ5x0rdr28Fh/q9FQZvCPKrBRRRXUUZ3iHRNN16x+x6nbLNGDuQnrG2MBh7ivCX+ANiniVZLRXcmZ/Mu5SUVVyG+VFADHkZJOM8ADGa+h6KznSjPcTim7nzJ4/8A2eNL0PR9c8SWOtSSlLRiLaeAOMk5Yhs5z0wecc9a5D4a/AzUPHXhKdZNWOn6fAxWBHXestwCPmI6gbCvTnp719H/ABx1FoPAN/p1ra3V3e3wS3hit4mY5ZhySBgDrXNfsu3M8Xg6fS9Qtby3vI5zI5miZQ+eOCR1G3BFc7pU1NRSOiCtRZxHgH4FeJ/C/jHQ9bddHujbGNZVO7AiVdrA5BGf4h3J9MV9IWFlaWFuLezt44IQzMERcAFiST+JJNT0VvSoxp3t1OdJIKKKK1GFFFFABRRRQAUUUUAFFFFABRRRQB//2Q==&quot; class=&quot;CID81de770e-bf5a-4f3c-92ed-006af15b48a1&quot; style=&quot;color: rgb(0, 0, 0); font-family: &amp;quot;times new roman&amp;quot;; font-size: medium; font-style: normal; font-weight: 400; letter-spacing: normal; text-indent: 0px; text-transform: none; word-spacing: 0px;&quot;&gt;" style="text;whiteSpace=wrap;html=1;" vertex="1" parent="1">
          <mxGeometry x="414" y="210" width="30" height="30" as="geometry" />
        </mxCell>
        <mxCell id="ia1kYXbHXBEfgBKJZjug-19" value="&lt;meta charset=&quot;utf-8&quot;&gt;&lt;a class=&quot;CID81de770e-bf5a-4f3c-92ed-006af15b48a1&quot; style=&quot;color: rgb(0, 0, 0); font-family: &amp;quot;times new roman&amp;quot;; font-size: medium; font-style: normal; font-weight: 400; letter-spacing: normal; text-indent: 0px; text-transform: none; word-spacing: 0px;&quot;&gt;&amp;nbsp;&lt;/a&gt;&lt;img src=&quot;data:image/jpg;base64, /9j/4AAQSkZJRgABAQEAYABgAAD/2wBDAAUDBAQEAwUEBAQFBQUGBwwIBwcHBw8LCwkMEQ8SEhEPERETFhwXExQaFRERGCEYGh0dHx8fExciJCIeJBweHx7/2wBDAQUFBQcGBw4ICA4eFBEUHh4eHh4eHh4eHh4eHh4eHh4eHh4eHh4eHh4eHh4eHh4eHh4eHh4eHh4eHh4eHh4eHh7/wAARCABMAE8DASIAAhEBAxEB/8QAHwAAAQUBAQEBAQEAAAAAAAAAAAECAwQFBgcICQoL/8QAtRAAAgEDAwIEAwUFBAQAAAF9AQIDAAQRBRIhMUEGE1FhByJxFDKBkaEII0KxwRVS0fAkM2JyggkKFhcYGRolJicoKSo0NTY3ODk6Q0RFRkdISUpTVFVWV1hZWmNkZWZnaGlqc3R1dnd4eXqDhIWGh4iJipKTlJWWl5iZmqKjpKWmp6ipqrKztLW2t7i5usLDxMXGx8jJytLT1NXW19jZ2uHi4+Tl5ufo6erx8vP09fb3+Pn6/8QAHwEAAwEBAQEBAQEBAQAAAAAAAAECAwQFBgcICQoL/8QAtREAAgECBAQDBAcFBAQAAQJ3AAECAxEEBSExBhJBUQdhcRMiMoEIFEKRobHBCSMzUvAVYnLRChYkNOEl8RcYGRomJygpKjU2Nzg5OkNERUZHSElKU1RVVldYWVpjZGVmZ2hpanN0dXZ3eHl6goOEhYaHiImKkpOUlZaXmJmaoqOkpaanqKmqsrO0tba3uLm6wsPExcbHyMnK0tPU1dbX2Nna4uPk5ebn6Onq8vP09fb3+Pn6/9oADAMBAAIRAxEAPwD7LoopsriONpCCQoJIAyaAHUV43r/xmktJplsrGHakm0eeCGAHBHBwT/jitLTvixpaeHZZdUuc6ht3KkMYT5T3Xce3qetcKzLDuTjzE86O+8Sa9p+gWS3eoTKiNIsYGRkk/wCABP4VH4c8RafrjXaWksZe3maPaHBLKMYcexzXyF4l8Xtf6s1vea1c3UxQyRvLgkKc43HOMdR/Km6B8RodJ0m9h02SeLUpoV8u6g3KImz8xUDrkAD9a4lmk3U+H3TD2+vkfa9FfLfhX40eJvOj8u+jurVVXIucMSMjPzcNn86+lNC1ix1izW4s5kc7FaSMMC0ZYZAbHQ13YXHU8Q3GOjXc1p1Yz2NCiiiu00Cs/wAR2cF9o88FxcTW8W0lninMJHB6sOgrQrifja2qD4e366PIwu2CgRIMtKu4ZUenH59O9RUdot2uKTsmfP8ArZ0+C4eNL7dawZjOLhWjU+gLKpbv615p4uvrOaS6ksY5RPEAg2PiGRQTgt7A55BqLxXquqafdW+j31u4vRMVnt5gwWAZ5GR0zxkip9QF1c+GomdoyZEKPJLCofaTxnuRgL/WvlJQ5anM1a5yyknCzHeFGh1Kxv7a/hjlmlhASRI1B8sj7vUE4PWthdA0ibSzHbSqigqDbMCQAM/xLhsdeMnpWE1062iXlhocUzKrJ5giKvMuMb89Cc1KmoXceoxFR9miKKChDDyiR156g/pWNRSu3F2MHJW2GeG9L1fT9aupJ7a3aNCywoGHC8EEDrnHevdfhH4hh03XRqN5qTW+nyRFmUbmErngLjoG/wDr14H4t8Wvb/Z7qxYwAnbcOidWToQSByQe/p0q94T8VNqwtYZGazlRyxeMAmVAvAOBgd6a9rCaxCWwRjKPvJH3paXEF1bR3FtKksMg3I6HIIqWvEfgt4o1N9SsdCnuCbZfMxFEgZmJ5zIxOQB7e1e3V9Tg8SsTSVRHfTnzq4V84ftA6L4is7qfV9TujcQTy/6GIrh1jgPptJ68A5BHevo+sLxv4X07xZoc+l6gCA6MqSAZMZI6gHj0q8RSdSDS3CceZWPz0n0m71K7ubnVNXmUOxV51DMfdR3J4z7VF9sFmn2WO6uDEVEA3tlcKCBgdvx5r074kfCnxp4Xi1YeQraRDdIILzzApm3nauxOfmwDuHYZrg9PsrNoIrPykkulMoVc4Ulhxk4PORx/9evFdOfNyz+45eT7L2M+8lutPe3CXkimJgo2OW/4COoOecfWt+88VeUsFxc3vm3jQu0VrESSXPKFufu+vutchLHK08yTsHMRXyQj5+YenaovE/mSX0FzBzc2hZLp9mArrwE3dCcZ6Vm6UakkpIaV5WktjuNZmtvE1na2MA3ylVJ8mUnYf4jsfpxu78cVQ0nTrzRbv7HeRvYuJAELLtJYH5OW7Ecg+hrnPB+r3FrrCllmlmfBDr1AI4OR+H619KXFifiZqVlp+rTS6beMkSgyW5FuwEf/ACzxkK/zepGAvINEKDipU76dC4pW5Wdj+z1p2mWutXC6gTFraIr26ISEaHByRyeeeR2wMV7rWF4K8Lab4V0S202xjDtEmGmYfMxP3jznAJ5x0rdr28Fh/q9FQZvCPKrBRRRXUUZ3iHRNN16x+x6nbLNGDuQnrG2MBh7ivCX+ANiniVZLRXcmZ/Mu5SUVVyG+VFADHkZJOM8ADGa+h6KznSjPcTim7nzJ4/8A2eNL0PR9c8SWOtSSlLRiLaeAOMk5Yhs5z0wecc9a5D4a/AzUPHXhKdZNWOn6fAxWBHXestwCPmI6gbCvTnp719H/ABx1FoPAN/p1ra3V3e3wS3hit4mY5ZhySBgDrXNfsu3M8Xg6fS9Qtby3vI5zI5miZQ+eOCR1G3BFc7pU1NRSOiCtRZxHgH4FeJ/C/jHQ9bddHujbGNZVO7AiVdrA5BGf4h3J9MV9IWFlaWFuLezt44IQzMERcAFiST+JJNT0VvSoxp3t1OdJIKKKK1GFFFFABRRRQAUUUUAFFFFABRRRQB//2Q==&quot; class=&quot;CID81de770e-bf5a-4f3c-92ed-006af15b48a1&quot; style=&quot;color: rgb(0, 0, 0); font-family: &amp;quot;times new roman&amp;quot;; font-size: medium; font-style: normal; font-weight: 400; letter-spacing: normal; text-indent: 0px; text-transform: none; word-spacing: 0px;&quot;&gt;" style="text;whiteSpace=wrap;html=1;" vertex="1" parent="1">
          <mxGeometry x="550" y="230" width="30" height="30" as="geometry" />
        </mxCell>
        <mxCell id="ia1kYXbHXBEfgBKJZjug-20" value="&lt;meta charset=&quot;utf-8&quot;&gt;&lt;a class=&quot;CID81de770e-bf5a-4f3c-92ed-006af15b48a1&quot; style=&quot;color: rgb(0, 0, 0); font-family: &amp;quot;times new roman&amp;quot;; font-size: medium; font-style: normal; font-weight: 400; letter-spacing: normal; text-indent: 0px; text-transform: none; word-spacing: 0px;&quot;&gt;&amp;nbsp;&lt;/a&gt;&lt;img src=&quot;data:image/jpg;base64, /9j/4AAQSkZJRgABAQEAYABgAAD/2wBDAAUDBAQEAwUEBAQFBQUGBwwIBwcHBw8LCwkMEQ8SEhEPERETFhwXExQaFRERGCEYGh0dHx8fExciJCIeJBweHx7/2wBDAQUFBQcGBw4ICA4eFBEUHh4eHh4eHh4eHh4eHh4eHh4eHh4eHh4eHh4eHh4eHh4eHh4eHh4eHh4eHh4eHh4eHh7/wAARCABMAE8DASIAAhEBAxEB/8QAHwAAAQUBAQEBAQEAAAAAAAAAAAECAwQFBgcICQoL/8QAtRAAAgEDAwIEAwUFBAQAAAF9AQIDAAQRBRIhMUEGE1FhByJxFDKBkaEII0KxwRVS0fAkM2JyggkKFhcYGRolJicoKSo0NTY3ODk6Q0RFRkdISUpTVFVWV1hZWmNkZWZnaGlqc3R1dnd4eXqDhIWGh4iJipKTlJWWl5iZmqKjpKWmp6ipqrKztLW2t7i5usLDxMXGx8jJytLT1NXW19jZ2uHi4+Tl5ufo6erx8vP09fb3+Pn6/8QAHwEAAwEBAQEBAQEBAQAAAAAAAAECAwQFBgcICQoL/8QAtREAAgECBAQDBAcFBAQAAQJ3AAECAxEEBSExBhJBUQdhcRMiMoEIFEKRobHBCSMzUvAVYnLRChYkNOEl8RcYGRomJygpKjU2Nzg5OkNERUZHSElKU1RVVldYWVpjZGVmZ2hpanN0dXZ3eHl6goOEhYaHiImKkpOUlZaXmJmaoqOkpaanqKmqsrO0tba3uLm6wsPExcbHyMnK0tPU1dbX2Nna4uPk5ebn6Onq8vP09fb3+Pn6/9oADAMBAAIRAxEAPwD7LoopsriONpCCQoJIAyaAHUV43r/xmktJplsrGHakm0eeCGAHBHBwT/jitLTvixpaeHZZdUuc6ht3KkMYT5T3Xce3qetcKzLDuTjzE86O+8Sa9p+gWS3eoTKiNIsYGRkk/wCABP4VH4c8RafrjXaWksZe3maPaHBLKMYcexzXyF4l8Xtf6s1vea1c3UxQyRvLgkKc43HOMdR/Km6B8RodJ0m9h02SeLUpoV8u6g3KImz8xUDrkAD9a4lmk3U+H3TD2+vkfa9FfLfhX40eJvOj8u+jurVVXIucMSMjPzcNn86+lNC1ix1izW4s5kc7FaSMMC0ZYZAbHQ13YXHU8Q3GOjXc1p1Yz2NCiiiu00Cs/wAR2cF9o88FxcTW8W0lninMJHB6sOgrQrifja2qD4e366PIwu2CgRIMtKu4ZUenH59O9RUdot2uKTsmfP8ArZ0+C4eNL7dawZjOLhWjU+gLKpbv615p4uvrOaS6ksY5RPEAg2PiGRQTgt7A55BqLxXquqafdW+j31u4vRMVnt5gwWAZ5GR0zxkip9QF1c+GomdoyZEKPJLCofaTxnuRgL/WvlJQ5anM1a5yyknCzHeFGh1Kxv7a/hjlmlhASRI1B8sj7vUE4PWthdA0ibSzHbSqigqDbMCQAM/xLhsdeMnpWE1062iXlhocUzKrJ5giKvMuMb89Cc1KmoXceoxFR9miKKChDDyiR156g/pWNRSu3F2MHJW2GeG9L1fT9aupJ7a3aNCywoGHC8EEDrnHevdfhH4hh03XRqN5qTW+nyRFmUbmErngLjoG/wDr14H4t8Wvb/Z7qxYwAnbcOidWToQSByQe/p0q94T8VNqwtYZGazlRyxeMAmVAvAOBgd6a9rCaxCWwRjKPvJH3paXEF1bR3FtKksMg3I6HIIqWvEfgt4o1N9SsdCnuCbZfMxFEgZmJ5zIxOQB7e1e3V9Tg8SsTSVRHfTnzq4V84ftA6L4is7qfV9TujcQTy/6GIrh1jgPptJ68A5BHevo+sLxv4X07xZoc+l6gCA6MqSAZMZI6gHj0q8RSdSDS3CceZWPz0n0m71K7ubnVNXmUOxV51DMfdR3J4z7VF9sFmn2WO6uDEVEA3tlcKCBgdvx5r074kfCnxp4Xi1YeQraRDdIILzzApm3nauxOfmwDuHYZrg9PsrNoIrPykkulMoVc4Ulhxk4PORx/9evFdOfNyz+45eT7L2M+8lutPe3CXkimJgo2OW/4COoOecfWt+88VeUsFxc3vm3jQu0VrESSXPKFufu+vutchLHK08yTsHMRXyQj5+YenaovE/mSX0FzBzc2hZLp9mArrwE3dCcZ6Vm6UakkpIaV5WktjuNZmtvE1na2MA3ylVJ8mUnYf4jsfpxu78cVQ0nTrzRbv7HeRvYuJAELLtJYH5OW7Ecg+hrnPB+r3FrrCllmlmfBDr1AI4OR+H619KXFifiZqVlp+rTS6beMkSgyW5FuwEf/ACzxkK/zepGAvINEKDipU76dC4pW5Wdj+z1p2mWutXC6gTFraIr26ISEaHByRyeeeR2wMV7rWF4K8Lab4V0S202xjDtEmGmYfMxP3jznAJ5x0rdr28Fh/q9FQZvCPKrBRRRXUUZ3iHRNN16x+x6nbLNGDuQnrG2MBh7ivCX+ANiniVZLRXcmZ/Mu5SUVVyG+VFADHkZJOM8ADGa+h6KznSjPcTim7nzJ4/8A2eNL0PR9c8SWOtSSlLRiLaeAOMk5Yhs5z0wecc9a5D4a/AzUPHXhKdZNWOn6fAxWBHXestwCPmI6gbCvTnp719H/ABx1FoPAN/p1ra3V3e3wS3hit4mY5ZhySBgDrXNfsu3M8Xg6fS9Qtby3vI5zI5miZQ+eOCR1G3BFc7pU1NRSOiCtRZxHgH4FeJ/C/jHQ9bddHujbGNZVO7AiVdrA5BGf4h3J9MV9IWFlaWFuLezt44IQzMERcAFiST+JJNT0VvSoxp3t1OdJIKKKK1GFFFFABRRRQAUUUUAFFFFABRRRQB//2Q==&quot; class=&quot;CID81de770e-bf5a-4f3c-92ed-006af15b48a1&quot; style=&quot;color: rgb(0, 0, 0); font-family: &amp;quot;times new roman&amp;quot;; font-size: medium; font-style: normal; font-weight: 400; letter-spacing: normal; text-indent: 0px; text-transform: none; word-spacing: 0px;&quot;&gt;" style="text;whiteSpace=wrap;html=1;" vertex="1" parent="1">
          <mxGeometry x="370" y="100" width="30" height="30" as="geometry" />
        </mxCell>
        <mxCell id="ia1kYXbHXBEfgBKJZjug-21" value="&lt;meta charset=&quot;utf-8&quot;&gt;&lt;a class=&quot;CID81de770e-bf5a-4f3c-92ed-006af15b48a1&quot; style=&quot;color: rgb(0, 0, 0); font-family: &amp;quot;times new roman&amp;quot;; font-size: medium; font-style: normal; font-weight: 400; letter-spacing: normal; text-indent: 0px; text-transform: none; word-spacing: 0px;&quot;&gt;&amp;nbsp;&lt;/a&gt;&lt;img src=&quot;data:image/jpg;base64, /9j/4AAQSkZJRgABAQEAYABgAAD/2wBDAAUDBAQEAwUEBAQFBQUGBwwIBwcHBw8LCwkMEQ8SEhEPERETFhwXExQaFRERGCEYGh0dHx8fExciJCIeJBweHx7/2wBDAQUFBQcGBw4ICA4eFBEUHh4eHh4eHh4eHh4eHh4eHh4eHh4eHh4eHh4eHh4eHh4eHh4eHh4eHh4eHh4eHh4eHh7/wAARCABMAE8DASIAAhEBAxEB/8QAHwAAAQUBAQEBAQEAAAAAAAAAAAECAwQFBgcICQoL/8QAtRAAAgEDAwIEAwUFBAQAAAF9AQIDAAQRBRIhMUEGE1FhByJxFDKBkaEII0KxwRVS0fAkM2JyggkKFhcYGRolJicoKSo0NTY3ODk6Q0RFRkdISUpTVFVWV1hZWmNkZWZnaGlqc3R1dnd4eXqDhIWGh4iJipKTlJWWl5iZmqKjpKWmp6ipqrKztLW2t7i5usLDxMXGx8jJytLT1NXW19jZ2uHi4+Tl5ufo6erx8vP09fb3+Pn6/8QAHwEAAwEBAQEBAQEBAQAAAAAAAAECAwQFBgcICQoL/8QAtREAAgECBAQDBAcFBAQAAQJ3AAECAxEEBSExBhJBUQdhcRMiMoEIFEKRobHBCSMzUvAVYnLRChYkNOEl8RcYGRomJygpKjU2Nzg5OkNERUZHSElKU1RVVldYWVpjZGVmZ2hpanN0dXZ3eHl6goOEhYaHiImKkpOUlZaXmJmaoqOkpaanqKmqsrO0tba3uLm6wsPExcbHyMnK0tPU1dbX2Nna4uPk5ebn6Onq8vP09fb3+Pn6/9oADAMBAAIRAxEAPwD7LoopsriONpCCQoJIAyaAHUV43r/xmktJplsrGHakm0eeCGAHBHBwT/jitLTvixpaeHZZdUuc6ht3KkMYT5T3Xce3qetcKzLDuTjzE86O+8Sa9p+gWS3eoTKiNIsYGRkk/wCABP4VH4c8RafrjXaWksZe3maPaHBLKMYcexzXyF4l8Xtf6s1vea1c3UxQyRvLgkKc43HOMdR/Km6B8RodJ0m9h02SeLUpoV8u6g3KImz8xUDrkAD9a4lmk3U+H3TD2+vkfa9FfLfhX40eJvOj8u+jurVVXIucMSMjPzcNn86+lNC1ix1izW4s5kc7FaSMMC0ZYZAbHQ13YXHU8Q3GOjXc1p1Yz2NCiiiu00Cs/wAR2cF9o88FxcTW8W0lninMJHB6sOgrQrifja2qD4e366PIwu2CgRIMtKu4ZUenH59O9RUdot2uKTsmfP8ArZ0+C4eNL7dawZjOLhWjU+gLKpbv615p4uvrOaS6ksY5RPEAg2PiGRQTgt7A55BqLxXquqafdW+j31u4vRMVnt5gwWAZ5GR0zxkip9QF1c+GomdoyZEKPJLCofaTxnuRgL/WvlJQ5anM1a5yyknCzHeFGh1Kxv7a/hjlmlhASRI1B8sj7vUE4PWthdA0ibSzHbSqigqDbMCQAM/xLhsdeMnpWE1062iXlhocUzKrJ5giKvMuMb89Cc1KmoXceoxFR9miKKChDDyiR156g/pWNRSu3F2MHJW2GeG9L1fT9aupJ7a3aNCywoGHC8EEDrnHevdfhH4hh03XRqN5qTW+nyRFmUbmErngLjoG/wDr14H4t8Wvb/Z7qxYwAnbcOidWToQSByQe/p0q94T8VNqwtYZGazlRyxeMAmVAvAOBgd6a9rCaxCWwRjKPvJH3paXEF1bR3FtKksMg3I6HIIqWvEfgt4o1N9SsdCnuCbZfMxFEgZmJ5zIxOQB7e1e3V9Tg8SsTSVRHfTnzq4V84ftA6L4is7qfV9TujcQTy/6GIrh1jgPptJ68A5BHevo+sLxv4X07xZoc+l6gCA6MqSAZMZI6gHj0q8RSdSDS3CceZWPz0n0m71K7ubnVNXmUOxV51DMfdR3J4z7VF9sFmn2WO6uDEVEA3tlcKCBgdvx5r074kfCnxp4Xi1YeQraRDdIILzzApm3nauxOfmwDuHYZrg9PsrNoIrPykkulMoVc4Ulhxk4PORx/9evFdOfNyz+45eT7L2M+8lutPe3CXkimJgo2OW/4COoOecfWt+88VeUsFxc3vm3jQu0VrESSXPKFufu+vutchLHK08yTsHMRXyQj5+YenaovE/mSX0FzBzc2hZLp9mArrwE3dCcZ6Vm6UakkpIaV5WktjuNZmtvE1na2MA3ylVJ8mUnYf4jsfpxu78cVQ0nTrzRbv7HeRvYuJAELLtJYH5OW7Ecg+hrnPB+r3FrrCllmlmfBDr1AI4OR+H619KXFifiZqVlp+rTS6beMkSgyW5FuwEf/ACzxkK/zepGAvINEKDipU76dC4pW5Wdj+z1p2mWutXC6gTFraIr26ISEaHByRyeeeR2wMV7rWF4K8Lab4V0S202xjDtEmGmYfMxP3jznAJ5x0rdr28Fh/q9FQZvCPKrBRRRXUUZ3iHRNN16x+x6nbLNGDuQnrG2MBh7ivCX+ANiniVZLRXcmZ/Mu5SUVVyG+VFADHkZJOM8ADGa+h6KznSjPcTim7nzJ4/8A2eNL0PR9c8SWOtSSlLRiLaeAOMk5Yhs5z0wecc9a5D4a/AzUPHXhKdZNWOn6fAxWBHXestwCPmI6gbCvTnp719H/ABx1FoPAN/p1ra3V3e3wS3hit4mY5ZhySBgDrXNfsu3M8Xg6fS9Qtby3vI5zI5miZQ+eOCR1G3BFc7pU1NRSOiCtRZxHgH4FeJ/C/jHQ9bddHujbGNZVO7AiVdrA5BGf4h3J9MV9IWFlaWFuLezt44IQzMERcAFiST+JJNT0VvSoxp3t1OdJIKKKK1GFFFFABRRRQAUUUUAFFFFABRRRQB//2Q==&quot; class=&quot;CID81de770e-bf5a-4f3c-92ed-006af15b48a1&quot; style=&quot;color: rgb(0, 0, 0); font-family: &amp;quot;times new roman&amp;quot;; font-size: medium; font-style: normal; font-weight: 400; letter-spacing: normal; text-indent: 0px; text-transform: none; word-spacing: 0px;&quot;&gt;" style="text;whiteSpace=wrap;html=1;" vertex="1" parent="1">
          <mxGeometry x="540" y="317.5" width="30" height="30" as="geometry" />
        </mxCell>
        <mxCell id="ia1kYXbHXBEfgBKJZjug-22" value="" style="endArrow=none;html=1;exitX=1;exitY=0.5;exitDx=0;exitDy=0;entryX=0;entryY=0.5;entryDx=0;entryDy=0;strokeWidth=4;strokeColor=#FFD966;edgeStyle=orthogonalEdgeStyle;curved=1;" edge="1" parent="1" source="ia1kYXbHXBEfgBKJZjug-1" target="ia1kYXbHXBEfgBKJZjug-2">
          <mxGeometry width="50" height="50" relative="1" as="geometry">
            <mxPoint x="212.5" y="329" as="sourcePoint" />
            <mxPoint x="300" y="329" as="targetPoint" />
            <Array as="points">
              <mxPoint x="213" y="330" />
              <mxPoint x="213" y="290" />
              <mxPoint x="551" y="290" />
              <mxPoint x="551" y="330" />
            </Array>
          </mxGeometry>
        </mxCell>
        <mxCell id="ia1kYXbHXBEfgBKJZjug-9" value="" style="ellipse;whiteSpace=wrap;html=1;aspect=fixed;fillColor=none;" vertex="1" parent="1">
          <mxGeometry x="160" y="282.5" width="80" height="80" as="geometry" />
        </mxCell>
        <mxCell id="ia1kYXbHXBEfgBKJZjug-7" value="" style="ellipse;whiteSpace=wrap;html=1;aspect=fixed;strokeColor=none;fillColor=#0000FF;" vertex="1" parent="1">
          <mxGeometry x="187.5" y="310" width="25" height="25" as="geometry" />
        </mxCell>
        <mxCell id="ia1kYXbHXBEfgBKJZjug-23" value="" style="endArrow=oval;html=1;strokeWidth=4;edgeStyle=orthogonalEdgeStyle;curved=1;strokeColor=#97D077;startArrow=oval;startFill=1;endFill=1;" edge="1" parent="1">
          <mxGeometry width="50" height="50" relative="1" as="geometry">
            <mxPoint x="250" y="300" as="sourcePoint" />
            <mxPoint x="870" y="330" as="targetPoint" />
            <Array as="points">
              <mxPoint x="250" y="260" />
              <mxPoint x="373" y="260" />
              <mxPoint x="373" y="210" />
              <mxPoint x="711" y="210" />
              <mxPoint x="711" y="250" />
              <mxPoint x="820" y="250" />
              <mxPoint x="820" y="330" />
            </Array>
          </mxGeometry>
        </mxCell>
        <mxCell id="ia1kYXbHXBEfgBKJZjug-24" value="" style="endArrow=oval;html=1;strokeWidth=4;edgeStyle=orthogonalEdgeStyle;curved=1;startArrow=oval;startFill=1;endFill=1;strokeColor=#F19C99;" edge="1" parent="1">
          <mxGeometry width="50" height="50" relative="1" as="geometry">
            <mxPoint x="310" y="260" as="sourcePoint" />
            <mxPoint x="820" y="280" as="targetPoint" />
            <Array as="points">
              <mxPoint x="310" y="215" />
              <mxPoint x="433" y="215" />
              <mxPoint x="433" y="150" />
              <mxPoint x="771" y="150" />
              <mxPoint x="771" y="205" />
              <mxPoint x="800" y="205" />
              <mxPoint x="800" y="280" />
            </Array>
          </mxGeometry>
        </mxCell>
        <mxCell id="ia1kYXbHXBEfgBKJZjug-25" value="" style="endArrow=oval;html=1;strokeWidth=4;edgeStyle=orthogonalEdgeStyle;curved=1;strokeColor=#97D077;startArrow=oval;startFill=1;endFill=1;" edge="1" parent="1">
          <mxGeometry width="50" height="50" relative="1" as="geometry">
            <mxPoint x="280" y="290" as="sourcePoint" />
            <mxPoint x="830" y="330" as="targetPoint" />
            <Array as="points">
              <mxPoint x="290" y="290" />
              <mxPoint x="290" y="370" />
              <mxPoint x="373" y="370" />
              <mxPoint x="373" y="400" />
              <mxPoint x="650" y="400" />
              <mxPoint x="650" y="350" />
              <mxPoint x="820" y="350" />
              <mxPoint x="820" y="340" />
              <mxPoint x="830" y="340" />
            </Array>
          </mxGeometry>
        </mxCell>
        <mxCell id="ia1kYXbHXBEfgBKJZjug-26" value="" style="endArrow=oval;html=1;strokeWidth=4;edgeStyle=orthogonalEdgeStyle;curved=1;startArrow=oval;startFill=1;endFill=1;strokeColor=#F19C99;" edge="1" parent="1">
          <mxGeometry width="50" height="50" relative="1" as="geometry">
            <mxPoint x="414" y="400" as="sourcePoint" />
            <mxPoint x="550" y="400" as="targetPoint" />
            <Array as="points">
              <mxPoint x="424" y="400" />
              <mxPoint x="424" y="480" />
              <mxPoint x="540" y="480" />
              <mxPoint x="540" y="400" />
            </Array>
          </mxGeometry>
        </mxCell>
        <mxCell id="ia1kYXbHXBEfgBKJZjug-27" value="&lt;meta charset=&quot;utf-8&quot;&gt;&lt;a class=&quot;CID1d6987c1-5987-49a2-8001-95831510d0b3&quot; style=&quot;color: rgb(0, 0, 0); font-family: &amp;quot;times new roman&amp;quot;; font-size: medium; font-style: normal; font-weight: 400; letter-spacing: normal; text-indent: 0px; text-transform: none; word-spacing: 0px;&quot;&gt;&amp;nbsp;&lt;/a&gt;&lt;img src=&quot;data:image/png;base64, iVBORw0KGgoAAAANSUhEUgAAAB8AAAAoCAYAAAAG0SEsAAAAAXNSR0IArs4c6QAAAARnQU1BAACxjwv8YQUAAAAJcEhZcwAADsMAAA7DAcdvqGQAAAgkSURBVFhHzZcJbBTXGYDfXDszu7OXvWvvYXyt8UFoA4VKJDQhUAWpiZKKHiC1aRGpUKoqSiJVqlIq1bJoekioEUkrNQlRj0g9ApVaEpWQVgRKKIWA65BgsDE+d7272Lvr3Z3dnXv6v2Hq2F5vQk2r9luN3uz/3rx//v/9//vnof8lhN2uiN7eLfSaurv9RNiR37mzT7HFNfl5727OFQmxJslRu/b2ZUlb/m9x5Kf7HvrVc99su79nx/aAz/8bZUIM2101eeVgr8fbEHlAINxPBRzOr2HZipTzLLe3s7GZd3HClzmGla+JwpTdVZNwnaPJ56n/rN/r+wIiyM2HfvSoe0XKXSzPkCT9iYosbVQ09XBfX59hd9WEalKGSYJkBKerXVLliyXOpaxIuWbox3nOeZChqRhFEWO2GL36k28IZm/vsnNu3dqnCTx/XVZkTiwVzzz55PPyipSfHn37xfRs+gisN+Vyudp/tn9v7K3eXpok/TuO1SHBHoZe+8X3on986ZlG+y+EN9lclqXx6YzUj/+uSHlf3+vl80N/35dIJS8TiHoi1tTx1Jgz11bn9q+P+AXdHoY4wrGRZakY3JJ/OrT/+6ZubJOVyvV1rT4J969IOWbfD/+QGYuPf14US5VoQ+NjPa2xhwiTiCY1ucsegmiK9TCI4s7+7rnHY6vavl1WKv68KL6ydU+fpfy28hzzbO9un48NPO/3ena1NoUlXTd/v+Fzj+3BfQOvvfwS0vX7JpPpVrEsnlR16bu7v3XwrPUgQNntijl+6l1pejKN0qkbX0reyLA8z63VyyWhPRT8VCQUfPzU2QvBE6cukO/0X/nOgV8efcN+zOK2LcdsaG9vvrOr+W8FsRRlaBKxFIFM00QaQaCZTAn5ve5SKituOnXp0vv2Ixa3bTkmmcvlHRQ1wjscnfWBQMTUNfC2jjz1jQheaGgml+87/f7gMXv4PCsOuKWcG7p+9Mr49Fe8Xm+lI9aOGMaBPtbdqYiquvfM4NAL9rBF/MeUYxo9/IbJsVFHvigi2TBRMpWeGOh/77LdXUVN5R2hjmBnc/M2uDZ3hEJBW1yTnpaW9YE6935N0yjWKSDa7UfDE4npAkJFe0gVywbcmuboF50M8wO3kwuTJDJU1cirun5ZM9BfK5o6oWhmkSfJAsMQBs+yAYpE97l5x856j6tBg7VmeQE5BTeKxxMjqly86/WLw7P21IuoUt4ZjX4m6OYPt4b8LpahkQk/jKYbSFF1aHWIZHgQIhlfDGh2MBQi4d7AHYAJLtcNA3ZTwkznpAf/PPBeVbBhFrm9NRLpCnqcL65e1eDiWIelyICJ8EXB5DzLII+TQ14XBy2LwFrEOmjr2X8pxoBSRNMUgsJDGMjYYourWKic6m4OP7u+u61pdSyGGoNBUPpBpcRT49zFShZeWPZhgD989m0V88qDzmDQ6+LX66qCBFiviiRZbl0p+EkdlqqsqDM3JdXMK6fJiiZLEFpgiW5oaC6fRyRE20Kw+60FX4BlvX2/EPzimUIF5UTlpC2qYn72pChmFE1LuT0+JCvKIpdjsBMqigYfEotVVWS1Kmpx8OGxyWzx5JyqzheSpSw0zczl86Pb7rkbRcLhKuXYvKUynAGWNxaAFauajsZT2UyxVHk6mUyW7a4qFvlVUVR18MpVBP5HxbIMkg8m1sG9GiinIbUw2BOSAlZDuzA2CmUJXZvOpHKitOdaOn3OFi/LwsJCQxl8WpNKkalEAsmQ0yrsKjiVsDX5kgQxQCAr900D7ikUgIyQwe1QxKyXuDEnotFU7h+yoj9yNZF4y563JvOWd64Kb3Lz7FoKgkySVfPGXClHwSaBbcIWSvAyoXo/8rjdqCnahDbftQmFw1EkVmRrzfHLJmaL70i6+fBgPH7emvQjmFfuYtiv18N+iqN3Olu8ABvElMCzhALrN5aaGy4rxptlnT5vssIbsyXtwK+Pvjk+MNAPSwVhCssBy2RAqhwYSSTi9pQfibVYnaGmTzY1uE60h+qE6ayYTmSKZ7qidQ9zDpoeSWSUmYr64LXJydMwlIFLhUv+9Lqe422N/u0jydxQg4fvmhOlcny2sPVWrcZYlvMcuavBJwi5kmTGZ/OHfAJ7J6w1PRyfnYZJHwHFf4FhOAJFu4UoR2M42jVNH1F0HV7IZAxd9+K+W8VSzjB0CE4TKJUpHstmjR/TBCFDgOmzJfmJwUTisDVyCaqmDsmQy7BM4+D3aYam4UMVBezuW8JSztIklRPL2my5/Ey8EM/ChDlDNwqwb9d0oSSb0zgeSIIahTaOKxskz3KbXU1uKmcZAawYmxEl6wMPiuFViqJ4OILULAq6puWx26FsDUE7gVMNUrLmhrIcWDnJUqQHUmwmm81WsBDydpJjac7F0TWPvryTZnFbEMUZKL2TOi67VNVO+6GA8g7IKioKewbeOzUsBIsVF9TzBp97Df6/HE6OW4tdTTscDjix4j0Bqhiq6anlIDd2oDVQ8wPwObT6jtWtH8fCiqq1SRBRAkc/uvGO2Cpr5BKKspKAfV12MORu1TBkMFpzslSL3X1LUA11dTocefGBe7tYku8NB4KHy5LyLhSHZp+L21IsyLF4JosjflEwsW5zzFCIbVDV7ilXjBfgqFzvZB0PcA7++Ew+X7OGL4RKZbNlnnVeLogV0kDmGZeqvd0/NZUSBH50Nl8OwHpevff+7ScGBwcXKc/lJFkm6Fe9PudvL13/6kXBdY6pSNoOGBTrWbfuyMTExJKy+N+F7I5EOte2tHTj+5ui/1sQ+idZubsmRsORdwAAAABJRU5ErkJggg==&quot; class=&quot;CID1d6987c1-5987-49a2-8001-95831510d0b3&quot; style=&quot;color: rgb(0, 0, 0); font-family: &amp;quot;times new roman&amp;quot;; font-size: medium; font-style: normal; font-weight: 400; letter-spacing: normal; text-indent: 0px; text-transform: none; word-spacing: 0px;&quot;&gt;" style="text;whiteSpace=wrap;html=1;" vertex="1" parent="1">
          <mxGeometry x="500" y="170" width="30" height="30" as="geometry" />
        </mxCell>
        <mxCell id="ia1kYXbHXBEfgBKJZjug-28" value="&lt;meta charset=&quot;utf-8&quot;&gt;&lt;a class=&quot;CID1d6987c1-5987-49a2-8001-95831510d0b3&quot; style=&quot;color: rgb(0, 0, 0); font-family: &amp;quot;times new roman&amp;quot;; font-size: medium; font-style: normal; font-weight: 400; letter-spacing: normal; text-indent: 0px; text-transform: none; word-spacing: 0px;&quot;&gt;&amp;nbsp;&lt;/a&gt;&lt;img src=&quot;data:image/png;base64, iVBORw0KGgoAAAANSUhEUgAAAB8AAAAoCAYAAAAG0SEsAAAAAXNSR0IArs4c6QAAAARnQU1BAACxjwv8YQUAAAAJcEhZcwAADsMAAA7DAcdvqGQAAAgkSURBVFhHzZcJbBTXGYDfXDszu7OXvWvvYXyt8UFoA4VKJDQhUAWpiZKKHiC1aRGpUKoqSiJVqlIq1bJoekioEUkrNQlRj0g9ApVaEpWQVgRKKIWA65BgsDE+d7272Lvr3Z3dnXv6v2Hq2F5vQk2r9luN3uz/3rx//v/9//vnof8lhN2uiN7eLfSaurv9RNiR37mzT7HFNfl5727OFQmxJslRu/b2ZUlb/m9x5Kf7HvrVc99su79nx/aAz/8bZUIM2101eeVgr8fbEHlAINxPBRzOr2HZipTzLLe3s7GZd3HClzmGla+JwpTdVZNwnaPJ56n/rN/r+wIiyM2HfvSoe0XKXSzPkCT9iYosbVQ09XBfX59hd9WEalKGSYJkBKerXVLliyXOpaxIuWbox3nOeZChqRhFEWO2GL36k28IZm/vsnNu3dqnCTx/XVZkTiwVzzz55PPyipSfHn37xfRs+gisN+Vyudp/tn9v7K3eXpok/TuO1SHBHoZe+8X3on986ZlG+y+EN9lclqXx6YzUj/+uSHlf3+vl80N/35dIJS8TiHoi1tTx1Jgz11bn9q+P+AXdHoY4wrGRZakY3JJ/OrT/+6ZubJOVyvV1rT4J969IOWbfD/+QGYuPf14US5VoQ+NjPa2xhwiTiCY1ucsegmiK9TCI4s7+7rnHY6vavl1WKv68KL6ydU+fpfy28hzzbO9un48NPO/3ena1NoUlXTd/v+Fzj+3BfQOvvfwS0vX7JpPpVrEsnlR16bu7v3XwrPUgQNntijl+6l1pejKN0qkbX0reyLA8z63VyyWhPRT8VCQUfPzU2QvBE6cukO/0X/nOgV8efcN+zOK2LcdsaG9vvrOr+W8FsRRlaBKxFIFM00QaQaCZTAn5ve5SKituOnXp0vv2Ixa3bTkmmcvlHRQ1wjscnfWBQMTUNfC2jjz1jQheaGgml+87/f7gMXv4PCsOuKWcG7p+9Mr49Fe8Xm+lI9aOGMaBPtbdqYiquvfM4NAL9rBF/MeUYxo9/IbJsVFHvigi2TBRMpWeGOh/77LdXUVN5R2hjmBnc/M2uDZ3hEJBW1yTnpaW9YE6935N0yjWKSDa7UfDE4npAkJFe0gVywbcmuboF50M8wO3kwuTJDJU1cirun5ZM9BfK5o6oWhmkSfJAsMQBs+yAYpE97l5x856j6tBg7VmeQE5BTeKxxMjqly86/WLw7P21IuoUt4ZjX4m6OYPt4b8LpahkQk/jKYbSFF1aHWIZHgQIhlfDGh2MBQi4d7AHYAJLtcNA3ZTwkznpAf/PPBeVbBhFrm9NRLpCnqcL65e1eDiWIelyICJ8EXB5DzLII+TQ14XBy2LwFrEOmjr2X8pxoBSRNMUgsJDGMjYYourWKic6m4OP7u+u61pdSyGGoNBUPpBpcRT49zFShZeWPZhgD989m0V88qDzmDQ6+LX66qCBFiviiRZbl0p+EkdlqqsqDM3JdXMK6fJiiZLEFpgiW5oaC6fRyRE20Kw+60FX4BlvX2/EPzimUIF5UTlpC2qYn72pChmFE1LuT0+JCvKIpdjsBMqigYfEotVVWS1Kmpx8OGxyWzx5JyqzheSpSw0zczl86Pb7rkbRcLhKuXYvKUynAGWNxaAFauajsZT2UyxVHk6mUyW7a4qFvlVUVR18MpVBP5HxbIMkg8m1sG9GiinIbUw2BOSAlZDuzA2CmUJXZvOpHKitOdaOn3OFi/LwsJCQxl8WpNKkalEAsmQ0yrsKjiVsDX5kgQxQCAr900D7ikUgIyQwe1QxKyXuDEnotFU7h+yoj9yNZF4y563JvOWd64Kb3Lz7FoKgkySVfPGXClHwSaBbcIWSvAyoXo/8rjdqCnahDbftQmFw1EkVmRrzfHLJmaL70i6+fBgPH7emvQjmFfuYtiv18N+iqN3Olu8ABvElMCzhALrN5aaGy4rxptlnT5vssIbsyXtwK+Pvjk+MNAPSwVhCssBy2RAqhwYSSTi9pQfibVYnaGmTzY1uE60h+qE6ayYTmSKZ7qidQ9zDpoeSWSUmYr64LXJydMwlIFLhUv+9Lqe422N/u0jydxQg4fvmhOlcny2sPVWrcZYlvMcuavBJwi5kmTGZ/OHfAJ7J6w1PRyfnYZJHwHFf4FhOAJFu4UoR2M42jVNH1F0HV7IZAxd9+K+W8VSzjB0CE4TKJUpHstmjR/TBCFDgOmzJfmJwUTisDVyCaqmDsmQy7BM4+D3aYam4UMVBezuW8JSztIklRPL2my5/Ey8EM/ChDlDNwqwb9d0oSSb0zgeSIIahTaOKxskz3KbXU1uKmcZAawYmxEl6wMPiuFViqJ4OILULAq6puWx26FsDUE7gVMNUrLmhrIcWDnJUqQHUmwmm81WsBDydpJjac7F0TWPvryTZnFbEMUZKL2TOi67VNVO+6GA8g7IKioKewbeOzUsBIsVF9TzBp97Df6/HE6OW4tdTTscDjix4j0Bqhiq6anlIDd2oDVQ8wPwObT6jtWtH8fCiqq1SRBRAkc/uvGO2Cpr5BKKspKAfV12MORu1TBkMFpzslSL3X1LUA11dTocefGBe7tYku8NB4KHy5LyLhSHZp+L21IsyLF4JosjflEwsW5zzFCIbVDV7ilXjBfgqFzvZB0PcA7++Ew+X7OGL4RKZbNlnnVeLogV0kDmGZeqvd0/NZUSBH50Nl8OwHpevff+7ScGBwcXKc/lJFkm6Fe9PudvL13/6kXBdY6pSNoOGBTrWbfuyMTExJKy+N+F7I5EOte2tHTj+5ui/1sQ+idZubsmRsORdwAAAABJRU5ErkJggg==&quot; class=&quot;CID1d6987c1-5987-49a2-8001-95831510d0b3&quot; style=&quot;color: rgb(0, 0, 0); font-family: &amp;quot;times new roman&amp;quot;; font-size: medium; font-style: normal; font-weight: 400; letter-spacing: normal; text-indent: 0px; text-transform: none; word-spacing: 0px;&quot;&gt;" style="text;whiteSpace=wrap;html=1;" vertex="1" parent="1">
          <mxGeometry x="510" y="180" width="30" height="30" as="geometry" />
        </mxCell>
        <mxCell id="ia1kYXbHXBEfgBKJZjug-29" value="&lt;meta charset=&quot;utf-8&quot;&gt;&lt;a class=&quot;CID1d6987c1-5987-49a2-8001-95831510d0b3&quot; style=&quot;color: rgb(0, 0, 0); font-family: &amp;quot;times new roman&amp;quot;; font-size: medium; font-style: normal; font-weight: 400; letter-spacing: normal; text-indent: 0px; text-transform: none; word-spacing: 0px;&quot;&gt;&amp;nbsp;&lt;/a&gt;&lt;img src=&quot;data:image/png;base64, iVBORw0KGgoAAAANSUhEUgAAAB8AAAAoCAYAAAAG0SEsAAAAAXNSR0IArs4c6QAAAARnQU1BAACxjwv8YQUAAAAJcEhZcwAADsMAAA7DAcdvqGQAAAgkSURBVFhHzZcJbBTXGYDfXDszu7OXvWvvYXyt8UFoA4VKJDQhUAWpiZKKHiC1aRGpUKoqSiJVqlIq1bJoekioEUkrNQlRj0g9ApVaEpWQVgRKKIWA65BgsDE+d7272Lvr3Z3dnXv6v2Hq2F5vQk2r9luN3uz/3rx//v/9//vnof8lhN2uiN7eLfSaurv9RNiR37mzT7HFNfl5727OFQmxJslRu/b2ZUlb/m9x5Kf7HvrVc99su79nx/aAz/8bZUIM2101eeVgr8fbEHlAINxPBRzOr2HZipTzLLe3s7GZd3HClzmGla+JwpTdVZNwnaPJ56n/rN/r+wIiyM2HfvSoe0XKXSzPkCT9iYosbVQ09XBfX59hd9WEalKGSYJkBKerXVLliyXOpaxIuWbox3nOeZChqRhFEWO2GL36k28IZm/vsnNu3dqnCTx/XVZkTiwVzzz55PPyipSfHn37xfRs+gisN+Vyudp/tn9v7K3eXpok/TuO1SHBHoZe+8X3on986ZlG+y+EN9lclqXx6YzUj/+uSHlf3+vl80N/35dIJS8TiHoi1tTx1Jgz11bn9q+P+AXdHoY4wrGRZakY3JJ/OrT/+6ZubJOVyvV1rT4J969IOWbfD/+QGYuPf14US5VoQ+NjPa2xhwiTiCY1ucsegmiK9TCI4s7+7rnHY6vavl1WKv68KL6ydU+fpfy28hzzbO9un48NPO/3ena1NoUlXTd/v+Fzj+3BfQOvvfwS0vX7JpPpVrEsnlR16bu7v3XwrPUgQNntijl+6l1pejKN0qkbX0reyLA8z63VyyWhPRT8VCQUfPzU2QvBE6cukO/0X/nOgV8efcN+zOK2LcdsaG9vvrOr+W8FsRRlaBKxFIFM00QaQaCZTAn5ve5SKituOnXp0vv2Ixa3bTkmmcvlHRQ1wjscnfWBQMTUNfC2jjz1jQheaGgml+87/f7gMXv4PCsOuKWcG7p+9Mr49Fe8Xm+lI9aOGMaBPtbdqYiquvfM4NAL9rBF/MeUYxo9/IbJsVFHvigi2TBRMpWeGOh/77LdXUVN5R2hjmBnc/M2uDZ3hEJBW1yTnpaW9YE6935N0yjWKSDa7UfDE4npAkJFe0gVywbcmuboF50M8wO3kwuTJDJU1cirun5ZM9BfK5o6oWhmkSfJAsMQBs+yAYpE97l5x856j6tBg7VmeQE5BTeKxxMjqly86/WLw7P21IuoUt4ZjX4m6OYPt4b8LpahkQk/jKYbSFF1aHWIZHgQIhlfDGh2MBQi4d7AHYAJLtcNA3ZTwkznpAf/PPBeVbBhFrm9NRLpCnqcL65e1eDiWIelyICJ8EXB5DzLII+TQ14XBy2LwFrEOmjr2X8pxoBSRNMUgsJDGMjYYourWKic6m4OP7u+u61pdSyGGoNBUPpBpcRT49zFShZeWPZhgD989m0V88qDzmDQ6+LX66qCBFiviiRZbl0p+EkdlqqsqDM3JdXMK6fJiiZLEFpgiW5oaC6fRyRE20Kw+60FX4BlvX2/EPzimUIF5UTlpC2qYn72pChmFE1LuT0+JCvKIpdjsBMqigYfEotVVWS1Kmpx8OGxyWzx5JyqzheSpSw0zczl86Pb7rkbRcLhKuXYvKUynAGWNxaAFauajsZT2UyxVHk6mUyW7a4qFvlVUVR18MpVBP5HxbIMkg8m1sG9GiinIbUw2BOSAlZDuzA2CmUJXZvOpHKitOdaOn3OFi/LwsJCQxl8WpNKkalEAsmQ0yrsKjiVsDX5kgQxQCAr900D7ikUgIyQwe1QxKyXuDEnotFU7h+yoj9yNZF4y563JvOWd64Kb3Lz7FoKgkySVfPGXClHwSaBbcIWSvAyoXo/8rjdqCnahDbftQmFw1EkVmRrzfHLJmaL70i6+fBgPH7emvQjmFfuYtiv18N+iqN3Olu8ABvElMCzhALrN5aaGy4rxptlnT5vssIbsyXtwK+Pvjk+MNAPSwVhCssBy2RAqhwYSSTi9pQfibVYnaGmTzY1uE60h+qE6ayYTmSKZ7qidQ9zDpoeSWSUmYr64LXJydMwlIFLhUv+9Lqe422N/u0jydxQg4fvmhOlcny2sPVWrcZYlvMcuavBJwi5kmTGZ/OHfAJ7J6w1PRyfnYZJHwHFf4FhOAJFu4UoR2M42jVNH1F0HV7IZAxd9+K+W8VSzjB0CE4TKJUpHstmjR/TBCFDgOmzJfmJwUTisDVyCaqmDsmQy7BM4+D3aYam4UMVBezuW8JSztIklRPL2my5/Ey8EM/ChDlDNwqwb9d0oSSb0zgeSIIahTaOKxskz3KbXU1uKmcZAawYmxEl6wMPiuFViqJ4OILULAq6puWx26FsDUE7gVMNUrLmhrIcWDnJUqQHUmwmm81WsBDydpJjac7F0TWPvryTZnFbEMUZKL2TOi67VNVO+6GA8g7IKioKewbeOzUsBIsVF9TzBp97Df6/HE6OW4tdTTscDjix4j0Bqhiq6anlIDd2oDVQ8wPwObT6jtWtH8fCiqq1SRBRAkc/uvGO2Cpr5BKKspKAfV12MORu1TBkMFpzslSL3X1LUA11dTocefGBe7tYku8NB4KHy5LyLhSHZp+L21IsyLF4JosjflEwsW5zzFCIbVDV7ilXjBfgqFzvZB0PcA7++Ew+X7OGL4RKZbNlnnVeLogV0kDmGZeqvd0/NZUSBH50Nl8OwHpevff+7ScGBwcXKc/lJFkm6Fe9PudvL13/6kXBdY6pSNoOGBTrWbfuyMTExJKy+N+F7I5EOte2tHTj+5ui/1sQ+idZubsmRsORdwAAAABJRU5ErkJggg==&quot; class=&quot;CID1d6987c1-5987-49a2-8001-95831510d0b3&quot; style=&quot;color: rgb(0, 0, 0); font-family: &amp;quot;times new roman&amp;quot;; font-size: medium; font-style: normal; font-weight: 400; letter-spacing: normal; text-indent: 0px; text-transform: none; word-spacing: 0px;&quot;&gt;" style="text;whiteSpace=wrap;html=1;" vertex="1" parent="1">
          <mxGeometry x="630" y="200" width="30" height="30" as="geometry" />
        </mxCell>
        <mxCell id="ia1kYXbHXBEfgBKJZjug-30" value="&lt;meta charset=&quot;utf-8&quot;&gt;&lt;a class=&quot;CID1d6987c1-5987-49a2-8001-95831510d0b3&quot; style=&quot;color: rgb(0, 0, 0); font-family: &amp;quot;times new roman&amp;quot;; font-size: medium; font-style: normal; font-weight: 400; letter-spacing: normal; text-indent: 0px; text-transform: none; word-spacing: 0px;&quot;&gt;&amp;nbsp;&lt;/a&gt;&lt;img src=&quot;data:image/png;base64, iVBORw0KGgoAAAANSUhEUgAAAB8AAAAoCAYAAAAG0SEsAAAAAXNSR0IArs4c6QAAAARnQU1BAACxjwv8YQUAAAAJcEhZcwAADsMAAA7DAcdvqGQAAAgkSURBVFhHzZcJbBTXGYDfXDszu7OXvWvvYXyt8UFoA4VKJDQhUAWpiZKKHiC1aRGpUKoqSiJVqlIq1bJoekioEUkrNQlRj0g9ApVaEpWQVgRKKIWA65BgsDE+d7272Lvr3Z3dnXv6v2Hq2F5vQk2r9luN3uz/3rx//v/9//vnof8lhN2uiN7eLfSaurv9RNiR37mzT7HFNfl5727OFQmxJslRu/b2ZUlb/m9x5Kf7HvrVc99su79nx/aAz/8bZUIM2101eeVgr8fbEHlAINxPBRzOr2HZipTzLLe3s7GZd3HClzmGla+JwpTdVZNwnaPJ56n/rN/r+wIiyM2HfvSoe0XKXSzPkCT9iYosbVQ09XBfX59hd9WEalKGSYJkBKerXVLliyXOpaxIuWbox3nOeZChqRhFEWO2GL36k28IZm/vsnNu3dqnCTx/XVZkTiwVzzz55PPyipSfHn37xfRs+gisN+Vyudp/tn9v7K3eXpok/TuO1SHBHoZe+8X3on986ZlG+y+EN9lclqXx6YzUj/+uSHlf3+vl80N/35dIJS8TiHoi1tTx1Jgz11bn9q+P+AXdHoY4wrGRZakY3JJ/OrT/+6ZubJOVyvV1rT4J969IOWbfD/+QGYuPf14US5VoQ+NjPa2xhwiTiCY1ucsegmiK9TCI4s7+7rnHY6vavl1WKv68KL6ydU+fpfy28hzzbO9un48NPO/3ena1NoUlXTd/v+Fzj+3BfQOvvfwS0vX7JpPpVrEsnlR16bu7v3XwrPUgQNntijl+6l1pejKN0qkbX0reyLA8z63VyyWhPRT8VCQUfPzU2QvBE6cukO/0X/nOgV8efcN+zOK2LcdsaG9vvrOr+W8FsRRlaBKxFIFM00QaQaCZTAn5ve5SKituOnXp0vv2Ixa3bTkmmcvlHRQ1wjscnfWBQMTUNfC2jjz1jQheaGgml+87/f7gMXv4PCsOuKWcG7p+9Mr49Fe8Xm+lI9aOGMaBPtbdqYiquvfM4NAL9rBF/MeUYxo9/IbJsVFHvigi2TBRMpWeGOh/77LdXUVN5R2hjmBnc/M2uDZ3hEJBW1yTnpaW9YE6935N0yjWKSDa7UfDE4npAkJFe0gVywbcmuboF50M8wO3kwuTJDJU1cirun5ZM9BfK5o6oWhmkSfJAsMQBs+yAYpE97l5x856j6tBg7VmeQE5BTeKxxMjqly86/WLw7P21IuoUt4ZjX4m6OYPt4b8LpahkQk/jKYbSFF1aHWIZHgQIhlfDGh2MBQi4d7AHYAJLtcNA3ZTwkznpAf/PPBeVbBhFrm9NRLpCnqcL65e1eDiWIelyICJ8EXB5DzLII+TQ14XBy2LwFrEOmjr2X8pxoBSRNMUgsJDGMjYYourWKic6m4OP7u+u61pdSyGGoNBUPpBpcRT49zFShZeWPZhgD989m0V88qDzmDQ6+LX66qCBFiviiRZbl0p+EkdlqqsqDM3JdXMK6fJiiZLEFpgiW5oaC6fRyRE20Kw+60FX4BlvX2/EPzimUIF5UTlpC2qYn72pChmFE1LuT0+JCvKIpdjsBMqigYfEotVVWS1Kmpx8OGxyWzx5JyqzheSpSw0zczl86Pb7rkbRcLhKuXYvKUynAGWNxaAFauajsZT2UyxVHk6mUyW7a4qFvlVUVR18MpVBP5HxbIMkg8m1sG9GiinIbUw2BOSAlZDuzA2CmUJXZvOpHKitOdaOn3OFi/LwsJCQxl8WpNKkalEAsmQ0yrsKjiVsDX5kgQxQCAr900D7ikUgIyQwe1QxKyXuDEnotFU7h+yoj9yNZF4y563JvOWd64Kb3Lz7FoKgkySVfPGXClHwSaBbcIWSvAyoXo/8rjdqCnahDbftQmFw1EkVmRrzfHLJmaL70i6+fBgPH7emvQjmFfuYtiv18N+iqN3Olu8ABvElMCzhALrN5aaGy4rxptlnT5vssIbsyXtwK+Pvjk+MNAPSwVhCssBy2RAqhwYSSTi9pQfibVYnaGmTzY1uE60h+qE6ayYTmSKZ7qidQ9zDpoeSWSUmYr64LXJydMwlIFLhUv+9Lqe422N/u0jydxQg4fvmhOlcny2sPVWrcZYlvMcuavBJwi5kmTGZ/OHfAJ7J6w1PRyfnYZJHwHFf4FhOAJFu4UoR2M42jVNH1F0HV7IZAxd9+K+W8VSzjB0CE4TKJUpHstmjR/TBCFDgOmzJfmJwUTisDVyCaqmDsmQy7BM4+D3aYam4UMVBezuW8JSztIklRPL2my5/Ey8EM/ChDlDNwqwb9d0oSSb0zgeSIIahTaOKxskz3KbXU1uKmcZAawYmxEl6wMPiuFViqJ4OILULAq6puWx26FsDUE7gVMNUrLmhrIcWDnJUqQHUmwmm81WsBDydpJjac7F0TWPvryTZnFbEMUZKL2TOi67VNVO+6GA8g7IKioKewbeOzUsBIsVF9TzBp97Df6/HE6OW4tdTTscDjix4j0Bqhiq6anlIDd2oDVQ8wPwObT6jtWtH8fCiqq1SRBRAkc/uvGO2Cpr5BKKspKAfV12MORu1TBkMFpzslSL3X1LUA11dTocefGBe7tYku8NB4KHy5LyLhSHZp+L21IsyLF4JosjflEwsW5zzFCIbVDV7ilXjBfgqFzvZB0PcA7++Ew+X7OGL4RKZbNlnnVeLogV0kDmGZeqvd0/NZUSBH50Nl8OwHpevff+7ScGBwcXKc/lJFkm6Fe9PudvL13/6kXBdY6pSNoOGBTrWbfuyMTExJKy+N+F7I5EOte2tHTj+5ui/1sQ+idZubsmRsORdwAAAABJRU5ErkJggg==&quot; class=&quot;CID1d6987c1-5987-49a2-8001-95831510d0b3&quot; style=&quot;color: rgb(0, 0, 0); font-family: &amp;quot;times new roman&amp;quot;; font-size: medium; font-style: normal; font-weight: 400; letter-spacing: normal; text-indent: 0px; text-transform: none; word-spacing: 0px;&quot;&gt;" style="text;whiteSpace=wrap;html=1;" vertex="1" parent="1">
          <mxGeometry x="650" y="150" width="30" height="30" as="geometry" />
        </mxCell>
        <mxCell id="ia1kYXbHXBEfgBKJZjug-33" value="&lt;meta charset=&quot;utf-8&quot;&gt;&lt;a class=&quot;CID1d6987c1-5987-49a2-8001-95831510d0b3&quot; style=&quot;color: rgb(0, 0, 0); font-family: &amp;quot;times new roman&amp;quot;; font-size: medium; font-style: normal; font-weight: 400; letter-spacing: normal; text-indent: 0px; text-transform: none; word-spacing: 0px;&quot;&gt;&amp;nbsp;&lt;/a&gt;&lt;img src=&quot;data:image/png;base64, iVBORw0KGgoAAAANSUhEUgAAAB8AAAAoCAYAAAAG0SEsAAAAAXNSR0IArs4c6QAAAARnQU1BAACxjwv8YQUAAAAJcEhZcwAADsMAAA7DAcdvqGQAAAgkSURBVFhHzZcJbBTXGYDfXDszu7OXvWvvYXyt8UFoA4VKJDQhUAWpiZKKHiC1aRGpUKoqSiJVqlIq1bJoekioEUkrNQlRj0g9ApVaEpWQVgRKKIWA65BgsDE+d7272Lvr3Z3dnXv6v2Hq2F5vQk2r9luN3uz/3rx//v/9//vnof8lhN2uiN7eLfSaurv9RNiR37mzT7HFNfl5727OFQmxJslRu/b2ZUlb/m9x5Kf7HvrVc99su79nx/aAz/8bZUIM2101eeVgr8fbEHlAINxPBRzOr2HZipTzLLe3s7GZd3HClzmGla+JwpTdVZNwnaPJ56n/rN/r+wIiyM2HfvSoe0XKXSzPkCT9iYosbVQ09XBfX59hd9WEalKGSYJkBKerXVLliyXOpaxIuWbox3nOeZChqRhFEWO2GL36k28IZm/vsnNu3dqnCTx/XVZkTiwVzzz55PPyipSfHn37xfRs+gisN+Vyudp/tn9v7K3eXpok/TuO1SHBHoZe+8X3on986ZlG+y+EN9lclqXx6YzUj/+uSHlf3+vl80N/35dIJS8TiHoi1tTx1Jgz11bn9q+P+AXdHoY4wrGRZakY3JJ/OrT/+6ZubJOVyvV1rT4J969IOWbfD/+QGYuPf14US5VoQ+NjPa2xhwiTiCY1ucsegmiK9TCI4s7+7rnHY6vavl1WKv68KL6ydU+fpfy28hzzbO9un48NPO/3ena1NoUlXTd/v+Fzj+3BfQOvvfwS0vX7JpPpVrEsnlR16bu7v3XwrPUgQNntijl+6l1pejKN0qkbX0reyLA8z63VyyWhPRT8VCQUfPzU2QvBE6cukO/0X/nOgV8efcN+zOK2LcdsaG9vvrOr+W8FsRRlaBKxFIFM00QaQaCZTAn5ve5SKituOnXp0vv2Ixa3bTkmmcvlHRQ1wjscnfWBQMTUNfC2jjz1jQheaGgml+87/f7gMXv4PCsOuKWcG7p+9Mr49Fe8Xm+lI9aOGMaBPtbdqYiquvfM4NAL9rBF/MeUYxo9/IbJsVFHvigi2TBRMpWeGOh/77LdXUVN5R2hjmBnc/M2uDZ3hEJBW1yTnpaW9YE6935N0yjWKSDa7UfDE4npAkJFe0gVywbcmuboF50M8wO3kwuTJDJU1cirun5ZM9BfK5o6oWhmkSfJAsMQBs+yAYpE97l5x856j6tBg7VmeQE5BTeKxxMjqly86/WLw7P21IuoUt4ZjX4m6OYPt4b8LpahkQk/jKYbSFF1aHWIZHgQIhlfDGh2MBQi4d7AHYAJLtcNA3ZTwkznpAf/PPBeVbBhFrm9NRLpCnqcL65e1eDiWIelyICJ8EXB5DzLII+TQ14XBy2LwFrEOmjr2X8pxoBSRNMUgsJDGMjYYourWKic6m4OP7u+u61pdSyGGoNBUPpBpcRT49zFShZeWPZhgD989m0V88qDzmDQ6+LX66qCBFiviiRZbl0p+EkdlqqsqDM3JdXMK6fJiiZLEFpgiW5oaC6fRyRE20Kw+60FX4BlvX2/EPzimUIF5UTlpC2qYn72pChmFE1LuT0+JCvKIpdjsBMqigYfEotVVWS1Kmpx8OGxyWzx5JyqzheSpSw0zczl86Pb7rkbRcLhKuXYvKUynAGWNxaAFauajsZT2UyxVHk6mUyW7a4qFvlVUVR18MpVBP5HxbIMkg8m1sG9GiinIbUw2BOSAlZDuzA2CmUJXZvOpHKitOdaOn3OFi/LwsJCQxl8WpNKkalEAsmQ0yrsKjiVsDX5kgQxQCAr900D7ikUgIyQwe1QxKyXuDEnotFU7h+yoj9yNZF4y563JvOWd64Kb3Lz7FoKgkySVfPGXClHwSaBbcIWSvAyoXo/8rjdqCnahDbftQmFw1EkVmRrzfHLJmaL70i6+fBgPH7emvQjmFfuYtiv18N+iqN3Olu8ABvElMCzhALrN5aaGy4rxptlnT5vssIbsyXtwK+Pvjk+MNAPSwVhCssBy2RAqhwYSSTi9pQfibVYnaGmTzY1uE60h+qE6ayYTmSKZ7qidQ9zDpoeSWSUmYr64LXJydMwlIFLhUv+9Lqe422N/u0jydxQg4fvmhOlcny2sPVWrcZYlvMcuavBJwi5kmTGZ/OHfAJ7J6w1PRyfnYZJHwHFf4FhOAJFu4UoR2M42jVNH1F0HV7IZAxd9+K+W8VSzjB0CE4TKJUpHstmjR/TBCFDgOmzJfmJwUTisDVyCaqmDsmQy7BM4+D3aYam4UMVBezuW8JSztIklRPL2my5/Ey8EM/ChDlDNwqwb9d0oSSb0zgeSIIahTaOKxskz3KbXU1uKmcZAawYmxEl6wMPiuFViqJ4OILULAq6puWx26FsDUE7gVMNUrLmhrIcWDnJUqQHUmwmm81WsBDydpJjac7F0TWPvryTZnFbEMUZKL2TOi67VNVO+6GA8g7IKioKewbeOzUsBIsVF9TzBp97Df6/HE6OW4tdTTscDjix4j0Bqhiq6anlIDd2oDVQ8wPwObT6jtWtH8fCiqq1SRBRAkc/uvGO2Cpr5BKKspKAfV12MORu1TBkMFpzslSL3X1LUA11dTocefGBe7tYku8NB4KHy5LyLhSHZp+L21IsyLF4JosjflEwsW5zzFCIbVDV7ilXjBfgqFzvZB0PcA7++Ew+X7OGL4RKZbNlnnVeLogV0kDmGZeqvd0/NZUSBH50Nl8OwHpevff+7ScGBwcXKc/lJFkm6Fe9PudvL13/6kXBdY6pSNoOGBTrWbfuyMTExJKy+N+F7I5EOte2tHTj+5ui/1sQ+idZubsmRsORdwAAAABJRU5ErkJggg==&quot; class=&quot;CID1d6987c1-5987-49a2-8001-95831510d0b3&quot; style=&quot;color: rgb(0, 0, 0); font-family: &amp;quot;times new roman&amp;quot;; font-size: medium; font-style: normal; font-weight: 400; letter-spacing: normal; text-indent: 0px; text-transform: none; word-spacing: 0px;&quot;&gt;" style="text;whiteSpace=wrap;html=1;" vertex="1" parent="1">
          <mxGeometry x="540" y="120" width="30" height="30" as="geometry" />
        </mxCell>
        <mxCell id="ia1kYXbHXBEfgBKJZjug-34" value="" style="shape=image;verticalLabelPosition=bottom;labelBackgroundColor=#ffffff;verticalAlign=top;aspect=fixed;imageAspect=0;image=data:image/png,iVBORw0KGgoAAAANSUhEUgAABLAAAAT9CAQAAADy7mL2AAAABGdBTUEAALGPC/xhBQAAACBjSFJNAAB6JgAAgIQAAPoAAACA6AAAdTAAAOpgAAA6mAAAF3CculE8AAAAAmJLR0QA/4ePzL8AAAAHdElNRQfiBwQAGxlnRzg0AAAqXklEQVR42u3dabRcdZ3v4W/mAAEzMCQgkKgMAgkgqEwiCEpEUFsFRaO20uAALffe5XRd2he1u6/S6GqW3Fa01XakF4oo2CLKIMikoETCFIaQgEiQTGQmwzn3RUiTQIYz7Kqz67+fp96wFifn1PntXac+tWv/dyUAAAAAAAAAAAAAAAAAAAAAAAAAAAAAAAAAAAAAAAAAAAAAAAAAAAAAAAAAAAAAAAAAAAAAAAAAAAAAAAAAAAAAAAAAAAAAAAAAAAAAAAAAAAAAAAAAAAAAAAAAAAAAAAAAAAAAAAAAAAAAAAAAAAAAAAAAAAAAAAAAAAAAAAAAAAAAAAAAAAAAAAAAAAAAAAAAAAAAAAAAAAAAAAAAAAAAAAAAAAAAAAAAAAAAAAAAAAAAAAAAAAAAAAAAAAAAAAAAbTPICIDa2TkTMzF7ZHzGZVzGZXRGJtk+Q5OsyrIky7Mw8zM/8zI3czI7D2eRsQECC2BjO+XATMnkTMm+2bYP/35R7s2d+VNm5M4sNk5AYAFN/hu0X47IkTkie1X2Pdfm7tyYW3JjZhswANAko3JyLsqj6W7h7aFclFOyvWEDAKXbOR/KdVnT0rTa8LY8P8s7ZRYAUKbtc3qubmNabZxZl+YtGWYjAADlOCQXZfGApNWGtwW5KAfYGABApxuWd+cPA55Wz966cnVOtMQHAOhUO+ScPFKjuHr2dn/OyTY2EADQWUbnczV4U3BLt8dyVobbUABAZ9gun8iCWsfV+tsjOScjbDAAoN6G5Mw80RFxtf42MyfbbABAfR2T6R0VV+tv12SKjQcA1M/4XNKRcbXutjpfznY2IgBQJ6dkXgfn1brbwznBhgQA6mFSrun4uFp/+27G2KAAwEA7pUNWDPZ8ZeExNioAMHB2yPeKiqv1V3u/wBWyAICBcUhmF5hX6263ZncbGABot2lZVmxedac7T+a1NjIA0D7D89Wi42r9pRs+alMDAO0xJtc1IK/W3b7tbCwAoPUm5Z7G5NW6q7yPttEBgFZ6RYd90mAVt7uyhw0PALTK0XmqcXnVne7MyV42PgDQClOzvJF51Z3uzPVx0ABA9d6cpxubV93pzrwcYicAAKr0uqxsdF51pzsLc7AdAQCoymuyovF51Z3u/DUvtTMAWzPICIAeOCK/ynbGkCR5NEdntjEAAgvon31zU8Yaw397KIdlnjEAmzfYCICt2DGXy6uNvDg/yQhjADZviBEAW7RNfpkDjeE59sxeudQYAIEF9MWgfC9TjWETDsia3GAMAEDvfdS6wc3e1uZEOwiwuVenAJtzbH6VocawWQvz8jxkDIDAAnput/wxOxvDFk3P4VlpDMBzOQcL2LTB+UkmG8NWjM8LcqUxAAA983FnWfXo1pWT7CzAc3mLENiUg3NrhhtDjzyZKZlrDMCGXGgUeL4R+Z686rGd8jVDAAQWsDWfyv6G0AtvytsMAdiQtwiB59o3030QTC/NzX5ZaAzAelYRAhsbnMsz0Rh6aVR2zOXGADz7pxRgQ6fnMEPog/fnKEMA1vMWIbCh7XN/xhtDn/whr0iXMQCJI1jAxv5BXvXZIXmXIQDrOIIFPOvFudvp7f3wWPbJMmMAnOQObOjCHGwI/bBDluRGYwAcwQKetV9mOG2gnxZlUhYZA+AIFrDev7m8aL+NzIpcbwyAI1jAOgfmDn8RKvBUJrnkKODtAGCdT8irSrwgHzQEwB9UIElemFkZZgyVeCITs9IYoNkcwQKS5H/Iq8rsktMMAZrOESwg2T6P5gXGUJm7MiXdxgBN5ggWkLxLXlXqgBxpCCCwgKY7wwhMFKiStwiBAzPdECq2Iru5WAM0mSNYwAeMoHLb5J2GAE3mCBY03bDMzVhjqNytOdwQoLkcwYKme528aolXZqIhgMACmupUI2iJQTnFEKDJfwKAJhuRJ1yioUVuz8sNAZrKESxotmPlVcscmt0NAQQW0ESvN4IWmmoEILAAgYXpApVwDhY02aTMMoQWWpJxWW0M0ESOYEGTeQurtbZ3LSwQWEDzvMoIWuwoIwCBBTTNkUZgwkArOAcLmmvXPGYILbYo49JlDNA8jmBBczm60nqjs78hgMACmuQQI2iDlxkBCCygSaYYQRtMNgIQWIDAQmAB/eYkd2iqsZlvCG0wNxMMAZrHESxoKidft8f4jDUEEFhAU0wyApMGBBbgad+kAYEF1NpEIxBYgMACBJbAAgQWUGu7GkGbWEUIAgtojHFGYNKAwAKqfeyPNgSBBQgsoEpjMsQQ2mRHIwCBBTSDi1+aNSCwgIqNNIK2GepoIQgsoBmGG0EbjTACEFiAp3xMGxBYQK85gmXagMACPPY72FAjAH9kgSZYbQRt9LQRgMACPOVj2oDAAnptlRGYNiCwAE/5pg0ILKDWFhtBG2fdbQggsIAmmGcEbTPfCEBgAc2wMssMQcwCAguoluMqJg0ILKBiTxpBmziCBQILaIxHjKBN5hgBCCygKWYbQZs8bAQgsACBhcACBBbgad+kAYEF1MH9RtAWT+dRQwCBBTTFg1luCG1wT9YYAggsoCnW5h5DaIM7jQAEFuCpn2rNMAIQWIDAQmABAgvos1uMoOW68jtDAIEFNMkdTnNvuRl5yhBAYAFNsjq3G0KL3WQEILAAT/+YMCCwgH65zghaqju/MQRopkFGAA02IvMyyhhaZnoONgRoJkewoMmedoSlpa40AhBYQBP90ghMF6ietwih2SZmlr8DLbIg47PaGKCZHMGCZpud3xtCi/xEXoHAAprqEiMwWaBq3hqApnth5nip1QLzMiFrjAGayp9VaLo/52ZDaIEfyysQWECTfcsITBWolrcIgW3yl4w2hkrdmQMNAZrMESxgRS42hIp9wwig2RzBApKDcochVJqsu2WhMUCTOYIFJNNzvSFU6NvyCppuiBEASebnNEOoSFemZYExQLM5ggUkyc9zryFU5Kd5wBCg6RzBAtZZlZMNoRJ/l0cNAZrOSe7AOsMyM5OMod9+ndcZAuAIFrBOV5bljcbQb9PyZ0MAHMECnn3BdXf2MYZ++bk3WoF1f1AB1unOorzFGPqhK+/M48YAWEUIbOiH+b0h9MN380dDABJvEQIbOzw3+bvQR0uzT/5iDEDiCBawsVvyn4bQR/8sr4D1vFIFNrZ77skoY+i1h3JAVhoDsI6T3IGNLc6KTDWGXntH7jcEAGBzBuemdLv16vZtuw2wIW8RAs93QP6Q4cbQY/OyX540BuBZ3iIEnu+vGZRjjaHH3pPbDQEA2JrB+Y03/np4+4bdBXgubxECm7Z7/pQxxrBVD+XgLDEGYGPeIgQ2bXEezVuNYStW5cTMNgZAYAE9NSPjc6gxbNFH8jNDAAB6Y1h+6xyrLdy+bxcBNs05WMCWjM8fM8EYNunOHJ7lxgBsis8iBLZkbk7N08awCU/kTfIKEFhA39yY96TbGJ5jRf7Gye3A5jnJHdiau7MmrzGGDXTltPzaGACA/vm6U9o3uJ1jhwAA+m9wfiCsnrn9g90BAKjGkFwirtKdf7UrAADVGZGrGp9X/+biNgBAtYbnJ43OqwvlFQBQvSH5TmPz6gs2PwDQqsT69wbGVVc+ZtMDAK10TroalVcrM81GBwBa7dSsaExezc+rbXAAoB2OybxG5NXM7G1jAwDt8sL8rvi8uiKjbWgAoJ1G5BtFn9j+hQy2kQGA9js9S4vMq7/ktTYuADBQJuWm4vLqlxlvwwIAA2lY/m/WFBNXy/JBmxQAqIODcnsRefUbqwYBgPoYmk90+NWxFuRMnzYIANTN3rmiQ+NqTb6enWxAAKCejsudHfjG4EE2HABQZ0NzVv7SMXF1d95ikwEAnWB4zszjtY+rh3NmhthYAEDnGJWP57HaxtU9eV+G2kgAQOcZnlPy+9rF1Y05xZErAKCTDcpr86M8XYu0Wpyv5xCbBAAow875aO4d0Li6JadnlA0BAJRm/5ybmQOwUvBcV2gH2sc1i4GBcGjemKk5JINb/HNW5aZcmZ/lfiMHBBbQDDvlhByfI7JX5d+5K3flt7k612SJMQMCC2iiXXJEjsyBmZxd+vmd5uSu3JGbc3OeMlZAYAEkyc6Zkn0yKRMzKXtm3Fa/vjtPZE4ezsOZnXsyQ1YBAgtgy4ZmXMZlXMZmeAZl9DNJtSjJiizM/MzPvHQbEwAAAAAAAAAAAAAAAAAAAAAAAAAAAAAAAAAAAAAAAAAAAAAAAAAAAAAAAAAAAAAAAAAAAEC1BhkBFGp0BmWbjEyyQ4YYR+2syrIky7Iqa7PYOEBgAXUzJLtlYiZmUnbPjhn3zE1UdY7VmZf5mZ/5eSJ/zuzMzsN53FhAYAHtj6q9MiVTMjkHZPcMM5DirMzDuSt3ZkbuzOx0GwgILKB1dsuROTKHZ3JGGkZjLM703JybckvmGwYILKA6u2dqjslR2cMoGqw79+WmXJNfCy0QWEB/DM1hOSnH52Uerfy3rtyRq3N1fpM1hgECC+iNkZmaU3NStjcKNuOv+UkuyQ1ZaxQgsICtGZ6pOSVvzA5GQQ88kR/nR/ltuowCBBawaXvn/XlfdjYIeunP+UG+mjkGAQIL2NCIvDFn5jiPSvqsK9fm67nMmVkgsIAk2TkfztkZZxBUYHa+louyyCBAYEGT7ZWzc0a2MQgqtCTfzpfyiEGAwIImemX+T6Z6HNISq3NxPp8HDQIEFjTJ5Hwmb/MYpKW6cmk+JbJAYEEzTMln8yaPP9pidb6Vf8qjBgECC0q2Yz6TszLEIGijVflaPp0lBgHt4o88tNPwnJ2f5ugMNgra/Lf+lXlvluaOdBsGtIMjWNA+b8n5mWQMDKDf55zcagwgsKAUE/KVvNUYGHDd+UY+lsUGAQILOv9xdkb+xScLUhuP5+9zqTGAwIJO9tL8e44wBmrmR/n7PGEM0CpOtYXWvoQ5M7fJK2rolMzIG40BWvfnH2iVnfPNnGQM1Nj38qEsMwYQWNA5Tsi3M8EYqLn7Mi1/MAaomutgQSsMzT/nq9neIKi9HfP+rMpNBgECC+pup/w073Z8mA4xOMdnr/wyq40CquMpAKp2ZC7JrsZAh/lT3pqHjAGqe+UCVOnDuU5e0YEOzG05wRigKt4ihOoMyrk5z6OKDrVNTsv83GYQILCgTrbLJfmAMdDBBufEjM2vfCA0VPGKG6jC+FyelxsDBbgs07LcGEBgwcB7ca7ORGOgEDflpCwyBhBYMLD2zdXZzRgoyB05IU8aA/SdVYTQXy/LDfKKwhycG/JCY4C+cwQL+ucVuTJjjYECzcnxedAYQGBB+x2WX/lAHIr15xydh40BBBa010G5NmOMgYI9kqMzxxhAYEH7TM51GWcMFO6BHJ25xgACC9pjr9yQ8cZAA8zIsZlvDCCwoPV2yy3Z3RhoiFvzmqwwBugNl2mA3ts+P5dXNMhhucQHq0HveMhA7x81l+TVxkCj7J0dcpUxgMCC1rkw0wyBxjksi/I7Y4Cecg4W9M7Hcp4h0EhdeVN+bgwgsKB6x+Uqx31prCV5Ze41BhBYUK09c3t2NAYa7L68MouNAbbOKkLoqZG5VF7RcPvmO16YQ094swN66luZaghIrCzLzcYAW+OVCPTMe/MfhgBJ1uRVudUYQGBB/70od2QHY4Akyawc7Ews2DJvEcLWDc0VeYkxwDPGZNf81BhAYEH/fC7vNATYwEF5IDOMATbPW4SwNYfnt16KwHMsygF5zBhgc1ymAbZsRL4hr+B5RuciQwCBBX316exvCLAJb8jbDQE2x1uEsCVTcnuGGQNs0rzslyeNATbFWx+wpcfHFdndGGAzts0uVhPCpnmLEDbvwznUEGAL3pNjDAE2xVuEsDlj8kDGGQNs0d05KGuMAZ7LW4SwOefn1YYAW7FzHs/txgDP5QgWbNp++VOGGgNs1YLsnfnGABtzBAs27WIfjgM9sk1G5JfGABtzBAs2ZWquNAToodXZN7OMATbkCBZsyvfzQkOAHj+T7JCfGQNsyBEseL435zJDgF5Ym8m51xhgw9cdwMYG5+KMNwbo1aNmXC41BtjwQQFs7NQcaAjQ68fNFEOAZzmCBRsblO87fgV9eOSMzY+NAZ59SAAbOjH/ZQjQB2uzTx4yBljHESzY2EWZZAjQB4MzyOVNYD1HsGBDB2a6IUAfLc+emWcMsO4VB/CsTxoB9Nm2+aAhwDqOYMGzds0cnz8I/fB49sxqYwBHsGBD75dX0C8TcrIhgMCCjR8NpxsC9NMZRgACCzb0ukw0BPA4AoEFVTrTCKCCZ5X3GwI4yR3W2zl/zjBjgH57LHukyxjwWgNIklPkFVRit7zKEEBgwTpvNwLwaIKqeIsQkmTXPOrlBlRkXiZkjTHQbJ5SYN0rbo8FqMqOeY0hILCA5FQjgEpfskDDeYsQkvH5i8cCVOjJjLeSkGZzBAuSqfIKKrVTDjEEBBY03euNADyqQGBBlYbkeEMAgQUCC6p0RMYaAlTsFdnZEBBY0GSvMwJowbOLSzUgsKDRfKwHtMJRRoDAguYalpcbAggsEFhQpUOyrSFAC0zOaENAYEFTHWkE0KLnl8MNAYEFAgvw6AKBBZU41AigRZzfSIP5gBCabWzmGwK0yNxMMASayhEsmu1AI4CWGe9iowgsaKYpRgAeYSCwwJ9/8AgDgQW1NtkIQGCBwIJq7WUE0EIvMQIEFjTPGFeahpaaZAQILPDHH6jWhGxjCAgsaJqJRgAtNSh7GgICC5rGESzwKAOBBRXz2hpabaIRILCgaXYxAvAoA4EF1drRCKDFxhkBAgsEFuBRBgILvLYGjzIQWOBPPzSJI1gILGiYbTPSEMDLGBBYUCVXmIbW8zIGgQUNM8IIwOMMBBZUa7gRgMcZCCzwhx86jSNYCCzwhx+o/FlmqCEgsKBJhhkBeCkDAguqNcgIwCMNBBYAgMACABBYAAAILAAAgQUAILAAABBYAAACCwBAYAEAILAAAAQWAIDAAgBAYAEACCwAAIEFACCwAAAQWAAAAgsAQGABACCwAAAEFgCAwAIAQGABAAgsAACBBQAgsAAAqNJQI4Ca+lTm9+jr3pITDKvRe8DknG1YILCAnrk4s3v0dS8SWIX6Yeb06OtOElhQP94iBAAQWAAAAgsAQGABACCwAAAEFlCRbiMAEFgAAAILAACBBQAgsAAABBYAAAILCmUVIYDAAgAQWAAACCwAAIEFACCwAAAQWFAqqwgBBBYAgMACAEBgAQAILAAAgQUAgMCCUllFCCCwAAAEFgAAAgsAQGABAAgsAAAEFpTKKkIAgQUAILAAABBYAAACCwBAYAEAILCgVFYRAggsAACBBQCAwAIAEFgAAAILAACBBaWyihBAYAEACCwAAAQWAIDAAgAQWAAACCwolVWEAAILAEBgAQAgsAAABBYAgMACAEBgAQAILAAAgQUAgMACABBYAAACC2gxH5UDILAAAAQWAAACCwBAYAEACCygNpzkDiCwAAAEFgAAAgsAQGABAAgsAAAEFpTKKkIAgQUAILAAABBYAAACCwBAYAEAILCgVFYRAggsAACBBQCAwAIAEFgAAAILAACBBaWyihBAYAEACCwAAAQWAIDAAgAQWAAACCwolVWEAAILAEBgAQAgsAAABBYAgMACAEBgQamsIgQQWAAAAgsAAIEFACCwAAAEFgAAAgtKZRUhgMACABBYAAAILAAAgQUAILAAABBYUCqrCAEEFgCAwAIAQGABAAgsAACBBQCAwIJSWUUIILAAAAQWAAACCwBAYAEACCwAAAQWlMoqQgCBBQAgsAAAEFgAAAILAEBgAQAgsKBUVhECCCwAAIEFAIDAAgAQWAAAAgsAAIEFpbKKEEBgAQAILAAABBYAgMACABBYAAAILCiVVYQAAgsAQGABACCwAAAEFgCAwAIAQGBBqawiBBBYAAACCwAAgQUAILAAAAQWAAACC0plFSGAwAIAEFgAAAgsAACBBQAgsAAAEFhQKqsIAQQWAIDAAgBAYAEACCwAAIEFAIDAglJZRQggsAAABBYAAAILAEBgAQAILAAABBaUyipCAIEFACCwAAAQWAAAAgsAQGABACCwoFRWEQIILAAAgQUAgMACABBYAAACCwAAgQWlsooQQGABAAgsAAAEFgCAwAIAEFgAAAgsKJVVhAACCwBAYAEAILAAAAQWAIDAAgBAYEGprCIEEFgAAAILAACBBQAgsAAABBYAAAILSmUVIYDAAgAQWAAACCwAAIEFACCwAAAQWFAqqwgBBBYAgMACAEBgAQAILAAAgQUAgMCCUllFCCCwAAAEFgAAAgsAQGABAAgsoDac5A4gsAAABBYAAAILAEBgAQAILAAABBaUyipCAIEFACCwAAAQWAAAAgsAQGABACCwoFRWEQIILAAAgQUAgMACABBYAAACCwAAgQWlsooQQGABAAgsAAAEFgCAwAIAEFgAAAgsKJVVhAACCwBAYAEAILAAAAQWAIDAAgBAYEGprCIEEFgAAAILAACBBQAgsAAABBYAAAILSmUVIYDAAgAQWAAACCwAAIEFACCwoABrC7l/TnK3J7t/ILCgNpbV/P4tsYnokaU1z6sVNhECCzwtuX/Yk71QAIEFhT4trcgam4gCEsYLBQQWNC6wVtX43i3s8Vc6B6vpFtT63i20gRBY0CzdmVXje/dAj79ykE3Z+MCaX8SeDAILCnF/je/bfTYPRezJ99s8CCzwtFQfM3v8ld4iZGaN75sjWAgsaJy73TeKMMOeDAIL6uOG2t6zVbnJ5qHHrq/tPVuaP9o8CCxomlmZU9N79rvaXwaVOrmjtqe535jVNg8CC7zyr4trbRp6oau2R2Ovt3EQWNBEV9b0fv2iF1/rJHeS//IIA4EF9XF5La+C/UB+b9PQKz/K8hreq3vzJ5sGgQVNtDw/reG9+o4NQy8tzuU1vFffs2EQWNBU36/dPeqq4X2i/r5bwz35hzYLAgua6te1u07PZbVd20idXZW7anaPLrcnI7CgubrzpZrdoy/YKPRBV86r2T06z0ZBYEGTfb9Wr7N/kdttEvrkh7X6WJprc4tNgsCCJludL9bmvnTl3F7/G5dpYJ21+aca3ZvP2iAILGi6r2d6Te7JN3KbzUGffbc2F/a8uMYfRAUCC9r2yv+sWhwHmp9P2xj0Q3fOrsVH0yzPJ20MBBaQ3FyLRe4fzbw+PanCenflghrci3PziE2BwAKS5OzcP8D34JL8R5/+3SAbjw18KrcO8D24Pl+2GUBgwTpL866sGsCf/2DOsBGowOpMy1MD+POfzDuz1mYAgQXr3Z7/PWA/e3lOyeI+/ltvEbKxh3L6gO0VXfnb/MUmAIEFG/pyvjIgP3dtptVmHSMluDQfGaCf/L/yC+MHgQXP9T/zk7b/zO58IJcZPZW6cECuo35eLU6xB4EFtbM209p8JaHufDzf7Od3gOf7ZL7e5p/4HRdnAIEFm7MiJ7TxKNbafDDn9/N7WEXIpsP7g229mvr/y/vFPggs2Lync2q+1aaf9I62H2WgSYl1bj6Srrb8rC/m7Db9JBBY0LHW5u/ymZYvNZ+Vo/LjSp5GYXO+kr/Jghb/jKWZ5s1BEFjQs2j5xxyXx1v4E36WQ3O7QdNyl+eg3NTC739fDs8PjBkEFvTU9TkkV7TkOy/Kh/LmLDRi2uLRHJvP5+kWfOeufDWH5i4jBqC3Ts7sdFd6uyS7VHoPT6v4/rnV5bZnpfvJS3Jlxfdveg73BwKAvtoun8uiip6Srs+rKr9/75AiAquH3pYZFd23R3NWhvjjAED/bJ9zMrefT0k35riW3DdHsARWzw3Kybm1n/drTs7JSH8UAKjqSNZ7c03W9uEJ6bH8Sya37H45giWweuvIXJQFfbhHK3Np3pRh/hhAT17NAL2xR96e4/KqbNujr74n1+SKXNvSSz68IxfbLEWamDkt/O4j84acmNdkYo++ekF+k1/lRy2/5AMILGi04Tksh2fvvDR7Z9xz/t+qPJiZmZk7c13mtuG+CCyB1R8vyquzf16avTPpeWdVPZ77cn/uzY25w2VEoXeGGgH0warckBue+e/tMiqjMjrJiizNkixq86U/XWiU/piVWc/815DskBdkVEakK09lcZZlhfGAwIKBsizL8sQA/nzHoanG2ix0dTYQWMA6ZR7B6srsHn/tkBaeDg4gsIBiLMqLe/y1u+YxAwPqxUflAAAILAAAgQUAILAAABBYAAACC6iIC40CCCwAAIEFAIDAAgAQWAAAAgsAAIEFpbKKEEBgAQAILAAABBYAgMACABBYAAAILCiVVYQAAgsAQGABACCwAAAEFgCAwAIAQGBBqawiBBBYAAACCwAAgQUAILAAAAQWAAACC0plFSGAwAIAEFgAAAgsAACBBQAgsAAAEFhQKqsIAQQWAIDAAgBAYAEACCwAAIEFAIDAglJZRQggsAAABBYAAAILAEBgAQAILAAABBaUyipCAIEFACCwAAAQWAAAAgsAQGABACCwoFRWEQIILAAAgQUAgMACABBYAAACCwAAgQWlsooQQGABAAgsAAAEFgCAwAIAEFgAAAgsKJVVhAACCwBAYAEAILAAAAQWAIDAAmrDSe4AAgsAQGABACCwAAAEFgCAwAIAQGBBqawiBBBYAAACCwAAgQUAILAAAAQWAAACC0plFSGAwAIAEFgAAAgsAACBBQAgsAAAEFhQKqsIAQQWAIDAAgBAYAEACCwAAIEFAIDAglJZRQggsAAABBYAAAILAEBgAQAILAAABBaUyipCAIEFACCwAAAQWAAAAgsAQGABACCwoFRWEQIILAAAgQUAgMACABBYAAACCwAAgQWlsooQQGABAAgsAAAEFgCAwAIAEFgAAAgsKJVVhAACCwBAYAEAILAAAAQWAIDAAgBAYEGprCIEEFgAAAILAACBBQAgsAAABBYAAAILSmUVIYDAAgAQWAAACCwAAIEFACCwAAAQWFAqqwgBBBYAgMACAEBgAQAILAAAgQUAgMCCUllFCCCwAAAEFgAAAgsAQGABAAgsAAAEFpTKKkIAgQUAILAAABBYAAACCwBAYAEAILCgVFYRAggsAACBBQCAwAIAEFgAAAILAACBBaWyihBAYAEACCwAAAQWAIDAAgAQWAAACCwolVWEAAILAEBgAQAgsAAABBYAgMACAEBgQamsIgQQWAAAAgsAAIEFACCwAAAEFgAAAgtKZRUhgMACABBYAAAILAAAgQUAILAAABBYUCqrCAEEFgCAwAIAQGABAAgsAACBBQCAwIJSWUUIILAAAAQWAAACCwBAYAEACCwAAAQWlMoqQgCBBQAgsAAAEFgAAAILAEBgAQAgsKBUVhECCCwAAIEFAIDAAgAQWAAAAgsAAIEFpbKKEEBgAQAILAAABBYAgMACABBYAAAILCiVVYQAAgsAQGABACCwAAAEFgCAwAIAQGBBqawiBBBYAAACCwAAgQUAILAAAAQWUBtOcgcQWAAAAgsAAIEFACCwAAAEFgAAAgtKZRUhgMACABBYAAAILAAAgQUAILAAABBYUCqrCAEEFgCAwAIAQGABAAgsAACBBQCAwIJSWUUIILAAAAQWAAACCwBAYAEACCwAAAQWlMoqQgCBBQAgsAAAEFgAAAILAEBgAQAgsKBUVhECCCwAAIEFAIDAAgAQWAAAAgsAAIEFpbKKEEBgAQAILAAABBYAgMACABBYAAAILCiVVYQAAgsAQGABACCwAAAEFgCAwAIAQGBBqawiBBBYAAACCwAAgQUAILAAAAQWAAACC0plFSGAwAIAEFgAAAgsAACBBQAgsAAAEFhQKqsIAQQWAIDAAgBAYAEACCwAAIEFAIDAglJZRQggsAAABBYAAAILAEBgAQAILAAABBaUyipCAIEFACCwAAAQWAAAAgsAQGABACCwoFRWEQIILAAAgQUAgMACABBYAAACCwAAgQWlsooQQGABAAgsAAAEFgCAwAIAEFgAAAgsKJVVhAACCwBAYAEAILAAAAQWAIDAAgBAYEGprCIEEFgAAAILAACBBQAgsAAABBYAAAILSmUVIYDAAgAQWAAACCwAAIEFACCwAAAQWFAqqwgBBBYAgMACAEBgAQAILAAAgQUAgMCCUllFCCCwAAAEFgAAAgsAQGABAAgsAAAEFpTKKkIAgQUAILAAABBYAAACCwBAYAEAILCgVFYRAggsAACBBQCAwAIAEFgAAAILAACBBaWyihBAYAEACCwAAAQWAIDAAgAQWAAACCwolVWEAAILAEBgAQAgsAAABBYAgMACAEBgQamsIgQQWAAAAgsAAIEFACCwAAAEFgAAAgtKZRUhgMACABBYAAAILAAAgQUAILCA2nCSO4DAAgAQWAAACCwAAIEFACCwAAAQWFAqqwgBBBYAgMACAEBgAQAILAAAgQUAgMCCUllFCCCwAAAEFgAAAgsAQGABAAgsAAAEFpTKKkIAgQUAILAAABBYAAACCwBAYAEAILCgVFYRAggsAACBBQCAwAIAEFgAAAILAACBBaWyihBAYAEVW9H432pFoVt2uZ0bBBYwcCmypsDfakmLvrbUGQACC6jYsobHxZo8XeAEVmelXRsEFtAZMVLm72QCgMACPBULLIEFAguot3mN/51MABBYQMXuL/B3mmkCdmwQWICn4oH8nUwAEFiAp2KBtVX32bFBYAECq0qrM0ti2rGhkw0yAuh4w7I4I4v6je7Nfr36+m2yOEOLmsCavMCV3KGTOYIFnW91bi3sN7q+l1+/IrcXNoHb5BUILGCgXdf43+fawiZwjZ0aBBYw0MrKi+5eH8EqLzGvtVNDZ3MOFpRgWBZkVDG/zZ05sNf/ZtssyIhiJrAyY7PCbg2dzBEsKMHq3FDQb9OXozfLc3NBE7hRXoHAAurgkoJ+l/80ATs0dDpvEUIZtsvcQt4kfDB7p7sP/25MHi/kTcKVmZBFdmnobI5gQRmW5bJCfpPv9imvkoX5eSETuExegcAC6uJ7RfwW3flBwyeQfNfODJ3PW4RQzsulh7NHx/8W1+eYPv/bYXk0u3T8BB7LxKyxO0Pn/0kGytCVLxXwW3yxH/92df61gAmcL6+gBI5gQTlGZlYmdPRvMD0v6+MZWOvskNkZ09ETmJdJWWpXhs7nCBaUY2Uu6PDf4PP9yqtkcS7s8AmcL6+gDI5gQUlG5eHs2LH3/t4ckK5+fo+xmZ3tO3YCCzIxS+zGUIIhRgAFWZXBOb5j7/0Hc0+/v8eKbJNXd+wEzi3uMxUBoAjDc0+6O/J2VUUT2CYPdegE7s4wOzAA1NPR6erAuFiZfSqbwNSOzKuuHGvnBYD6+kEH5sVnK53AzzpwAt+x40JJnOQO5ZmQezK6o+7xg5mSFRV+v4mZ0WGfzLgg++UJuy4A1NlJHfU24aocVvkE3tFhbw++2U4LAPV3QQflxUdaMoFvdtAEzrPDAkAnGJZbOiQurmjRqQojM71DJnBrhtthAaAzvCgLOyAuZrXwbLH9sqQDJvBkdrezAkDnODzLah4X87JvSydwXFbWfALLcqQdFQA6y8lZXeu4OKLlEzgta2t9ev/r7aQA0HneU9v1hO2Ki7NqvHbwb+2gANCZPlnLuFiTd7VtAv9Y07z6iJ0TADrX+2r3RuHKvK2tEzindm8UrskZdkwA6GxvzooaxcXCHN32CUzLqlqdffYGOyUAdL5jsqgmcfF4DhqQCZxUmzWVC6wcBIBS7Je7ahAXv80LB2wCB+eBGkzgtrzYzggA5Rg5wB+g05ULMmxAJ7B9fjjAeXVRRtgRAaA07x6wq5s/mRNrMYH3DNhbhU/lVDsgAJTpJblqAOLi4kyozQT2z/UDMIFLfSQOAJTt5MxpY1o8kBNqN4FTMreNE3iwJkfvAICWGpXz83Qb0mJJPpXhtZzA6FzYluuDLc1nnHcFAM2xS77Q0vORFueCjK/1BPbMBVne4glMsKMBQNPslHOzsAVpMS/nZkyjM7NzJgAAtMDonJHfVvah0GtyVaZl246awNiclVsq/BicqzIt29mxAIAX5R9yXz/TYno+ml07dgJ75/N5qJ8TuKOjJwBUZpARABuYkKNyfE7Inr36V4/nxlydK/NoARPYNUfm+Ly+lxdVKGkCgMACWmTvTM4+z9xGb/Ir5mdm7sv9mZnpmV3gBF6aA7J39s0+2Sc7bPIr5uW+zMz9mZk78ohdBhBYQG9sm1EZldEZleF5OkvzVBZnWVY0aALbZbuMypiMyrCszNIszuIszUq7BgAAAAAAAAAAAAAAAAAAAAAAAAAAAAAAAAAAAAAAAAAAAAAAAAAAAAAAAAAAAAAAAAAAAAAAAAAAAAAAAAAAAAAAAAAAAAAAAAAAAAAAAAAAAAAAAAAAAAAAAAAAAAAAAAAAAAAAAAAAAAAAAAAAAAAAAAAAAAAAAAAAAAAAAAAAAAAAAAAAAAAAAAAAAAAAAAAAAAAAAAAAAAAAAAAAAAAAAAAAAAAAAAAAAAAAAAAAAAAAAAAAAAAAAFBX/x8zsHQEf07hlgAAACV0RVh0ZGF0ZTpjcmVhdGUAMjAxOC0wNy0wNFQwMDoyNzoyNSswMDowMPeYNGEAAAAldEVYdGRhdGU6bW9kaWZ5ADIwMTgtMDctMDRUMDA6Mjc6MjUrMDA6MDCGxYzdAAAAAElFTkSuQmCC;" vertex="1" parent="1">
          <mxGeometry x="370.9" y="230" width="28.19" height="30" as="geometry" />
        </mxCell>
        <mxCell id="ia1kYXbHXBEfgBKJZjug-36" value="" style="shape=image;verticalLabelPosition=bottom;labelBackgroundColor=#ffffff;verticalAlign=top;aspect=fixed;imageAspect=0;image=data:image/png,iVBORw0KGgoAAAANSUhEUgAABLAAAAT9CAQAAADy7mL2AAAABGdBTUEAALGPC/xhBQAAACBjSFJNAAB6JgAAgIQAAPoAAACA6AAAdTAAAOpgAAA6mAAAF3CculE8AAAAAmJLR0QA/4ePzL8AAAAHdElNRQfiBwQAGxlnRzg0AAAqXklEQVR42u3dabRcdZ3v4W/mAAEzMCQgkKgMAgkgqEwiCEpEUFsFRaO20uAALffe5XRd2he1u6/S6GqW3Fa01XakF4oo2CLKIMikoETCFIaQgEiQTGQmwzn3RUiTQIYz7Kqz67+fp96wFifn1PntXac+tWv/dyUAAAAAAAAAAAAAAAAAAAAAAAAAAAAAAAAAAAAAAAAAAAAAAAAAAAAAAAAAAAAAAAAAAAAAAAAAAAAAAAAAAAAAAAAAAAAAAAAAAAAAAAAAAAAAAAAAAAAAAAAAAAAAAAAAAAAAAAAAAAAAAAAAAAAAAAAAAAAAAAAAAAAAAAAAAAAAAAAAAAAAAAAAAAAAAAAAAAAAAAAAAAAAAAAAAAAAAAAAAAAAAAAAAAAAAAAAAAAAAAAAAAAAAAAAAAAAAAAAbTPICIDa2TkTMzF7ZHzGZVzGZXRGJtk+Q5OsyrIky7Mw8zM/8zI3czI7D2eRsQECC2BjO+XATMnkTMm+2bYP/35R7s2d+VNm5M4sNk5AYAFN/hu0X47IkTkie1X2Pdfm7tyYW3JjZhswANAko3JyLsqj6W7h7aFclFOyvWEDAKXbOR/KdVnT0rTa8LY8P8s7ZRYAUKbtc3qubmNabZxZl+YtGWYjAADlOCQXZfGApNWGtwW5KAfYGABApxuWd+cPA55Wz966cnVOtMQHAOhUO+ScPFKjuHr2dn/OyTY2EADQWUbnczV4U3BLt8dyVobbUABAZ9gun8iCWsfV+tsjOScjbDAAoN6G5Mw80RFxtf42MyfbbABAfR2T6R0VV+tv12SKjQcA1M/4XNKRcbXutjpfznY2IgBQJ6dkXgfn1brbwznBhgQA6mFSrun4uFp/+27G2KAAwEA7pUNWDPZ8ZeExNioAMHB2yPeKiqv1V3u/wBWyAICBcUhmF5hX6263ZncbGABot2lZVmxedac7T+a1NjIA0D7D89Wi42r9pRs+alMDAO0xJtc1IK/W3b7tbCwAoPUm5Z7G5NW6q7yPttEBgFZ6RYd90mAVt7uyhw0PALTK0XmqcXnVne7MyV42PgDQClOzvJF51Z3uzPVx0ABA9d6cpxubV93pzrwcYicAAKr0uqxsdF51pzsLc7AdAQCoymuyovF51Z3u/DUvtTMAWzPICIAeOCK/ynbGkCR5NEdntjEAAgvon31zU8Yaw397KIdlnjEAmzfYCICt2DGXy6uNvDg/yQhjADZviBEAW7RNfpkDjeE59sxeudQYAIEF9MWgfC9TjWETDsia3GAMAEDvfdS6wc3e1uZEOwiwuVenAJtzbH6VocawWQvz8jxkDIDAAnput/wxOxvDFk3P4VlpDMBzOQcL2LTB+UkmG8NWjM8LcqUxAAA983FnWfXo1pWT7CzAc3mLENiUg3NrhhtDjzyZKZlrDMCGXGgUeL4R+Z686rGd8jVDAAQWsDWfyv6G0AtvytsMAdiQtwiB59o3030QTC/NzX5ZaAzAelYRAhsbnMsz0Rh6aVR2zOXGADz7pxRgQ6fnMEPog/fnKEMA1vMWIbCh7XN/xhtDn/whr0iXMQCJI1jAxv5BXvXZIXmXIQDrOIIFPOvFudvp7f3wWPbJMmMAnOQObOjCHGwI/bBDluRGYwAcwQKetV9mOG2gnxZlUhYZA+AIFrDev7m8aL+NzIpcbwyAI1jAOgfmDn8RKvBUJrnkKODtAGCdT8irSrwgHzQEwB9UIElemFkZZgyVeCITs9IYoNkcwQKS5H/Iq8rsktMMAZrOESwg2T6P5gXGUJm7MiXdxgBN5ggWkLxLXlXqgBxpCCCwgKY7wwhMFKiStwiBAzPdECq2Iru5WAM0mSNYwAeMoHLb5J2GAE3mCBY03bDMzVhjqNytOdwQoLkcwYKme528aolXZqIhgMACmupUI2iJQTnFEKDJfwKAJhuRJ1yioUVuz8sNAZrKESxotmPlVcscmt0NAQQW0ESvN4IWmmoEILAAgYXpApVwDhY02aTMMoQWWpJxWW0M0ESOYEGTeQurtbZ3LSwQWEDzvMoIWuwoIwCBBTTNkUZgwkArOAcLmmvXPGYILbYo49JlDNA8jmBBczm60nqjs78hgMACmuQQI2iDlxkBCCygSaYYQRtMNgIQWIDAQmAB/eYkd2iqsZlvCG0wNxMMAZrHESxoKidft8f4jDUEEFhAU0wyApMGBBbgad+kAYEF1NpEIxBYgMACBJbAAgQWUGu7GkGbWEUIAgtojHFGYNKAwAKqfeyPNgSBBQgsoEpjMsQQ2mRHIwCBBTSDi1+aNSCwgIqNNIK2GepoIQgsoBmGG0EbjTACEFiAp3xMGxBYQK85gmXagMACPPY72FAjAH9kgSZYbQRt9LQRgMACPOVj2oDAAnptlRGYNiCwAE/5pg0ILKDWFhtBG2fdbQggsIAmmGcEbTPfCEBgAc2wMssMQcwCAguoluMqJg0ILKBiTxpBmziCBQILaIxHjKBN5hgBCCygKWYbQZs8bAQgsACBhcACBBbgad+kAYEF1MH9RtAWT+dRQwCBBTTFg1luCG1wT9YYAggsoCnW5h5DaIM7jQAEFuCpn2rNMAIQWIDAQmABAgvos1uMoOW68jtDAIEFNMkdTnNvuRl5yhBAYAFNsjq3G0KL3WQEILAAT/+YMCCwgH65zghaqju/MQRopkFGAA02IvMyyhhaZnoONgRoJkewoMmedoSlpa40AhBYQBP90ghMF6ietwih2SZmlr8DLbIg47PaGKCZHMGCZpud3xtCi/xEXoHAAprqEiMwWaBq3hqApnth5nip1QLzMiFrjAGayp9VaLo/52ZDaIEfyysQWECTfcsITBWolrcIgW3yl4w2hkrdmQMNAZrMESxgRS42hIp9wwig2RzBApKDcochVJqsu2WhMUCTOYIFJNNzvSFU6NvyCppuiBEASebnNEOoSFemZYExQLM5ggUkyc9zryFU5Kd5wBCg6RzBAtZZlZMNoRJ/l0cNAZrOSe7AOsMyM5OMod9+ndcZAuAIFrBOV5bljcbQb9PyZ0MAHMECnn3BdXf2MYZ++bk3WoF1f1AB1unOorzFGPqhK+/M48YAWEUIbOiH+b0h9MN380dDABJvEQIbOzw3+bvQR0uzT/5iDEDiCBawsVvyn4bQR/8sr4D1vFIFNrZ77skoY+i1h3JAVhoDsI6T3IGNLc6KTDWGXntH7jcEAGBzBuemdLv16vZtuw2wIW8RAs93QP6Q4cbQY/OyX540BuBZ3iIEnu+vGZRjjaHH3pPbDQEA2JrB+Y03/np4+4bdBXgubxECm7Z7/pQxxrBVD+XgLDEGYGPeIgQ2bXEezVuNYStW5cTMNgZAYAE9NSPjc6gxbNFH8jNDAAB6Y1h+6xyrLdy+bxcBNs05WMCWjM8fM8EYNunOHJ7lxgBsis8iBLZkbk7N08awCU/kTfIKEFhA39yY96TbGJ5jRf7Gye3A5jnJHdiau7MmrzGGDXTltPzaGACA/vm6U9o3uJ1jhwAA+m9wfiCsnrn9g90BAKjGkFwirtKdf7UrAADVGZGrGp9X/+biNgBAtYbnJ43OqwvlFQBQvSH5TmPz6gs2PwDQqsT69wbGVVc+ZtMDAK10TroalVcrM81GBwBa7dSsaExezc+rbXAAoB2OybxG5NXM7G1jAwDt8sL8rvi8uiKjbWgAoJ1G5BtFn9j+hQy2kQGA9js9S4vMq7/ktTYuADBQJuWm4vLqlxlvwwIAA2lY/m/WFBNXy/JBmxQAqIODcnsRefUbqwYBgPoYmk90+NWxFuRMnzYIANTN3rmiQ+NqTb6enWxAAKCejsudHfjG4EE2HABQZ0NzVv7SMXF1d95ikwEAnWB4zszjtY+rh3NmhthYAEDnGJWP57HaxtU9eV+G2kgAQOcZnlPy+9rF1Y05xZErAKCTDcpr86M8XYu0Wpyv5xCbBAAow875aO4d0Li6JadnlA0BAJRm/5ybmQOwUvBcV2gH2sc1i4GBcGjemKk5JINb/HNW5aZcmZ/lfiMHBBbQDDvlhByfI7JX5d+5K3flt7k612SJMQMCC2iiXXJEjsyBmZxd+vmd5uSu3JGbc3OeMlZAYAEkyc6Zkn0yKRMzKXtm3Fa/vjtPZE4ezsOZnXsyQ1YBAgtgy4ZmXMZlXMZmeAZl9DNJtSjJiizM/MzPvHQbEwAAAAAAAAAAAAAAAAAAAAAAAAAAAAAAAAAAAAAAAAAAAAAAAAAAAAAAAAAAAAAAAAAAAEC1BhkBFGp0BmWbjEyyQ4YYR+2syrIky7Iqa7PYOEBgAXUzJLtlYiZmUnbPjhn3zE1UdY7VmZf5mZ/5eSJ/zuzMzsN53FhAYAHtj6q9MiVTMjkHZPcMM5DirMzDuSt3ZkbuzOx0GwgILKB1dsuROTKHZ3JGGkZjLM703JybckvmGwYILKA6u2dqjslR2cMoGqw79+WmXJNfCy0QWEB/DM1hOSnH52Uerfy3rtyRq3N1fpM1hgECC+iNkZmaU3NStjcKNuOv+UkuyQ1ZaxQgsICtGZ6pOSVvzA5GQQ88kR/nR/ltuowCBBawaXvn/XlfdjYIeunP+UG+mjkGAQIL2NCIvDFn5jiPSvqsK9fm67nMmVkgsIAk2TkfztkZZxBUYHa+louyyCBAYEGT7ZWzc0a2MQgqtCTfzpfyiEGAwIImemX+T6Z6HNISq3NxPp8HDQIEFjTJ5Hwmb/MYpKW6cmk+JbJAYEEzTMln8yaPP9pidb6Vf8qjBgECC0q2Yz6TszLEIGijVflaPp0lBgHt4o88tNPwnJ2f5ugMNgra/Lf+lXlvluaOdBsGtIMjWNA+b8n5mWQMDKDf55zcagwgsKAUE/KVvNUYGHDd+UY+lsUGAQILOv9xdkb+xScLUhuP5+9zqTGAwIJO9tL8e44wBmrmR/n7PGEM0CpOtYXWvoQ5M7fJK2rolMzIG40BWvfnH2iVnfPNnGQM1Nj38qEsMwYQWNA5Tsi3M8EYqLn7Mi1/MAaomutgQSsMzT/nq9neIKi9HfP+rMpNBgECC+pup/w073Z8mA4xOMdnr/wyq40CquMpAKp2ZC7JrsZAh/lT3pqHjAGqe+UCVOnDuU5e0YEOzG05wRigKt4ihOoMyrk5z6OKDrVNTsv83GYQILCgTrbLJfmAMdDBBufEjM2vfCA0VPGKG6jC+FyelxsDBbgs07LcGEBgwcB7ca7ORGOgEDflpCwyBhBYMLD2zdXZzRgoyB05IU8aA/SdVYTQXy/LDfKKwhycG/JCY4C+cwQL+ucVuTJjjYECzcnxedAYQGBB+x2WX/lAHIr15xydh40BBBa010G5NmOMgYI9kqMzxxhAYEH7TM51GWcMFO6BHJ25xgACC9pjr9yQ8cZAA8zIsZlvDCCwoPV2yy3Z3RhoiFvzmqwwBugNl2mA3ts+P5dXNMhhucQHq0HveMhA7x81l+TVxkCj7J0dcpUxgMCC1rkw0wyBxjksi/I7Y4Cecg4W9M7Hcp4h0EhdeVN+bgwgsKB6x+Uqx31prCV5Ze41BhBYUK09c3t2NAYa7L68MouNAbbOKkLoqZG5VF7RcPvmO16YQ094swN66luZaghIrCzLzcYAW+OVCPTMe/MfhgBJ1uRVudUYQGBB/70od2QHY4Akyawc7Ews2DJvEcLWDc0VeYkxwDPGZNf81BhAYEH/fC7vNATYwEF5IDOMATbPW4SwNYfnt16KwHMsygF5zBhgc1ymAbZsRL4hr+B5RuciQwCBBX316exvCLAJb8jbDQE2x1uEsCVTcnuGGQNs0rzslyeNATbFWx+wpcfHFdndGGAzts0uVhPCpnmLEDbvwznUEGAL3pNjDAE2xVuEsDlj8kDGGQNs0d05KGuMAZ7LW4SwOefn1YYAW7FzHs/txgDP5QgWbNp++VOGGgNs1YLsnfnGABtzBAs27WIfjgM9sk1G5JfGABtzBAs2ZWquNAToodXZN7OMATbkCBZsyvfzQkOAHj+T7JCfGQNsyBEseL435zJDgF5Ym8m51xhgw9cdwMYG5+KMNwbo1aNmXC41BtjwQQFs7NQcaAjQ68fNFEOAZzmCBRsblO87fgV9eOSMzY+NAZ59SAAbOjH/ZQjQB2uzTx4yBljHESzY2EWZZAjQB4MzyOVNYD1HsGBDB2a6IUAfLc+emWcMsO4VB/CsTxoB9Nm2+aAhwDqOYMGzds0cnz8I/fB49sxqYwBHsGBD75dX0C8TcrIhgMCCjR8NpxsC9NMZRgACCzb0ukw0BPA4AoEFVTrTCKCCZ5X3GwI4yR3W2zl/zjBjgH57LHukyxjwWgNIklPkFVRit7zKEEBgwTpvNwLwaIKqeIsQkmTXPOrlBlRkXiZkjTHQbJ5SYN0rbo8FqMqOeY0hILCA5FQjgEpfskDDeYsQkvH5i8cCVOjJjLeSkGZzBAuSqfIKKrVTDjEEBBY03euNADyqQGBBlYbkeEMAgQUCC6p0RMYaAlTsFdnZEBBY0GSvMwJowbOLSzUgsKDRfKwHtMJRRoDAguYalpcbAggsEFhQpUOyrSFAC0zOaENAYEFTHWkE0KLnl8MNAYEFAgvw6AKBBZU41AigRZzfSIP5gBCabWzmGwK0yNxMMASayhEsmu1AI4CWGe9iowgsaKYpRgAeYSCwwJ9/8AgDgQW1NtkIQGCBwIJq7WUE0EIvMQIEFjTPGFeahpaaZAQILPDHH6jWhGxjCAgsaJqJRgAtNSh7GgICC5rGESzwKAOBBRXz2hpabaIRILCgaXYxAvAoA4EF1drRCKDFxhkBAgsEFuBRBgILvLYGjzIQWOBPPzSJI1gILGiYbTPSEMDLGBBYUCVXmIbW8zIGgQUNM8IIwOMMBBZUa7gRgMcZCCzwhx86jSNYCCzwhx+o/FlmqCEgsKBJhhkBeCkDAguqNcgIwCMNBBYAgMACABBYAAAILAAAgQUAILAAABBYAAACCwBAYAEAILAAAAQWAIDAAgBAYAEACCwAAIEFACCwAAAQWAAAAgsAQGABACCwAAAEFgCAwAIAQGABAAgsAACBBQAgsAAAqNJQI4Ca+lTm9+jr3pITDKvRe8DknG1YILCAnrk4s3v0dS8SWIX6Yeb06OtOElhQP94iBAAQWAAAAgsAQGABACCwAAAEFlCRbiMAEFgAAAILAACBBQAgsAAABBYAAAILCmUVIYDAAgAQWAAACCwAAIEFACCwAAAQWFAqqwgBBBYAgMACAEBgAQAILAAAgQUAgMCCUllFCCCwAAAEFgAAAgsAQGABAAgsAAAEFpTKKkIAgQUAILAAABBYAAACCwBAYAEAILCgVFYRAggsAACBBQCAwAIAEFgAAAILAACBBaWyihBAYAEACCwAAAQWAIDAAgAQWAAACCwolVWEAAILAEBgAQAgsAAABBYAgMACAEBgAQAILAAAgQUAgMACABBYAAACC2gxH5UDILAAAAQWAAACCwBAYAEACCygNpzkDiCwAAAEFgAAAgsAQGABAAgsAAAEFpTKKkIAgQUAILAAABBYAAACCwBAYAEAILCgVFYRAggsAACBBQCAwAIAEFgAAAILAACBBaWyihBAYAEACCwAAAQWAIDAAgAQWAAACCwolVWEAAILAEBgAQAgsAAABBYAgMACAEBgQamsIgQQWAAAAgsAAIEFACCwAAAEFgAAAgtKZRUhgMACABBYAAAILAAAgQUAILAAABBYUCqrCAEEFgCAwAIAQGABAAgsAACBBQCAwIJSWUUIILAAAAQWAAACCwBAYAEACCwAAAQWlMoqQgCBBQAgsAAAEFgAAAILAEBgAQAgsKBUVhECCCwAAIEFAIDAAgAQWAAAAgsAAIEFpbKKEEBgAQAILAAABBYAgMACABBYAAAILCiVVYQAAgsAQGABACCwAAAEFgCAwAIAQGBBqawiBBBYAAACCwAAgQUAILAAAAQWAAACC0plFSGAwAIAEFgAAAgsAACBBQAgsAAAEFhQKqsIAQQWAIDAAgBAYAEACCwAAIEFAIDAglJZRQggsAAABBYAAAILAEBgAQAILAAABBaUyipCAIEFACCwAAAQWAAAAgsAQGABACCwoFRWEQIILAAAgQUAgMACABBYAAACCwAAgQWlsooQQGABAAgsAAAEFgCAwAIAEFgAAAgsKJVVhAACCwBAYAEAILAAAAQWAIDAAgBAYEGprCIEEFgAAAILAACBBQAgsAAABBYAAAILSmUVIYDAAgAQWAAACCwAAIEFACCwAAAQWFAqqwgBBBYAgMACAEBgAQAILAAAgQUAgMCCUllFCCCwAAAEFgAAAgsAQGABAAgsoDac5A4gsAAABBYAAAILAEBgAQAILAAABBaUyipCAIEFACCwAAAQWAAAAgsAQGABACCwoFRWEQIILAAAgQUAgMACABBYAAACCwAAgQWlsooQQGABAAgsAAAEFgCAwAIAEFgAAAgsKJVVhAACCwBAYAEAILAAAAQWAIDAAgBAYEGprCIEEFgAAAILAACBBQAgsAAABBYAAAILSmUVIYDAAgAQWAAACCwAAIEFACCwoABrC7l/TnK3J7t/ILCgNpbV/P4tsYnokaU1z6sVNhECCzwtuX/Yk71QAIEFhT4trcgam4gCEsYLBQQWNC6wVtX43i3s8Vc6B6vpFtT63i20gRBY0CzdmVXje/dAj79ykE3Z+MCaX8SeDAILCnF/je/bfTYPRezJ99s8CCzwtFQfM3v8ld4iZGaN75sjWAgsaJy73TeKMMOeDAIL6uOG2t6zVbnJ5qHHrq/tPVuaP9o8CCxomlmZU9N79rvaXwaVOrmjtqe535jVNg8CC7zyr4trbRp6oau2R2Ovt3EQWNBEV9b0fv2iF1/rJHeS//IIA4EF9XF5La+C/UB+b9PQKz/K8hreq3vzJ5sGgQVNtDw/reG9+o4NQy8tzuU1vFffs2EQWNBU36/dPeqq4X2i/r5bwz35hzYLAgua6te1u07PZbVd20idXZW7anaPLrcnI7CgubrzpZrdoy/YKPRBV86r2T06z0ZBYEGTfb9Wr7N/kdttEvrkh7X6WJprc4tNgsCCJludL9bmvnTl3F7/G5dpYJ21+aca3ZvP2iAILGi6r2d6Te7JN3KbzUGffbc2F/a8uMYfRAUCC9r2yv+sWhwHmp9P2xj0Q3fOrsVH0yzPJ20MBBaQ3FyLRe4fzbw+PanCenflghrci3PziE2BwAKS5OzcP8D34JL8R5/+3SAbjw18KrcO8D24Pl+2GUBgwTpL866sGsCf/2DOsBGowOpMy1MD+POfzDuz1mYAgQXr3Z7/PWA/e3lOyeI+/ltvEbKxh3L6gO0VXfnb/MUmAIEFG/pyvjIgP3dtptVmHSMluDQfGaCf/L/yC+MHgQXP9T/zk7b/zO58IJcZPZW6cECuo35eLU6xB4EFtbM209p8JaHufDzf7Od3gOf7ZL7e5p/4HRdnAIEFm7MiJ7TxKNbafDDn9/N7WEXIpsP7g229mvr/y/vFPggs2Lync2q+1aaf9I62H2WgSYl1bj6Srrb8rC/m7Db9JBBY0LHW5u/ymZYvNZ+Vo/LjSp5GYXO+kr/Jghb/jKWZ5s1BEFjQs2j5xxyXx1v4E36WQ3O7QdNyl+eg3NTC739fDs8PjBkEFvTU9TkkV7TkOy/Kh/LmLDRi2uLRHJvP5+kWfOeufDWH5i4jBqC3Ts7sdFd6uyS7VHoPT6v4/rnV5bZnpfvJS3Jlxfdveg73BwKAvtoun8uiip6Srs+rKr9/75AiAquH3pYZFd23R3NWhvjjAED/bJ9zMrefT0k35riW3DdHsARWzw3Kybm1n/drTs7JSH8UAKjqSNZ7c03W9uEJ6bH8Sya37H45giWweuvIXJQFfbhHK3Np3pRh/hhAT17NAL2xR96e4/KqbNujr74n1+SKXNvSSz68IxfbLEWamDkt/O4j84acmNdkYo++ekF+k1/lRy2/5AMILGi04Tksh2fvvDR7Z9xz/t+qPJiZmZk7c13mtuG+CCyB1R8vyquzf16avTPpeWdVPZ77cn/uzY25w2VEoXeGGgH0warckBue+e/tMiqjMjrJiizNkixq86U/XWiU/piVWc/815DskBdkVEakK09lcZZlhfGAwIKBsizL8sQA/nzHoanG2ix0dTYQWMA6ZR7B6srsHn/tkBaeDg4gsIBiLMqLe/y1u+YxAwPqxUflAAAILAAAgQUAILAAABBYAAACC6iIC40CCCwAAIEFAIDAAgAQWAAAAgsAAIEFpbKKEEBgAQAILAAABBYAgMACABBYAAAILCiVVYQAAgsAQGABACCwAAAEFgCAwAIAQGBBqawiBBBYAAACCwAAgQUAILAAAAQWAAACC0plFSGAwAIAEFgAAAgsAACBBQAgsAAAEFhQKqsIAQQWAIDAAgBAYAEACCwAAIEFAIDAglJZRQggsAAABBYAAAILAEBgAQAILAAABBaUyipCAIEFACCwAAAQWAAAAgsAQGABACCwoFRWEQIILAAAgQUAgMACABBYAAACCwAAgQWlsooQQGABAAgsAAAEFgCAwAIAEFgAAAgsKJVVhAACCwBAYAEAILAAAAQWAIDAAmrDSe4AAgsAQGABACCwAAAEFgCAwAIAQGBBqawiBBBYAAACCwAAgQUAILAAAAQWAAACC0plFSGAwAIAEFgAAAgsAACBBQAgsAAAEFhQKqsIAQQWAIDAAgBAYAEACCwAAIEFAIDAglJZRQggsAAABBYAAAILAEBgAQAILAAABBaUyipCAIEFACCwAAAQWAAAAgsAQGABACCwoFRWEQIILAAAgQUAgMACABBYAAACCwAAgQWlsooQQGABAAgsAAAEFgCAwAIAEFgAAAgsKJVVhAACCwBAYAEAILAAAAQWAIDAAgBAYEGprCIEEFgAAAILAACBBQAgsAAABBYAAAILSmUVIYDAAgAQWAAACCwAAIEFACCwAAAQWFAqqwgBBBYAgMACAEBgAQAILAAAgQUAgMCCUllFCCCwAAAEFgAAAgsAQGABAAgsAAAEFpTKKkIAgQUAILAAABBYAAACCwBAYAEAILCgVFYRAggsAACBBQCAwAIAEFgAAAILAACBBaWyihBAYAEACCwAAAQWAIDAAgAQWAAACCwolVWEAAILAEBgAQAgsAAABBYAgMACAEBgQamsIgQQWAAAAgsAAIEFACCwAAAEFgAAAgtKZRUhgMACABBYAAAILAAAgQUAILAAABBYUCqrCAEEFgCAwAIAQGABAAgsAACBBQCAwIJSWUUIILAAAAQWAAACCwBAYAEACCwAAAQWlMoqQgCBBQAgsAAAEFgAAAILAEBgAQAgsKBUVhECCCwAAIEFAIDAAgAQWAAAAgsAAIEFpbKKEEBgAQAILAAABBYAgMACABBYAAAILCiVVYQAAgsAQGABACCwAAAEFgCAwAIAQGBBqawiBBBYAAACCwAAgQUAILAAAAQWUBtOcgcQWAAAAgsAAIEFACCwAAAEFgAAAgtKZRUhgMACABBYAAAILAAAgQUAILAAABBYUCqrCAEEFgCAwAIAQGABAAgsAACBBQCAwIJSWUUIILAAAAQWAAACCwBAYAEACCwAAAQWlMoqQgCBBQAgsAAAEFgAAAILAEBgAQAgsKBUVhECCCwAAIEFAIDAAgAQWAAAAgsAAIEFpbKKEEBgAQAILAAABBYAgMACABBYAAAILCiVVYQAAgsAQGABACCwAAAEFgCAwAIAQGBBqawiBBBYAAACCwAAgQUAILAAAAQWAAACC0plFSGAwAIAEFgAAAgsAACBBQAgsAAAEFhQKqsIAQQWAIDAAgBAYAEACCwAAIEFAIDAglJZRQggsAAABBYAAAILAEBgAQAILAAABBaUyipCAIEFACCwAAAQWAAAAgsAQGABACCwoFRWEQIILAAAgQUAgMACABBYAAACCwAAgQWlsooQQGABAAgsAAAEFgCAwAIAEFgAAAgsKJVVhAACCwBAYAEAILAAAAQWAIDAAgBAYEGprCIEEFgAAAILAACBBQAgsAAABBYAAAILSmUVIYDAAgAQWAAACCwAAIEFACCwAAAQWFAqqwgBBBYAgMACAEBgAQAILAAAgQUAgMCCUllFCCCwAAAEFgAAAgsAQGABAAgsAAAEFpTKKkIAgQUAILAAABBYAAACCwBAYAEAILCgVFYRAggsAACBBQCAwAIAEFgAAAILAACBBaWyihBAYAEACCwAAAQWAIDAAgAQWAAACCwolVWEAAILAEBgAQAgsAAABBYAgMACAEBgQamsIgQQWAAAAgsAAIEFACCwAAAEFgAAAgtKZRUhgMACABBYAAAILAAAgQUAILCA2nCSO4DAAgAQWAAACCwAAIEFACCwAAAQWFAqqwgBBBYAgMACAEBgAQAILAAAgQUAgMCCUllFCCCwAAAEFgAAAgsAQGABAAgsAAAEFpTKKkIAgQUAILAAABBYAAACCwBAYAEAILCgVFYRAggsAACBBQCAwAIAEFgAAAILAACBBaWyihBAYAEVW9H432pFoVt2uZ0bBBYwcCmypsDfakmLvrbUGQACC6jYsobHxZo8XeAEVmelXRsEFtAZMVLm72QCgMACPBULLIEFAguot3mN/51MABBYQMXuL/B3mmkCdmwQWICn4oH8nUwAEFiAp2KBtVX32bFBYAECq0qrM0ti2rGhkw0yAuh4w7I4I4v6je7Nfr36+m2yOEOLmsCavMCV3KGTOYIFnW91bi3sN7q+l1+/IrcXNoHb5BUILGCgXdf43+fawiZwjZ0aBBYw0MrKi+5eH8EqLzGvtVNDZ3MOFpRgWBZkVDG/zZ05sNf/ZtssyIhiJrAyY7PCbg2dzBEsKMHq3FDQb9OXozfLc3NBE7hRXoHAAurgkoJ+l/80ATs0dDpvEUIZtsvcQt4kfDB7p7sP/25MHi/kTcKVmZBFdmnobI5gQRmW5bJCfpPv9imvkoX5eSETuExegcAC6uJ7RfwW3flBwyeQfNfODJ3PW4RQzsulh7NHx/8W1+eYPv/bYXk0u3T8BB7LxKyxO0Pn/0kGytCVLxXwW3yxH/92df61gAmcL6+gBI5gQTlGZlYmdPRvMD0v6+MZWOvskNkZ09ETmJdJWWpXhs7nCBaUY2Uu6PDf4PP9yqtkcS7s8AmcL6+gDI5gQUlG5eHs2LH3/t4ckK5+fo+xmZ3tO3YCCzIxS+zGUIIhRgAFWZXBOb5j7/0Hc0+/v8eKbJNXd+wEzi3uMxUBoAjDc0+6O/J2VUUT2CYPdegE7s4wOzAA1NPR6erAuFiZfSqbwNSOzKuuHGvnBYD6+kEH5sVnK53AzzpwAt+x40JJnOQO5ZmQezK6o+7xg5mSFRV+v4mZ0WGfzLgg++UJuy4A1NlJHfU24aocVvkE3tFhbw++2U4LAPV3QQflxUdaMoFvdtAEzrPDAkAnGJZbOiQurmjRqQojM71DJnBrhtthAaAzvCgLOyAuZrXwbLH9sqQDJvBkdrezAkDnODzLah4X87JvSydwXFbWfALLcqQdFQA6y8lZXeu4OKLlEzgta2t9ev/r7aQA0HneU9v1hO2Ki7NqvHbwb+2gANCZPlnLuFiTd7VtAv9Y07z6iJ0TADrX+2r3RuHKvK2tEzindm8UrskZdkwA6GxvzooaxcXCHN32CUzLqlqdffYGOyUAdL5jsqgmcfF4DhqQCZxUmzWVC6wcBIBS7Je7ahAXv80LB2wCB+eBGkzgtrzYzggA5Rg5wB+g05ULMmxAJ7B9fjjAeXVRRtgRAaA07x6wq5s/mRNrMYH3DNhbhU/lVDsgAJTpJblqAOLi4kyozQT2z/UDMIFLfSQOAJTt5MxpY1o8kBNqN4FTMreNE3iwJkfvAICWGpXz83Qb0mJJPpXhtZzA6FzYluuDLc1nnHcFAM2xS77Q0vORFueCjK/1BPbMBVne4glMsKMBQNPslHOzsAVpMS/nZkyjM7NzJgAAtMDonJHfVvah0GtyVaZl246awNiclVsq/BicqzIt29mxAIAX5R9yXz/TYno+ml07dgJ75/N5qJ8TuKOjJwBUZpARABuYkKNyfE7Inr36V4/nxlydK/NoARPYNUfm+Ly+lxdVKGkCgMACWmTvTM4+z9xGb/Ir5mdm7sv9mZnpmV3gBF6aA7J39s0+2Sc7bPIr5uW+zMz9mZk78ohdBhBYQG9sm1EZldEZleF5OkvzVBZnWVY0aALbZbuMypiMyrCszNIszuIszUq7BgAAAAAAAAAAAAAAAAAAAAAAAAAAAAAAAAAAAAAAAAAAAAAAAAAAAAAAAAAAAAAAAAAAAAAAAAAAAAAAAAAAAAAAAAAAAAAAAAAAAAAAAAAAAAAAAAAAAAAAAAAAAAAAAAAAAAAAAAAAAAAAAAAAAAAAAAAAAAAAAAAAAAAAAAAAAAAAAAAAAAAAAAAAAAAAAAAAAAAAAAAAAAAAAAAAAAAAAAAAAAAAAAAAAAAAAAAAAAAAAAAAAAAAAFBX/x8zsHQEf07hlgAAACV0RVh0ZGF0ZTpjcmVhdGUAMjAxOC0wNy0wNFQwMDoyNzoyNSswMDowMPeYNGEAAAAldEVYdGRhdGU6bW9kaWZ5ADIwMTgtMDctMDRUMDA6Mjc6MjUrMDA6MDCGxYzdAAAAAElFTkSuQmCC;" vertex="1" parent="1">
          <mxGeometry x="385.81" y="220" width="28.19" height="30" as="geometry" />
        </mxCell>
        <mxCell id="ia1kYXbHXBEfgBKJZjug-37" value="" style="shape=image;verticalLabelPosition=bottom;labelBackgroundColor=#ffffff;verticalAlign=top;aspect=fixed;imageAspect=0;image=data:image/png,iVBORw0KGgoAAAANSUhEUgAABLAAAAT9CAQAAADy7mL2AAAABGdBTUEAALGPC/xhBQAAACBjSFJNAAB6JgAAgIQAAPoAAACA6AAAdTAAAOpgAAA6mAAAF3CculE8AAAAAmJLR0QA/4ePzL8AAAAHdElNRQfiBwQAGxlnRzg0AAAqXklEQVR42u3dabRcdZ3v4W/mAAEzMCQgkKgMAgkgqEwiCEpEUFsFRaO20uAALffe5XRd2he1u6/S6GqW3Fa01XakF4oo2CLKIMikoETCFIaQgEiQTGQmwzn3RUiTQIYz7Kqz67+fp96wFifn1PntXac+tWv/dyUAAAAAAAAAAAAAAAAAAAAAAAAAAAAAAAAAAAAAAAAAAAAAAAAAAAAAAAAAAAAAAAAAAAAAAAAAAAAAAAAAAAAAAAAAAAAAAAAAAAAAAAAAAAAAAAAAAAAAAAAAAAAAAAAAAAAAAAAAAAAAAAAAAAAAAAAAAAAAAAAAAAAAAAAAAAAAAAAAAAAAAAAAAAAAAAAAAAAAAAAAAAAAAAAAAAAAAAAAAAAAAAAAAAAAAAAAAAAAAAAAAAAAAAAAAAAAAAAAbTPICIDa2TkTMzF7ZHzGZVzGZXRGJtk+Q5OsyrIky7Mw8zM/8zI3czI7D2eRsQECC2BjO+XATMnkTMm+2bYP/35R7s2d+VNm5M4sNk5AYAFN/hu0X47IkTkie1X2Pdfm7tyYW3JjZhswANAko3JyLsqj6W7h7aFclFOyvWEDAKXbOR/KdVnT0rTa8LY8P8s7ZRYAUKbtc3qubmNabZxZl+YtGWYjAADlOCQXZfGApNWGtwW5KAfYGABApxuWd+cPA55Wz966cnVOtMQHAOhUO+ScPFKjuHr2dn/OyTY2EADQWUbnczV4U3BLt8dyVobbUABAZ9gun8iCWsfV+tsjOScjbDAAoN6G5Mw80RFxtf42MyfbbABAfR2T6R0VV+tv12SKjQcA1M/4XNKRcbXutjpfznY2IgBQJ6dkXgfn1brbwznBhgQA6mFSrun4uFp/+27G2KAAwEA7pUNWDPZ8ZeExNioAMHB2yPeKiqv1V3u/wBWyAICBcUhmF5hX6263ZncbGABot2lZVmxedac7T+a1NjIA0D7D89Wi42r9pRs+alMDAO0xJtc1IK/W3b7tbCwAoPUm5Z7G5NW6q7yPttEBgFZ6RYd90mAVt7uyhw0PALTK0XmqcXnVne7MyV42PgDQClOzvJF51Z3uzPVx0ABA9d6cpxubV93pzrwcYicAAKr0uqxsdF51pzsLc7AdAQCoymuyovF51Z3u/DUvtTMAWzPICIAeOCK/ynbGkCR5NEdntjEAAgvon31zU8Yaw397KIdlnjEAmzfYCICt2DGXy6uNvDg/yQhjADZviBEAW7RNfpkDjeE59sxeudQYAIEF9MWgfC9TjWETDsia3GAMAEDvfdS6wc3e1uZEOwiwuVenAJtzbH6VocawWQvz8jxkDIDAAnput/wxOxvDFk3P4VlpDMBzOQcL2LTB+UkmG8NWjM8LcqUxAAA983FnWfXo1pWT7CzAc3mLENiUg3NrhhtDjzyZKZlrDMCGXGgUeL4R+Z686rGd8jVDAAQWsDWfyv6G0AtvytsMAdiQtwiB59o3030QTC/NzX5ZaAzAelYRAhsbnMsz0Rh6aVR2zOXGADz7pxRgQ6fnMEPog/fnKEMA1vMWIbCh7XN/xhtDn/whr0iXMQCJI1jAxv5BXvXZIXmXIQDrOIIFPOvFudvp7f3wWPbJMmMAnOQObOjCHGwI/bBDluRGYwAcwQKetV9mOG2gnxZlUhYZA+AIFrDev7m8aL+NzIpcbwyAI1jAOgfmDn8RKvBUJrnkKODtAGCdT8irSrwgHzQEwB9UIElemFkZZgyVeCITs9IYoNkcwQKS5H/Iq8rsktMMAZrOESwg2T6P5gXGUJm7MiXdxgBN5ggWkLxLXlXqgBxpCCCwgKY7wwhMFKiStwiBAzPdECq2Iru5WAM0mSNYwAeMoHLb5J2GAE3mCBY03bDMzVhjqNytOdwQoLkcwYKme528aolXZqIhgMACmupUI2iJQTnFEKDJfwKAJhuRJ1yioUVuz8sNAZrKESxotmPlVcscmt0NAQQW0ESvN4IWmmoEILAAgYXpApVwDhY02aTMMoQWWpJxWW0M0ESOYEGTeQurtbZ3LSwQWEDzvMoIWuwoIwCBBTTNkUZgwkArOAcLmmvXPGYILbYo49JlDNA8jmBBczm60nqjs78hgMACmuQQI2iDlxkBCCygSaYYQRtMNgIQWIDAQmAB/eYkd2iqsZlvCG0wNxMMAZrHESxoKidft8f4jDUEEFhAU0wyApMGBBbgad+kAYEF1NpEIxBYgMACBJbAAgQWUGu7GkGbWEUIAgtojHFGYNKAwAKqfeyPNgSBBQgsoEpjMsQQ2mRHIwCBBTSDi1+aNSCwgIqNNIK2GepoIQgsoBmGG0EbjTACEFiAp3xMGxBYQK85gmXagMACPPY72FAjAH9kgSZYbQRt9LQRgMACPOVj2oDAAnptlRGYNiCwAE/5pg0ILKDWFhtBG2fdbQggsIAmmGcEbTPfCEBgAc2wMssMQcwCAguoluMqJg0ILKBiTxpBmziCBQILaIxHjKBN5hgBCCygKWYbQZs8bAQgsACBhcACBBbgad+kAYEF1MH9RtAWT+dRQwCBBTTFg1luCG1wT9YYAggsoCnW5h5DaIM7jQAEFuCpn2rNMAIQWIDAQmABAgvos1uMoOW68jtDAIEFNMkdTnNvuRl5yhBAYAFNsjq3G0KL3WQEILAAT/+YMCCwgH65zghaqju/MQRopkFGAA02IvMyyhhaZnoONgRoJkewoMmedoSlpa40AhBYQBP90ghMF6ietwih2SZmlr8DLbIg47PaGKCZHMGCZpud3xtCi/xEXoHAAprqEiMwWaBq3hqApnth5nip1QLzMiFrjAGayp9VaLo/52ZDaIEfyysQWECTfcsITBWolrcIgW3yl4w2hkrdmQMNAZrMESxgRS42hIp9wwig2RzBApKDcochVJqsu2WhMUCTOYIFJNNzvSFU6NvyCppuiBEASebnNEOoSFemZYExQLM5ggUkyc9zryFU5Kd5wBCg6RzBAtZZlZMNoRJ/l0cNAZrOSe7AOsMyM5OMod9+ndcZAuAIFrBOV5bljcbQb9PyZ0MAHMECnn3BdXf2MYZ++bk3WoF1f1AB1unOorzFGPqhK+/M48YAWEUIbOiH+b0h9MN380dDABJvEQIbOzw3+bvQR0uzT/5iDEDiCBawsVvyn4bQR/8sr4D1vFIFNrZ77skoY+i1h3JAVhoDsI6T3IGNLc6KTDWGXntH7jcEAGBzBuemdLv16vZtuw2wIW8RAs93QP6Q4cbQY/OyX540BuBZ3iIEnu+vGZRjjaHH3pPbDQEA2JrB+Y03/np4+4bdBXgubxECm7Z7/pQxxrBVD+XgLDEGYGPeIgQ2bXEezVuNYStW5cTMNgZAYAE9NSPjc6gxbNFH8jNDAAB6Y1h+6xyrLdy+bxcBNs05WMCWjM8fM8EYNunOHJ7lxgBsis8iBLZkbk7N08awCU/kTfIKEFhA39yY96TbGJ5jRf7Gye3A5jnJHdiau7MmrzGGDXTltPzaGACA/vm6U9o3uJ1jhwAA+m9wfiCsnrn9g90BAKjGkFwirtKdf7UrAADVGZGrGp9X/+biNgBAtYbnJ43OqwvlFQBQvSH5TmPz6gs2PwDQqsT69wbGVVc+ZtMDAK10TroalVcrM81GBwBa7dSsaExezc+rbXAAoB2OybxG5NXM7G1jAwDt8sL8rvi8uiKjbWgAoJ1G5BtFn9j+hQy2kQGA9js9S4vMq7/ktTYuADBQJuWm4vLqlxlvwwIAA2lY/m/WFBNXy/JBmxQAqIODcnsRefUbqwYBgPoYmk90+NWxFuRMnzYIANTN3rmiQ+NqTb6enWxAAKCejsudHfjG4EE2HABQZ0NzVv7SMXF1d95ikwEAnWB4zszjtY+rh3NmhthYAEDnGJWP57HaxtU9eV+G2kgAQOcZnlPy+9rF1Y05xZErAKCTDcpr86M8XYu0Wpyv5xCbBAAow875aO4d0Li6JadnlA0BAJRm/5ybmQOwUvBcV2gH2sc1i4GBcGjemKk5JINb/HNW5aZcmZ/lfiMHBBbQDDvlhByfI7JX5d+5K3flt7k612SJMQMCC2iiXXJEjsyBmZxd+vmd5uSu3JGbc3OeMlZAYAEkyc6Zkn0yKRMzKXtm3Fa/vjtPZE4ezsOZnXsyQ1YBAgtgy4ZmXMZlXMZmeAZl9DNJtSjJiizM/MzPvHQbEwAAAAAAAAAAAAAAAAAAAAAAAAAAAAAAAAAAAAAAAAAAAAAAAAAAAAAAAAAAAAAAAAAAAEC1BhkBFGp0BmWbjEyyQ4YYR+2syrIky7Iqa7PYOEBgAXUzJLtlYiZmUnbPjhn3zE1UdY7VmZf5mZ/5eSJ/zuzMzsN53FhAYAHtj6q9MiVTMjkHZPcMM5DirMzDuSt3ZkbuzOx0GwgILKB1dsuROTKHZ3JGGkZjLM703JybckvmGwYILKA6u2dqjslR2cMoGqw79+WmXJNfCy0QWEB/DM1hOSnH52Uerfy3rtyRq3N1fpM1hgECC+iNkZmaU3NStjcKNuOv+UkuyQ1ZaxQgsICtGZ6pOSVvzA5GQQ88kR/nR/ltuowCBBawaXvn/XlfdjYIeunP+UG+mjkGAQIL2NCIvDFn5jiPSvqsK9fm67nMmVkgsIAk2TkfztkZZxBUYHa+louyyCBAYEGT7ZWzc0a2MQgqtCTfzpfyiEGAwIImemX+T6Z6HNISq3NxPp8HDQIEFjTJ5Hwmb/MYpKW6cmk+JbJAYEEzTMln8yaPP9pidb6Vf8qjBgECC0q2Yz6TszLEIGijVflaPp0lBgHt4o88tNPwnJ2f5ugMNgra/Lf+lXlvluaOdBsGtIMjWNA+b8n5mWQMDKDf55zcagwgsKAUE/KVvNUYGHDd+UY+lsUGAQILOv9xdkb+xScLUhuP5+9zqTGAwIJO9tL8e44wBmrmR/n7PGEM0CpOtYXWvoQ5M7fJK2rolMzIG40BWvfnH2iVnfPNnGQM1Nj38qEsMwYQWNA5Tsi3M8EYqLn7Mi1/MAaomutgQSsMzT/nq9neIKi9HfP+rMpNBgECC+pup/w073Z8mA4xOMdnr/wyq40CquMpAKp2ZC7JrsZAh/lT3pqHjAGqe+UCVOnDuU5e0YEOzG05wRigKt4ihOoMyrk5z6OKDrVNTsv83GYQILCgTrbLJfmAMdDBBufEjM2vfCA0VPGKG6jC+FyelxsDBbgs07LcGEBgwcB7ca7ORGOgEDflpCwyBhBYMLD2zdXZzRgoyB05IU8aA/SdVYTQXy/LDfKKwhycG/JCY4C+cwQL+ucVuTJjjYECzcnxedAYQGBB+x2WX/lAHIr15xydh40BBBa010G5NmOMgYI9kqMzxxhAYEH7TM51GWcMFO6BHJ25xgACC9pjr9yQ8cZAA8zIsZlvDCCwoPV2yy3Z3RhoiFvzmqwwBugNl2mA3ts+P5dXNMhhucQHq0HveMhA7x81l+TVxkCj7J0dcpUxgMCC1rkw0wyBxjksi/I7Y4Cecg4W9M7Hcp4h0EhdeVN+bgwgsKB6x+Uqx31prCV5Ze41BhBYUK09c3t2NAYa7L68MouNAbbOKkLoqZG5VF7RcPvmO16YQ094swN66luZaghIrCzLzcYAW+OVCPTMe/MfhgBJ1uRVudUYQGBB/70od2QHY4Akyawc7Ews2DJvEcLWDc0VeYkxwDPGZNf81BhAYEH/fC7vNATYwEF5IDOMATbPW4SwNYfnt16KwHMsygF5zBhgc1ymAbZsRL4hr+B5RuciQwCBBX316exvCLAJb8jbDQE2x1uEsCVTcnuGGQNs0rzslyeNATbFWx+wpcfHFdndGGAzts0uVhPCpnmLEDbvwznUEGAL3pNjDAE2xVuEsDlj8kDGGQNs0d05KGuMAZ7LW4SwOefn1YYAW7FzHs/txgDP5QgWbNp++VOGGgNs1YLsnfnGABtzBAs27WIfjgM9sk1G5JfGABtzBAs2ZWquNAToodXZN7OMATbkCBZsyvfzQkOAHj+T7JCfGQNsyBEseL435zJDgF5Ym8m51xhgw9cdwMYG5+KMNwbo1aNmXC41BtjwQQFs7NQcaAjQ68fNFEOAZzmCBRsblO87fgV9eOSMzY+NAZ59SAAbOjH/ZQjQB2uzTx4yBljHESzY2EWZZAjQB4MzyOVNYD1HsGBDB2a6IUAfLc+emWcMsO4VB/CsTxoB9Nm2+aAhwDqOYMGzds0cnz8I/fB49sxqYwBHsGBD75dX0C8TcrIhgMCCjR8NpxsC9NMZRgACCzb0ukw0BPA4AoEFVTrTCKCCZ5X3GwI4yR3W2zl/zjBjgH57LHukyxjwWgNIklPkFVRit7zKEEBgwTpvNwLwaIKqeIsQkmTXPOrlBlRkXiZkjTHQbJ5SYN0rbo8FqMqOeY0hILCA5FQjgEpfskDDeYsQkvH5i8cCVOjJjLeSkGZzBAuSqfIKKrVTDjEEBBY03euNADyqQGBBlYbkeEMAgQUCC6p0RMYaAlTsFdnZEBBY0GSvMwJowbOLSzUgsKDRfKwHtMJRRoDAguYalpcbAggsEFhQpUOyrSFAC0zOaENAYEFTHWkE0KLnl8MNAYEFAgvw6AKBBZU41AigRZzfSIP5gBCabWzmGwK0yNxMMASayhEsmu1AI4CWGe9iowgsaKYpRgAeYSCwwJ9/8AgDgQW1NtkIQGCBwIJq7WUE0EIvMQIEFjTPGFeahpaaZAQILPDHH6jWhGxjCAgsaJqJRgAtNSh7GgICC5rGESzwKAOBBRXz2hpabaIRILCgaXYxAvAoA4EF1drRCKDFxhkBAgsEFuBRBgILvLYGjzIQWOBPPzSJI1gILGiYbTPSEMDLGBBYUCVXmIbW8zIGgQUNM8IIwOMMBBZUa7gRgMcZCCzwhx86jSNYCCzwhx+o/FlmqCEgsKBJhhkBeCkDAguqNcgIwCMNBBYAgMACABBYAAAILAAAgQUAILAAABBYAAACCwBAYAEAILAAAAQWAIDAAgBAYAEACCwAAIEFACCwAAAQWAAAAgsAQGABACCwAAAEFgCAwAIAQGABAAgsAACBBQAgsAAAqNJQI4Ca+lTm9+jr3pITDKvRe8DknG1YILCAnrk4s3v0dS8SWIX6Yeb06OtOElhQP94iBAAQWAAAAgsAQGABACCwAAAEFlCRbiMAEFgAAAILAACBBQAgsAAABBYAAAILCmUVIYDAAgAQWAAACCwAAIEFACCwAAAQWFAqqwgBBBYAgMACAEBgAQAILAAAgQUAgMCCUllFCCCwAAAEFgAAAgsAQGABAAgsAAAEFpTKKkIAgQUAILAAABBYAAACCwBAYAEAILCgVFYRAggsAACBBQCAwAIAEFgAAAILAACBBaWyihBAYAEACCwAAAQWAIDAAgAQWAAACCwolVWEAAILAEBgAQAgsAAABBYAgMACAEBgAQAILAAAgQUAgMACABBYAAACC2gxH5UDILAAAAQWAAACCwBAYAEACCygNpzkDiCwAAAEFgAAAgsAQGABAAgsAAAEFpTKKkIAgQUAILAAABBYAAACCwBAYAEAILCgVFYRAggsAACBBQCAwAIAEFgAAAILAACBBaWyihBAYAEACCwAAAQWAIDAAgAQWAAACCwolVWEAAILAEBgAQAgsAAABBYAgMACAEBgQamsIgQQWAAAAgsAAIEFACCwAAAEFgAAAgtKZRUhgMACABBYAAAILAAAgQUAILAAABBYUCqrCAEEFgCAwAIAQGABAAgsAACBBQCAwIJSWUUIILAAAAQWAAACCwBAYAEACCwAAAQWlMoqQgCBBQAgsAAAEFgAAAILAEBgAQAgsKBUVhECCCwAAIEFAIDAAgAQWAAAAgsAAIEFpbKKEEBgAQAILAAABBYAgMACABBYAAAILCiVVYQAAgsAQGABACCwAAAEFgCAwAIAQGBBqawiBBBYAAACCwAAgQUAILAAAAQWAAACC0plFSGAwAIAEFgAAAgsAACBBQAgsAAAEFhQKqsIAQQWAIDAAgBAYAEACCwAAIEFAIDAglJZRQggsAAABBYAAAILAEBgAQAILAAABBaUyipCAIEFACCwAAAQWAAAAgsAQGABACCwoFRWEQIILAAAgQUAgMACABBYAAACCwAAgQWlsooQQGABAAgsAAAEFgCAwAIAEFgAAAgsKJVVhAACCwBAYAEAILAAAAQWAIDAAgBAYEGprCIEEFgAAAILAACBBQAgsAAABBYAAAILSmUVIYDAAgAQWAAACCwAAIEFACCwAAAQWFAqqwgBBBYAgMACAEBgAQAILAAAgQUAgMCCUllFCCCwAAAEFgAAAgsAQGABAAgsoDac5A4gsAAABBYAAAILAEBgAQAILAAABBaUyipCAIEFACCwAAAQWAAAAgsAQGABACCwoFRWEQIILAAAgQUAgMACABBYAAACCwAAgQWlsooQQGABAAgsAAAEFgCAwAIAEFgAAAgsKJVVhAACCwBAYAEAILAAAAQWAIDAAgBAYEGprCIEEFgAAAILAACBBQAgsAAABBYAAAILSmUVIYDAAgAQWAAACCwAAIEFACCwoABrC7l/TnK3J7t/ILCgNpbV/P4tsYnokaU1z6sVNhECCzwtuX/Yk71QAIEFhT4trcgam4gCEsYLBQQWNC6wVtX43i3s8Vc6B6vpFtT63i20gRBY0CzdmVXje/dAj79ykE3Z+MCaX8SeDAILCnF/je/bfTYPRezJ99s8CCzwtFQfM3v8ld4iZGaN75sjWAgsaJy73TeKMMOeDAIL6uOG2t6zVbnJ5qHHrq/tPVuaP9o8CCxomlmZU9N79rvaXwaVOrmjtqe535jVNg8CC7zyr4trbRp6oau2R2Ovt3EQWNBEV9b0fv2iF1/rJHeS//IIA4EF9XF5La+C/UB+b9PQKz/K8hreq3vzJ5sGgQVNtDw/reG9+o4NQy8tzuU1vFffs2EQWNBU36/dPeqq4X2i/r5bwz35hzYLAgua6te1u07PZbVd20idXZW7anaPLrcnI7CgubrzpZrdoy/YKPRBV86r2T06z0ZBYEGTfb9Wr7N/kdttEvrkh7X6WJprc4tNgsCCJludL9bmvnTl3F7/G5dpYJ21+aca3ZvP2iAILGi6r2d6Te7JN3KbzUGffbc2F/a8uMYfRAUCC9r2yv+sWhwHmp9P2xj0Q3fOrsVH0yzPJ20MBBaQ3FyLRe4fzbw+PanCenflghrci3PziE2BwAKS5OzcP8D34JL8R5/+3SAbjw18KrcO8D24Pl+2GUBgwTpL866sGsCf/2DOsBGowOpMy1MD+POfzDuz1mYAgQXr3Z7/PWA/e3lOyeI+/ltvEbKxh3L6gO0VXfnb/MUmAIEFG/pyvjIgP3dtptVmHSMluDQfGaCf/L/yC+MHgQXP9T/zk7b/zO58IJcZPZW6cECuo35eLU6xB4EFtbM209p8JaHufDzf7Od3gOf7ZL7e5p/4HRdnAIEFm7MiJ7TxKNbafDDn9/N7WEXIpsP7g229mvr/y/vFPggs2Lync2q+1aaf9I62H2WgSYl1bj6Srrb8rC/m7Db9JBBY0LHW5u/ymZYvNZ+Vo/LjSp5GYXO+kr/Jghb/jKWZ5s1BEFjQs2j5xxyXx1v4E36WQ3O7QdNyl+eg3NTC739fDs8PjBkEFvTU9TkkV7TkOy/Kh/LmLDRi2uLRHJvP5+kWfOeufDWH5i4jBqC3Ts7sdFd6uyS7VHoPT6v4/rnV5bZnpfvJS3Jlxfdveg73BwKAvtoun8uiip6Srs+rKr9/75AiAquH3pYZFd23R3NWhvjjAED/bJ9zMrefT0k35riW3DdHsARWzw3Kybm1n/drTs7JSH8UAKjqSNZ7c03W9uEJ6bH8Sya37H45giWweuvIXJQFfbhHK3Np3pRh/hhAT17NAL2xR96e4/KqbNujr74n1+SKXNvSSz68IxfbLEWamDkt/O4j84acmNdkYo++ekF+k1/lRy2/5AMILGi04Tksh2fvvDR7Z9xz/t+qPJiZmZk7c13mtuG+CCyB1R8vyquzf16avTPpeWdVPZ77cn/uzY25w2VEoXeGGgH0warckBue+e/tMiqjMjrJiizNkixq86U/XWiU/piVWc/815DskBdkVEakK09lcZZlhfGAwIKBsizL8sQA/nzHoanG2ix0dTYQWMA6ZR7B6srsHn/tkBaeDg4gsIBiLMqLe/y1u+YxAwPqxUflAAAILAAAgQUAILAAABBYAAACC6iIC40CCCwAAIEFAIDAAgAQWAAAAgsAAIEFpbKKEEBgAQAILAAABBYAgMACABBYAAAILCiVVYQAAgsAQGABACCwAAAEFgCAwAIAQGBBqawiBBBYAAACCwAAgQUAILAAAAQWAAACC0plFSGAwAIAEFgAAAgsAACBBQAgsAAAEFhQKqsIAQQWAIDAAgBAYAEACCwAAIEFAIDAglJZRQggsAAABBYAAAILAEBgAQAILAAABBaUyipCAIEFACCwAAAQWAAAAgsAQGABACCwoFRWEQIILAAAgQUAgMACABBYAAACCwAAgQWlsooQQGABAAgsAAAEFgCAwAIAEFgAAAgsKJVVhAACCwBAYAEAILAAAAQWAIDAAmrDSe4AAgsAQGABACCwAAAEFgCAwAIAQGBBqawiBBBYAAACCwAAgQUAILAAAAQWAAACC0plFSGAwAIAEFgAAAgsAACBBQAgsAAAEFhQKqsIAQQWAIDAAgBAYAEACCwAAIEFAIDAglJZRQggsAAABBYAAAILAEBgAQAILAAABBaUyipCAIEFACCwAAAQWAAAAgsAQGABACCwoFRWEQIILAAAgQUAgMACABBYAAACCwAAgQWlsooQQGABAAgsAAAEFgCAwAIAEFgAAAgsKJVVhAACCwBAYAEAILAAAAQWAIDAAgBAYEGprCIEEFgAAAILAACBBQAgsAAABBYAAAILSmUVIYDAAgAQWAAACCwAAIEFACCwAAAQWFAqqwgBBBYAgMACAEBgAQAILAAAgQUAgMCCUllFCCCwAAAEFgAAAgsAQGABAAgsAAAEFpTKKkIAgQUAILAAABBYAAACCwBAYAEAILCgVFYRAggsAACBBQCAwAIAEFgAAAILAACBBaWyihBAYAEACCwAAAQWAIDAAgAQWAAACCwolVWEAAILAEBgAQAgsAAABBYAgMACAEBgQamsIgQQWAAAAgsAAIEFACCwAAAEFgAAAgtKZRUhgMACABBYAAAILAAAgQUAILAAABBYUCqrCAEEFgCAwAIAQGABAAgsAACBBQCAwIJSWUUIILAAAAQWAAACCwBAYAEACCwAAAQWlMoqQgCBBQAgsAAAEFgAAAILAEBgAQAgsKBUVhECCCwAAIEFAIDAAgAQWAAAAgsAAIEFpbKKEEBgAQAILAAABBYAgMACABBYAAAILCiVVYQAAgsAQGABACCwAAAEFgCAwAIAQGBBqawiBBBYAAACCwAAgQUAILAAAAQWUBtOcgcQWAAAAgsAAIEFACCwAAAEFgAAAgtKZRUhgMACABBYAAAILAAAgQUAILAAABBYUCqrCAEEFgCAwAIAQGABAAgsAACBBQCAwIJSWUUIILAAAAQWAAACCwBAYAEACCwAAAQWlMoqQgCBBQAgsAAAEFgAAAILAEBgAQAgsKBUVhECCCwAAIEFAIDAAgAQWAAAAgsAAIEFpbKKEEBgAQAILAAABBYAgMACABBYAAAILCiVVYQAAgsAQGABACCwAAAEFgCAwAIAQGBBqawiBBBYAAACCwAAgQUAILAAAAQWAAACC0plFSGAwAIAEFgAAAgsAACBBQAgsAAAEFhQKqsIAQQWAIDAAgBAYAEACCwAAIEFAIDAglJZRQggsAAABBYAAAILAEBgAQAILAAABBaUyipCAIEFACCwAAAQWAAAAgsAQGABACCwoFRWEQIILAAAgQUAgMACABBYAAACCwAAgQWlsooQQGABAAgsAAAEFgCAwAIAEFgAAAgsKJVVhAACCwBAYAEAILAAAAQWAIDAAgBAYEGprCIEEFgAAAILAACBBQAgsAAABBYAAAILSmUVIYDAAgAQWAAACCwAAIEFACCwAAAQWFAqqwgBBBYAgMACAEBgAQAILAAAgQUAgMCCUllFCCCwAAAEFgAAAgsAQGABAAgsAAAEFpTKKkIAgQUAILAAABBYAAACCwBAYAEAILCgVFYRAggsAACBBQCAwAIAEFgAAAILAACBBaWyihBAYAEACCwAAAQWAIDAAgAQWAAACCwolVWEAAILAEBgAQAgsAAABBYAgMACAEBgQamsIgQQWAAAAgsAAIEFACCwAAAEFgAAAgtKZRUhgMACABBYAAAILAAAgQUAILCA2nCSO4DAAgAQWAAACCwAAIEFACCwAAAQWFAqqwgBBBYAgMACAEBgAQAILAAAgQUAgMCCUllFCCCwAAAEFgAAAgsAQGABAAgsAAAEFpTKKkIAgQUAILAAABBYAAACCwBAYAEAILCgVFYRAggsAACBBQCAwAIAEFgAAAILAACBBaWyihBAYAEVW9H432pFoVt2uZ0bBBYwcCmypsDfakmLvrbUGQACC6jYsobHxZo8XeAEVmelXRsEFtAZMVLm72QCgMACPBULLIEFAguot3mN/51MABBYQMXuL/B3mmkCdmwQWICn4oH8nUwAEFiAp2KBtVX32bFBYAECq0qrM0ti2rGhkw0yAuh4w7I4I4v6je7Nfr36+m2yOEOLmsCavMCV3KGTOYIFnW91bi3sN7q+l1+/IrcXNoHb5BUILGCgXdf43+fawiZwjZ0aBBYw0MrKi+5eH8EqLzGvtVNDZ3MOFpRgWBZkVDG/zZ05sNf/ZtssyIhiJrAyY7PCbg2dzBEsKMHq3FDQb9OXozfLc3NBE7hRXoHAAurgkoJ+l/80ATs0dDpvEUIZtsvcQt4kfDB7p7sP/25MHi/kTcKVmZBFdmnobI5gQRmW5bJCfpPv9imvkoX5eSETuExegcAC6uJ7RfwW3flBwyeQfNfODJ3PW4RQzsulh7NHx/8W1+eYPv/bYXk0u3T8BB7LxKyxO0Pn/0kGytCVLxXwW3yxH/92df61gAmcL6+gBI5gQTlGZlYmdPRvMD0v6+MZWOvskNkZ09ETmJdJWWpXhs7nCBaUY2Uu6PDf4PP9yqtkcS7s8AmcL6+gDI5gQUlG5eHs2LH3/t4ckK5+fo+xmZ3tO3YCCzIxS+zGUIIhRgAFWZXBOb5j7/0Hc0+/v8eKbJNXd+wEzi3uMxUBoAjDc0+6O/J2VUUT2CYPdegE7s4wOzAA1NPR6erAuFiZfSqbwNSOzKuuHGvnBYD6+kEH5sVnK53AzzpwAt+x40JJnOQO5ZmQezK6o+7xg5mSFRV+v4mZ0WGfzLgg++UJuy4A1NlJHfU24aocVvkE3tFhbw++2U4LAPV3QQflxUdaMoFvdtAEzrPDAkAnGJZbOiQurmjRqQojM71DJnBrhtthAaAzvCgLOyAuZrXwbLH9sqQDJvBkdrezAkDnODzLah4X87JvSydwXFbWfALLcqQdFQA6y8lZXeu4OKLlEzgta2t9ev/r7aQA0HneU9v1hO2Ki7NqvHbwb+2gANCZPlnLuFiTd7VtAv9Y07z6iJ0TADrX+2r3RuHKvK2tEzindm8UrskZdkwA6GxvzooaxcXCHN32CUzLqlqdffYGOyUAdL5jsqgmcfF4DhqQCZxUmzWVC6wcBIBS7Je7ahAXv80LB2wCB+eBGkzgtrzYzggA5Rg5wB+g05ULMmxAJ7B9fjjAeXVRRtgRAaA07x6wq5s/mRNrMYH3DNhbhU/lVDsgAJTpJblqAOLi4kyozQT2z/UDMIFLfSQOAJTt5MxpY1o8kBNqN4FTMreNE3iwJkfvAICWGpXz83Qb0mJJPpXhtZzA6FzYluuDLc1nnHcFAM2xS77Q0vORFueCjK/1BPbMBVne4glMsKMBQNPslHOzsAVpMS/nZkyjM7NzJgAAtMDonJHfVvah0GtyVaZl246awNiclVsq/BicqzIt29mxAIAX5R9yXz/TYno+ml07dgJ75/N5qJ8TuKOjJwBUZpARABuYkKNyfE7Inr36V4/nxlydK/NoARPYNUfm+Ly+lxdVKGkCgMACWmTvTM4+z9xGb/Ir5mdm7sv9mZnpmV3gBF6aA7J39s0+2Sc7bPIr5uW+zMz9mZk78ohdBhBYQG9sm1EZldEZleF5OkvzVBZnWVY0aALbZbuMypiMyrCszNIszuIszUq7BgAAAAAAAAAAAAAAAAAAAAAAAAAAAAAAAAAAAAAAAAAAAAAAAAAAAAAAAAAAAAAAAAAAAAAAAAAAAAAAAAAAAAAAAAAAAAAAAAAAAAAAAAAAAAAAAAAAAAAAAAAAAAAAAAAAAAAAAAAAAAAAAAAAAAAAAAAAAAAAAAAAAAAAAAAAAAAAAAAAAAAAAAAAAAAAAAAAAAAAAAAAAAAAAAAAAAAAAAAAAAAAAAAAAAAAAAAAAAAAAAAAAAAAAFBX/x8zsHQEf07hlgAAACV0RVh0ZGF0ZTpjcmVhdGUAMjAxOC0wNy0wNFQwMDoyNzoyNSswMDowMPeYNGEAAAAldEVYdGRhdGU6bW9kaWZ5ADIwMTgtMDctMDRUMDA6Mjc6MjUrMDA6MDCGxYzdAAAAAElFTkSuQmCC;" vertex="1" parent="1">
          <mxGeometry x="370" y="170" width="28.19" height="30" as="geometry" />
        </mxCell>
      </root>
    </mxGraphModel>
  </diagram>
</mxfile>
